<?xml version="1.0" encoding="utf-8"?>
<!-- Generator: Adobe Illustrator 24.1.1, SVG Export Plug-In . SVG Version: 6.00 Build 0)  -->
<svg version="1.1" id="Layer_1" xmlns="http://www.w3.org/2000/svg" xmlns:xlink="http://www.w3.org/1999/xlink" x="0px" y="0px"
	 viewBox="0 0 612 610.6" style="enable-background:new 0 0 612 610.6;" xml:space="preserve">
<style type="text/css">
	.st0{clip-path:url(#SVGID_2_);fill:#C6E2ED;}
	.st1{fill:#E6E6E7;}
	.st2{fill:#4B4B70;}
	.st3{clip-path:url(#SVGID_4_);fill:#4B4B70;}
	.st4{clip-path:url(#SVGID_6_);fill:#A0CFE6;}
	.st5{clip-path:url(#SVGID_8_);fill:#629ABF;}
	.st6{fill:#8BB8DC;}
	.st7{fill:#F0F1F1;}
	.st8{fill:#C3DFED;}
	.st9{fill:#A0CFE6;}
	.st10{fill:#78ABCE;}
	.st11{fill:#629ABF;}
	.st12{fill:#BE1E2C;}
	.st13{fill:#F7CF9C;}
	.st14{fill:#221F1F;}
	.st15{fill:#81B2D3;}
	.st16{fill:#FFFFFF;}
	.st17{fill:#343444;}
	.st18{fill:#D34A4A;}
	.st19{fill:#3D3D77;}
	.st20{fill:#262260;}
	.st21{fill:#EA5E5E;}
	.st22{fill:#D0D2D3;}
	.st23{fill:#FFBA7F;}
	.st24{fill:#BBBDBF;}
	.st25{fill:#57585A;}
	.st26{fill:#929597;}
	.st27{fill:#3B2314;}
	.st28{fill:#D15C58;}
	.st29{fill:#F88976;}
	.st30{fill:#F69D5E;}
	.st31{fill:none;stroke:#221F1F;stroke-width:2.684;stroke-miterlimit:10;}
	.st32{fill:none;stroke:#221F1F;stroke-width:5.8012;stroke-linecap:round;stroke-miterlimit:10;}
	.st33{fill:none;stroke:#221F1F;stroke-width:5.2456;stroke-miterlimit:10;}
	.st34{fill:none;stroke:#221F1F;stroke-width:5.8233;stroke-linecap:round;stroke-miterlimit:10;}
	.st35{fill:none;stroke:#221F1F;stroke-width:4.847;stroke-linecap:square;stroke-miterlimit:10;}
	.st36{fill:#FFFFFF;stroke:#000000;stroke-miterlimit:10;}
	.st37{font-family:'ArialMT';}
	.st38{font-size:9.9473px;}
	.st39{font-size:20px;}
	.st40{fill:#A5A5A5;}
	.st41{font-family:'MyriadPro-Regular';}
	.st42{font-size:6px;}
</style>
<g>
	<g>
		<g>
			<g>
				<defs>
					<rect id="SVGID_1_" width="610.6" height="610.6"/>
				</defs>
				<clipPath id="SVGID_2_">
					<use xlink:href="#SVGID_1_"  style="overflow:visible;"/>
				</clipPath>
				<polygon class="st0" points="0,0 0,610.6 610.6,610.6 610.6,0 				"/>
			</g>
		</g>
	</g>
	<path class="st1" d="M404.7,126.7c-1.6,0-3,1.3-3,3s1.3,3,3,3c1.6,0,3-1.3,3-3S406.4,126.7,404.7,126.7L404.7,126.7z"/>
	<path class="st2" d="M404.7,128.1c-0.9,0-1.6,0.7-1.6,1.6c0,0.9,0.7,1.6,1.6,1.6s1.6-0.7,1.6-1.6
		C406.3,128.8,405.6,128.1,404.7,128.1L404.7,128.1z"/>
	<path class="st1" d="M516.8,32.1c-1.6,0-3,1.3-3,3c0,1.6,1.3,3,3,3c1.6,0,3-1.3,3-3C519.7,33.4,518.4,32.1,516.8,32.1L516.8,32.1z"
		/>
	<path class="st2" d="M516.8,33.4c-0.9,0-1.6,0.7-1.6,1.6c0,0.9,0.7,1.6,1.6,1.6c0.9,0,1.6-0.7,1.6-1.6
		C518.4,34.1,517.7,33.4,516.8,33.4L516.8,33.4z"/>
	<path class="st1" d="M404.7,32.1c-1.6,0-3,1.3-3,3c0,1.6,1.3,3,3,3c1.6,0,3-1.3,3-3C407.7,33.4,406.4,32.1,404.7,32.1L404.7,32.1z"
		/>
	<g>
		<g>
			<g>
				<defs>
					<rect id="SVGID_3_" width="610.6" height="610.6"/>
				</defs>
				<clipPath id="SVGID_4_">
					<use xlink:href="#SVGID_3_"  style="overflow:visible;"/>
				</clipPath>
				<path class="st3" d="M404.7,33.4c-0.9,0-1.6,0.7-1.6,1.6c0,0.9,0.7,1.6,1.6,1.6s1.6-0.7,1.6-1.6
					C406.3,34.2,405.6,33.4,404.7,33.4L404.7,33.4z"/>
			</g>
		</g>
		<g>
			<g>
				<defs>
					<rect id="SVGID_5_" width="610.6" height="610.6"/>
				</defs>
				<clipPath id="SVGID_6_">
					<use xlink:href="#SVGID_5_"  style="overflow:visible;"/>
				</clipPath>
				<polygon class="st4" points="0,527.3 610.6,527.3 610.6,506.8 0,506.8 				"/>
			</g>
		</g>
		<g>
			<g>
				<defs>
					<rect id="SVGID_7_" width="610.6" height="610.6"/>
				</defs>
				<clipPath id="SVGID_8_">
					<use xlink:href="#SVGID_7_"  style="overflow:visible;"/>
				</clipPath>
				<polygon class="st5" points="0,610.6 610.6,610.6 610.6,527.3 0,527.3 				"/>
			</g>
		</g>
	</g>
	<polygon class="st6" points="365.5,115.3 443.9,115.3 443.9,36.8 365.5,36.8 	"/>
	<polygon class="st7" points="370.9,109.8 438.5,109.8 438.5,42.2 370.9,42.2 	"/>
	<polygon class="st6" points="459.2,208.5 574.3,208.5 574.3,36.8 459.2,36.8 	"/>
	<polygon class="st7" points="464.6,203.5 568.9,203.5 568.9,42 464.6,42 	"/>
	<polygon class="st6" points="365.5,209.8 443.9,209.8 443.9,131.4 365.5,131.4 	"/>
	<polygon class="st7" points="370.9,204.4 438.5,204.4 438.5,136.8 370.9,136.8 	"/>
	<path class="st8" d="M516.8,59.4c-18.5,0-33.4,4.4-33.4,9.8s15,9.8,33.4,9.8c18.5,0,33.4-4.4,33.4-9.8S535.2,59.4,516.8,59.4
		L516.8,59.4z"/>
	<polygon class="st8" points="471.6,101.8 512,101.8 512,98.7 471.6,98.7 	"/>
	<polygon class="st8" points="471.6,108.3 512,108.3 512,105.3 471.6,105.3 	"/>
	<polygon class="st8" points="471.6,114.9 512,114.9 512,111.8 471.6,111.8 	"/>
	<polygon class="st8" points="471.6,121.4 512,121.4 512,118.3 471.6,118.3 	"/>
	<polygon class="st8" points="471.6,128 512,128 512,124.9 471.6,124.9 	"/>
	<polygon class="st8" points="471.6,134.5 512,134.5 512,131.4 471.6,131.4 	"/>
	<polygon class="st8" points="471.6,148.2 512,148.2 512,145.1 471.6,145.1 	"/>
	<polygon class="st8" points="471.6,154.7 512,154.7 512,151.6 471.6,151.6 	"/>
	<polygon class="st8" points="471.6,161.2 512,161.2 512,158.2 471.6,158.2 	"/>
	<polygon class="st8" points="471.6,167.8 512,167.8 512,164.7 471.6,164.7 	"/>
	<polygon class="st8" points="471.6,174.3 512,174.3 512,171.2 471.6,171.2 	"/>
	<polygon class="st8" points="471.6,180.9 512,180.9 512,177.8 471.6,177.8 	"/>
	<polygon class="st8" points="522.4,101.8 562.8,101.8 562.8,98.7 522.4,98.7 	"/>
	<polygon class="st8" points="522.4,108.3 562.8,108.3 562.8,105.3 522.4,105.3 	"/>
	<polygon class="st8" points="522.4,114.9 562.8,114.9 562.8,111.8 522.4,111.8 	"/>
	<polygon class="st8" points="522.4,121.4 562.8,121.4 562.8,118.3 522.4,118.3 	"/>
	<polygon class="st8" points="522.4,128 562.8,128 562.8,124.9 522.4,124.9 	"/>
	<polygon class="st8" points="522.4,134.5 562.8,134.5 562.8,131.4 522.4,131.4 	"/>
	<polygon class="st6" points="532.3,194.3 543.4,187.9 554.4,194.3 554.4,160 532.3,160 	"/>
	<path class="st9" d="M543.4,144.6c-8.5,0-15.4,6.9-15.4,15.4s6.9,15.4,15.4,15.4s15.4-6.9,15.4-15.4
		C558.8,151.5,551.9,144.6,543.4,144.6L543.4,144.6z"/>
	<path class="st6" d="M543.4,148.9c-6.1,0-11.1,5-11.1,11.1s5,11.1,11.1,11.1s11.1-5,11.1-11.1C554.4,153.9,549.5,148.9,543.4,148.9
		L543.4,148.9z"/>
	<path class="st9" d="M417.3,59.8c-5.8-2.6-7.5,0.8-8.5,0c-2.2-1.9-0.3-3.1,1.4-6.2c0.9-1.6,2.7-2.9,2.2-3.6
		c-0.6-0.9-2.3-2.1-2.3-2.1l-4.4,5.3c0,0-6.4,7.2-6.8,17.4c-0.3,10.3-4.6,12.5-10.2,17.7c-5.6,5.2-5.3,11.7-5,14.6
		c0.2,2,4.3,0.4,4.3,0.4s-2.5-6.5,1.8-9.8c4.4-3.2,11.9,7.7,22.7,1C424.7,87.3,430.7,65.8,417.3,59.8L417.3,59.8z"/>
	<path class="st6" d="M409.9,82.1c-2.3,0-4.1,1.8-4.1,4.1c0,2.3,1.8,4.1,4.1,4.1c2.3,0,4.1-1.8,4.1-4.1S412.2,82.1,409.9,82.1
		L409.9,82.1z"/>
	<path class="st6" d="M400.6,86.2c-1.2,0-2.2,1-2.2,2.2s1,2.2,2.2,2.2s2.2-1,2.2-2.2C402.8,87.1,401.8,86.2,400.6,86.2L400.6,86.2z"
		/>
	<path class="st6" d="M405.1,76c-1.2,0.1-2.1,1.1-2,2.3c0.1,1.2,1.1,2.1,2.3,2c1.2-0.1,2.1-1.1,2-2.3C407.4,76.9,406.3,76,405.1,76
		L405.1,76z"/>
	<path class="st6" d="M411.5,72.8c-0.9,0-1.6,0.7-1.6,1.6s0.7,1.6,1.6,1.6s1.6-0.7,1.6-1.6S412.4,72.8,411.5,72.8L411.5,72.8z"/>
	<path class="st6" d="M408.3,67.7c-0.9,0-1.6,0.7-1.6,1.6s0.7,1.6,1.6,1.6s1.6-0.7,1.6-1.6C409.9,68.4,409.2,67.7,408.3,67.7
		L408.3,67.7z"/>
	<path class="st9" d="M395.9,165.4c-4.3-2.6-1.3,2.6-1.3,2.6s3.1,3.9,3.1,6.6c0,2.7-4,1.8-4.6,1.2s-0.7,3.4-0.7,3.4s3.3-0.7,5.3-1.2
		s2.9,16.4,3.5,18.4s3.2,0,3.2,0S400.2,167.9,395.9,165.4L395.9,165.4z"/>
	<path class="st6" d="M398.8,154.1c-1.3-3.9-10.9-6.9-16.6,0.9c-5.6,7.8-6.3,23.3-0.7,29.9c5.6,6.5,10.4,6.8,14.2,4.3
		c5.2-3.3-1.3-8.8-0.7-18C395.6,162,401.2,161.2,398.8,154.1L398.8,154.1z"/>
	<path class="st9" d="M416.4,175.7c-0.6,0.6-4.6,1.5-4.6-1.2s3.1-6.6,3.1-6.6s3.1-5.2-1.3-2.6c-4.3,2.6-8.5,31-8.5,31s2.6,2,3.2,0
		s1.5-18.9,3.5-18.4s5.3,1.2,5.3,1.2S417,175.1,416.4,175.7L416.4,175.7z"/>
	<path class="st6" d="M410.6,154.1c-2.4,7.1,3.2,7.8,3.8,17.1c0.6,9.2-5.9,14.7-0.7,18c3.8,2.4,8.6,2.2,14.2-4.3s4.9-22-0.7-29.9
		C421.6,147.2,411.9,150.2,410.6,154.1L410.6,154.1z"/>
	<polygon class="st10" points="310.1,457.2 327.3,457.2 327.3,441.6 310.1,441.6 	"/>
	<polygon class="st10" points="310.1,509 327.3,509 327.3,501.2 310.1,501.2 	"/>
	<polygon class="st6" points="312.7,501.2 324.7,501.2 324.7,457.2 312.7,457.2 	"/>
	<polygon class="st10" points="264.9,517.4 372.6,517.4 372.6,508.7 264.9,508.7 	"/>
	<path class="st11" d="M264.9,511.1c-4.5,0-8.1,3.6-8.1,8.1s3.6,8.1,8.1,8.1s8.1-3.6,8.1-8.1C272.9,514.8,269.3,511.1,264.9,511.1
		L264.9,511.1z"/>
	<path class="st11" d="M372.6,511.1c-4.5,0-8.1,3.6-8.1,8.1s3.6,8.1,8.1,8.1s8.1-3.6,8.1-8.1C380.7,514.8,377,511.1,372.6,511.1
		L372.6,511.1z"/>
	<path class="st10" d="M319.6,247.6c-28.6,0-63.9,16.3-63.9,42.7c0,26.4,18.5,123.3,18.5,123.3l94.2,1.3c0,0,13.5-98.3,13.5-122.3
		C381.8,263.9,348.2,247.6,319.6,247.6L319.6,247.6z"/>
	<path class="st6" d="M318.3,403.9c-37.2,0-67.3,0-67.3,20.2c0,11.1,30.1,20.2,67.3,20.2s67.3-9,67.3-20.2
		C385.6,403.9,355.5,403.9,318.3,403.9L318.3,403.9z"/>
	<polygon class="st6" points="55.4,527.3 235.4,527.3 235.4,349 55.4,349 	"/>
	<polygon class="st6" points="402,527.3 445.8,527.3 445.8,349 402,349 	"/>
	<polygon class="st7" points="438.2,330.4 438.7,331.3 439.3,330.6 439.5,328.4 438.4,328.3 	"/>
	<polygon class="st12" points="437.9,329.3 439.8,329.5 440.5,326.7 437.8,326.4 	"/>
	<path class="st6" d="M446.1,261.9h-0.3c-1.5-0.2-2.8,0.9-2.9,2.4l-4.9,46.2c-0.1,1.4-1,16.1-0.4,16.6c0.3,0.3,2.5,0.6,3,0.2
		c0.5-0.3,3-15.3,3.1-16.3l4.9-46.2C448.7,263.4,447.6,262.1,446.1,261.9L446.1,261.9z"/>
	<path class="st9" d="M442.9,264.3l-4.9,46.2c-0.1,1.4-1,16.1-0.4,16.6c0.1,0.1,0.8,0.3,1.5,0.3l6.9-65.5h-0.1
		C444.4,261.7,443,262.8,442.9,264.3L442.9,264.3z"/>
	<path class="st10" d="M448.4,265.9l-5.9-0.6c-0.3,0-0.6,0.1-0.6,0.4c0,0.2-0.2,0.4,0.1,0.4l6.3,0.7c0.3,0,0.6-0.1,0.6-0.4
		C448.9,266.2,448.7,265.9,448.4,265.9L448.4,265.9z"/>
	<path class="st10" d="M441.3,266.9c-0.1,0.7-1.6,17.6-1.5,18s0.9-0.3,1-1.1c0.1-0.7-0.3-1.3-0.2-1.2l1.5-16.1l0.4-1.2
		C442.5,265.3,441.5,265,441.3,266.9L441.3,266.9z"/>
	<path class="st6" d="M421.9,267.3c-0.1-0.3-0.4-0.4-0.7-0.3l-3.1,1.1c-0.3,0.1-0.4,0.4-0.3,0.7l1.1,3c0.1,0.3,0.4,0.4,0.7,0.3
		l3.1-1.1c0.3-0.1,0.4-0.4,0.3-0.7L421.9,267.3L421.9,267.3z"/>
	<polygon class="st13" points="442.8,331.9 442.8,325.8 438.7,327.2 	"/>
	<polygon class="st14" points="442.8,331.9 442.9,330 441.5,330.5 	"/>
	<polygon class="st9" points="418.8,271.7 438.7,327.2 442.8,325.8 422.9,270.2 	"/>
	<polygon class="st7" points="418.5,270.7 418.8,271.7 422.9,270.2 422.6,269.2 	"/>
	<polygon class="st6" points="420.9,271 440.8,326.5 442.8,325.8 422.9,270.2 	"/>
	<polygon class="st6" points="422.8,333.9 453.5,333.9 453.5,294.4 422.8,294.4 	"/>
	<polygon class="st10" points="438.2,333.9 453.5,333.9 453.5,294.4 438.2,294.4 	"/>
	<path class="st10" d="M80.8,220.2c-3.8,0-6.8,3-6.8,6.8v52.4v6.8v12.9c0,3.8,3,6.8,6.8,6.8H168l-51.8-85.8H80.8V220.2z"/>
	<path class="st15" d="M194.5,220.2h-78.3L168,306h26.5c3.8,0,6.8-3,6.8-6.8v-12.9l0,0V227C201.3,223.3,198.3,220.2,194.5,220.2
		L194.5,220.2z"/>
	<path class="st6" d="M137.3,274c-6.5,0-11.7,5.2-11.7,11.7v37.9c0,6.5,5.2,7.7,11.7,7.7s11.7-1.3,11.7-7.7v-37.9
		C149,279.2,143.7,274,137.3,274L137.3,274z"/>
	<path class="st10" d="M163.7,320.4h-37.8H121h-9.3c-2.7,0-4.9,2.2-4.9,4.9v8.7h61.8v-8.6C168.6,322.6,166.4,320.4,163.7,320.4
		L163.7,320.4z"/>
	<polygon class="st9" points="30.1,349 471,349 471,333.9 30.1,333.9 	"/>
	<polygon class="st6" points="200.2,158.4 251,158.4 251,139.9 200.2,139.9 	"/>
	<polygon class="st6" points="57.8,158.4 108.6,158.4 108.6,139.9 57.8,139.9 	"/>
	<polygon class="st9" points="227.1,128.6 243.6,128.6 243.6,77.2 227.1,77.2 	"/>
	<polygon class="st6" points="227.1,83.7 243.6,83.7 243.6,77.2 227.1,77.2 	"/>
	<polygon class="st6" points="227.1,128.6 243.6,128.6 243.6,123.6 227.1,123.6 	"/>
	<polygon class="st10" points="208.6,128.6 227.1,128.6 227.1,62.2 208.6,62.2 	"/>
	<polygon class="st6" points="213.6,116.2 222.1,116.2 222.1,69.5 213.6,69.5 	"/>
	<polygon class="st6" points="194.5,128.6 208.6,128.6 208.6,72.4 194.5,72.4 	"/>
	<polygon class="st6" points="125.5,128.6 150.9,128.6 150.9,41.4 125.5,41.4 	"/>
	<polygon class="st16" points="129.1,51.4 129.1,93.2 147.3,93.2 147.3,51.4 138.2,57.1 	"/>
	<path class="st8" d="M138.2,98.9c-3.7,0-6.7,3-6.7,6.7s3,6.7,6.7,6.7s6.7-3,6.7-6.7C145,101.9,141.9,98.9,138.2,98.9L138.2,98.9z"
		/>
	<path class="st11" d="M138.2,100.2c-3,0-5.4,2.4-5.4,5.4s2.4,5.4,5.4,5.4s5.4-2.4,5.4-5.4C143.7,102.7,141.2,100.2,138.2,100.2
		L138.2,100.2z"/>
	<polygon class="st10" points="100.1,128.6 125.5,128.6 125.5,41.4 100.1,41.4 	"/>
	<polygon class="st16" points="103.7,51.4 103.7,93.2 121.9,93.2 121.9,51.4 112.8,57.1 	"/>
	<path class="st8" d="M112.8,98.9c-3.7,0-6.7,3-6.7,6.7s3,6.7,6.7,6.7s6.7-3,6.7-6.7C119.6,101.9,116.6,98.9,112.8,98.9L112.8,98.9z
		"/>
	<path class="st11" d="M112.8,100.2c-3,0-5.4,2.4-5.4,5.4s2.4,5.4,5.4,5.4s5.4-2.4,5.4-5.4C118.3,102.7,115.8,100.2,112.8,100.2
		L112.8,100.2z"/>
	<polygon class="st6" points="74.8,128.6 100.1,128.6 100.1,41.4 74.8,41.4 	"/>
	<polygon class="st16" points="78.3,51.4 78.3,93.2 96.6,93.2 96.6,51.4 87.4,57.1 	"/>
	<path class="st8" d="M87.4,98.9c-3.7,0-6.7,3-6.7,6.7s3,6.7,6.7,6.7s6.7-3,6.7-6.7C94.2,101.9,91.2,98.9,87.4,98.9L87.4,98.9z"/>
	<path class="st11" d="M87.4,100.2c-3,0-5.4,2.4-5.4,5.4s2.4,5.4,5.4,5.4s5.4-2.4,5.4-5.4C92.9,102.7,90.4,100.2,87.4,100.2
		L87.4,100.2z"/>
	<polygon class="st10" points="49.4,128.6 74.8,128.6 74.8,41.4 49.4,41.4 	"/>
	<polygon class="st16" points="53,51.4 53,93.2 71.2,93.2 71.2,51.4 62.1,57.1 	"/>
	<path class="st8" d="M62.1,98.9c-3.7,0-6.7,3-6.7,6.7s3,6.7,6.7,6.7c3.7,0,6.7-3,6.7-6.7C68.8,101.9,65.8,98.9,62.1,98.9L62.1,98.9
		z"/>
	<path class="st11" d="M62.1,100.2c-3,0-5.4,2.4-5.4,5.4s2.4,5.4,5.4,5.4s5.4-2.4,5.4-5.4C67.5,102.7,65.1,100.2,62.1,100.2
		L62.1,100.2z"/>
	<polygon class="st10" points="171.9,126.1 180.7,128.6 194.6,79.1 185.7,76.6 	"/>
	<polygon class="st16" points="30.1,139.9 275.1,139.9 275.1,128.6 30.1,128.6 	"/>
	<polygon class="st11" points="508.1,259.8 610.6,259.8 610.6,248.7 508.1,248.7 	"/>
	<polygon class="st7" points="517.6,526.4 610.6,526.4 610.6,259.8 517.6,259.8 	"/>
	<polygon class="st9" points="528.3,310.4 610.6,310.4 610.6,271.5 528.3,271.5 	"/>
	<polygon class="st9" points="528.3,356.7 610.6,356.7 610.6,317.7 528.3,317.7 	"/>
	<polygon class="st9" points="528.3,403 610.6,403 610.6,364 528.3,364 	"/>
	<polygon class="st9" points="528.3,449.2 610.6,449.2 610.6,410.3 528.3,410.3 	"/>
	<polygon class="st9" points="528.3,495.5 610.6,495.5 610.6,456.6 528.3,456.6 	"/>
	<path class="st16" d="M222,472.8l-5,0.2C219.6,474.5,222,472.8,222,472.8L222,472.8z"/>
	<path class="st16" d="M197.3,301.9c-38.5,8.3-33,81.1-34.7,148.2l6.1,25.1l48.4-2.1c-3.4-2-7-9.6-4.8-34.8
		c3.8-43.8,2.7-61.3,2.7-61.3l43.9-99.8C258.8,277.1,212,298.7,197.3,301.9L197.3,301.9z"/>
	<polygon class="st1" points="208.8,445.2 214.1,443.9 213.1,376.1 	"/>
	<polygon class="st17" points="231,582.3 230.8,610.6 302.4,610.6 303.3,580.2 	"/>
	<polygon class="st17" points="311.8,582.3 312.7,610.6 384.3,610.6 384.1,584.4 	"/>
	<path class="st7" d="M399.2,472.9l-1.7-0.1C397.5,472.8,398.5,474.6,399.2,472.9L399.2,472.9z"/>
	<path class="st7" d="M411.6,301.9c-14.6-3.1-61.5-24.8-61.5-24.8l43.9,99.8c0,0,1,17.5,4.8,61.3c2.1,24.7,1.4,32.5,0.5,34.7l41,2.3
		l6-25.1C444.6,383,450,310.1,411.6,301.9L411.6,301.9z"/>
	<polygon class="st18" points="274.9,289.9 210.9,314 210.9,545.4 397.8,545.4 397.9,314 337.5,281.6 	"/>
	<polygon class="st19" points="298,318.1 288.2,455.7 306,486.8 324.4,457.1 312.5,318.1 	"/>
	<path class="st20" d="M305,286.6c0,0-14.5,0.3-18,6.8c-7.8,14.4,11,26.7,11,26.7h14.5c0,0,15.6-11.2,11.2-22
		C320.1,289.4,305,286.6,305,286.6L305,286.6z"/>
	<polygon class="st21" points="256.1,281.3 278.6,312.3 305.8,285.4 260.2,255.7 	"/>
	<polygon class="st21" points="304.2,285.4 331.5,312.3 351.9,283.4 349.8,255.7 	"/>
	<path class="st16" d="M260.2,279.3l-46.4,20.9l-9.1,56c0,0-3.4,159.7-4.5,254.5h107.3l3-145.4L260.2,279.3L260.2,279.3z"/>
	<polygon class="st7" points="246.5,279.2 234.4,329 253.9,348.2 252.1,363.2 310.5,465.3 257.6,268.6 	"/>
	<polygon class="st22" points="220.7,542 262.2,542 262.2,536.5 220.7,536.5 	"/>
	<path class="st7" d="M395.8,300.2l-46.4-21l-50.4,186l0.1,145.4h110.2c-1.1-94.8-4.4-254.4-4.4-254.4L395.8,300.2L395.8,300.2z"/>
	<polygon class="st16" points="363.2,279.3 352,268.7 299,465.3 363.6,363.3 355.7,348.2 375.2,329.1 	"/>
	<path class="st22" d="M310.9,485.1c-2.3,0-4.1,1.8-4.1,4.1c0,2.3,1.8,4.1,4.1,4.1c2.3,0,4.1-1.8,4.1-4.1
		C315,487,313.2,485.1,310.9,485.1L310.9,485.1z"/>
	<path class="st22" d="M310.9,528.3c-2.3,0-4.1,1.8-4.1,4.1s1.8,4.1,4.1,4.1c2.3,0,4.1-1.8,4.1-4.1S313.2,528.3,310.9,528.3
		L310.9,528.3z"/>
	<path class="st22" d="M311.2,574.1c-2.3,0-4.1,1.8-4.1,4.1s1.9,4.1,4.1,4.1c2.3,0,4.1-1.8,4.1-4.1
		C315.3,575.9,313.4,574.1,311.2,574.1L311.2,574.1z"/>
	<polygon class="st22" points="346,542 387.5,542 387.5,536.5 346,536.5 	"/>
	<polygon class="st22" points="256.5,468.6 406.4,497.3 406.4,484.5 258.7,454.7 	"/>
	<polygon class="st22" points="321,425.3 322.3,440.5 397.1,450.2 396.8,436.8 	"/>
	<polygon class="st22" points="392.6,443.9 397.9,445.2 393.7,376.1 	"/>
	<path class="st23" d="M231.9,411.4c-1.9,4.3,5.2,8.9,5.2,8.9s-17.1-4.6-23.2-2.8c-6.1,1.8-9.5,9.4-10.4,14.8
		c-0.8,5.4,4.5,15.3,13.9,18.6c9.4,3.3,37.9,7.5,40.6,4.2s7.3-29.6,7.3-29.6L242.5,410C242.5,410,233.9,407.1,231.9,411.4
		L231.9,411.4z"/>
	<path class="st7" d="M406.7,446.1L264,417.9l-7.9,45.1c0,0,131.9,25.7,162.5,30.8c30.6,5.1,26.7-50.9,26.7-50.9L406.7,446.1
		L406.7,446.1z"/>
	<polygon class="st22" points="202.5,484.5 202.5,497.3 352.4,468.6 350.2,454.7 	"/>
	<path class="st23" d="M362,419c-16.7-1.1-26.4,4.4-26.4,4.4s4.6,26.3,7.3,29.6c2.7,3.3,15.2-10.2,24.6-13.5s18.4-2,24.2-2.7
		C397.1,436.1,377.3,420,362,419L362,419z"/>
	<path class="st16" d="M202.2,441.8l-38.7,1c0,0-3.9,56,26.7,50.9s162.5-30.8,162.5-30.8l-7.9-49.3L202.2,441.8L202.2,441.8z"/>
	<path class="st24" d="M234.4,446.2c-5.1,0.8-11.6,0.6-13.8-1.5c-1.5-1.1-3.1-5.5-3.8-11.6c-1.6-12.1-1.1-30.5-1.3-45h-4.2
		c0.2,14.4-0.4,32.8,1.3,45.5c0.9,6.4,2.1,11.4,5.3,14.3c4.6,3.6,11.6,3.1,17.1,2.5c4.5-0.6,8-1.6,8.1-1.6l-1.1-4.1
		C241.9,444.7,238.6,445.7,234.4,446.2L234.4,446.2z"/>
	<path class="st25" d="M239.2,443.1c-2.9,0.6-4.9,2.7-4.5,4.6s3.1,3,5.9,2.4c2.9-0.6,4.9-2.7,4.5-4.6S242.1,442.5,239.2,443.1
		L239.2,443.1z"/>
	<path class="st24" d="M276.6,379.4l-4.1,1.1c3.7,14,9,31.6,10.6,43.7c0.9,6,0.5,10.8-0.6,12.2c-1.6,2.6-7.8,4.5-12.9,5.1
		c-4.2,0.6-7.6,0.5-7.6,0.6v4.2c0.1,0,3.7,0,8.2-0.6c5.5-0.8,12.4-2.2,15.9-6.9c2.3-3.6,2.1-8.7,1.3-15.1
		C285.6,411,280.2,393.4,276.6,379.4L276.6,379.4z"/>
	<path class="st25" d="M264.1,439.8c-2.9,0.2-5.2,1.9-5.1,3.8s2.6,3.4,5.5,3.2c2.9-0.2,5.2-1.9,5.1-3.8S267,439.6,264.1,439.8
		L264.1,439.8z"/>
	<path class="st25" d="M238.5,343c-19,2.7-30.6,24.3-27.5,47.6l5.5-0.7l0,0c-1.4-10.6,0.6-20.6,4.8-28c4.2-7.5,10.6-12.3,18-13.3
		s14.8,2,20.9,8.1c6,6.1,10.6,15.2,12,25.8l5.5-0.7C274.4,358.4,257.6,340.6,238.5,343L238.5,343z"/>
	<path class="st25" d="M243.9,270.5c-5.1,6.7-9.6,15.2-11.3,24.3c-0.7,3.6-0.9,7.3-0.9,10.8c0,14.4,3.9,41.6,4,41.8l5.3-1.6l0,0
		c0,0-0.1-3-1.1-7.8s-2.8-25.7-2.8-32.4c0-3.3,0.2-6.7,0.8-9.9c1.5-8,5.6-15.9,10.3-22c4.6-6.1,10.1-10.3,13.3-11l-1.3-5.2
		C254.8,259,249.1,263.9,243.9,270.5L243.9,270.5z"/>
	<path class="st25" d="M366.1,270.5c-5.2-6.7-10.9-11.5-16.2-12.9l-1.3,5.2c3.2,0.7,8.6,4.9,13.3,11c4.7,6.1,8.8,14,10.3,22
		c0.6,3.1,0.8,7.2,0.8,11.6c0,17.8-4.1,41.4-4.1,41.5l5.2,0.9l0,0c0-0.1,4.1-23.8,4.1-42.4c0-4.6-0.3-9-0.9-12.6
		C375.6,285.7,371.2,277.2,366.1,270.5L366.1,270.5z"/>
	<path class="st26" d="M365.9,347.4c-10.6,0-19.1,8.6-19.1,19.1c0,10.6,8.6,19.1,19.1,19.1c10.6,0,19.1-8.6,19.1-19.1
		C385,355.9,376.5,347.4,365.9,347.4L365.9,347.4z"/>
	<path class="st22" d="M365.9,357.3c-5.1,0-9.2,4.1-9.2,9.2s4.1,9.2,9.2,9.2s9.2-4.1,9.2-9.2S371,357.3,365.9,357.3L365.9,357.3z"/>
	<path class="st23" d="M209.9,163.2c-9.2,2.7-7,16.4-7.1,21.5c0,5.1,7.7,23.3,12.8,25.2c13,5,13-13.9,13-13.9v-22
		C228.7,174,219.1,160.5,209.9,163.2L209.9,163.2z"/>
	<path class="st23" d="M396.5,163.4c-9.2-2.7-18.8,10.8-18.8,10.8v22.1c0,0,0,19.6,13,13.9c5.1-2.2,12.8-20.1,12.8-25.2
		C403.5,179.8,405.7,166.1,396.5,163.4L396.5,163.4z"/>
	<path class="st23" d="M326.4,66.5h-45.5c-33,0-59.8,34.9-59.9,78v59.4c0,43.1,44.9,73.3,59.8,78.1c15.7,5,31,4.3,45.5,0
		c15.7-4.6,59.8-34.9,59.9-78v-59.4C386.2,101.4,359.4,66.5,326.4,66.5L326.4,66.5z"/>
	<path class="st27" d="M221,178.2c6.1-4.9,21.4-88,22.1-92.3L217,94.2C217,94.2,215.6,182.5,221,178.2L221,178.2z"/>
	<path class="st27" d="M366.7,91.1c0,0,15.5,84.9,20.3,88.9s3.6-75.9,3.6-75.9L366.7,91.1L366.7,91.1z"/>
	<path class="st14" d="M266.7,172.5c-5.4,0-9.8,4.4-9.8,9.8c0,5.4,4.4,9.8,9.8,9.8s9.8-4.4,9.8-9.8S272.2,172.5,266.7,172.5
		L266.7,172.5z"/>
	<path class="st14" d="M341.4,172.5c-5.4,0-9.8,4.4-9.8,9.8c0,5.4,4.4,9.8,9.8,9.8s9.8-4.4,9.8-9.8
		C351.2,176.9,346.8,172.5,341.4,172.5L341.4,172.5z"/>
	<path class="st27" d="M366.3,156.3c-11.4-7.6-33.2-5-36.5-4.6c-2.9,0.3-8.9,2.9-8.6,5.8c0.3,2.9,10.5,5.1,13.4,4.8
		c11.1-1.1,21.3-2.2,37,1.5C374.4,164.3,368.7,157.9,366.3,156.3L366.3,156.3z"/>
	<path class="st27" d="M279.8,152.1c-3.3-0.3-25.1-3-36.5,4.6c-2.4,1.6-8.1,8.1-5.3,7.3c15.9-4,25.9-2.5,36.9-1.4
		c2.9,0.3,13.1-1.8,13.4-4.7C288.7,155,282.7,152.4,279.8,152.1L279.8,152.1z"/>
	<path class="st28" d="M273.9,234.7c4.8,9.9,11.8,26,33.1,26c22.3,0,36.1-34.1,36.1-34.1C315,239.9,299,241.5,273.9,234.7
		L273.9,234.7z"/>
	<path class="st16" d="M279.5,236.1c1.8,5.9,10,8.3,26.6,7.1c22-1.6,26.9-7,29.7-13.3C318.1,238,293.9,239.2,279.5,236.1
		L279.5,236.1z"/>
	<path class="st29" d="M306.7,250.7c0,0-4.2-3.3-9.1-3.3s-14.2,3.1-14.2,3.1c4.3,5.9,12.1,10.1,23,10.2
		c13.8,0.1,22.2-11.1,22.2-11.1s-8.6-2.1-14.6-2.2C310.2,247.3,306.7,250.7,306.7,250.7L306.7,250.7z"/>
	<path class="st30" d="M316.6,214.3c-8.5,7.1-20.6,5-24.2,0c0,0,3.6,12.8,12.1,12.4C313.1,226.2,325.2,207.1,316.6,214.3
		L316.6,214.3z"/>
	<path class="st27" d="M326.9,42.9c-37.8-8.7-58.8,5.9-58.8,5.9s-5.6-4.5-1.3-10.2c-10.5,1.4-13.4,12.2-16.7,20.5
		c-10.5-3.3-18.9,1.1-18.9,1.1s8.4,6.5-0.6,14c-25.4,21-13.4,45.5-13.4,45.5s9.4,23.3,13.8,18.6c16.7-17.6,29.8-26.9,32.7-40.3
		c0,0,17.7,23,41.6,28.4c19.7,4.5,44.1,8.3,54.4,6.2c-8.9-8.9-11.4-25.8-11.4-25.8s28.3,51.9,42,13.4
		C404.8,79.3,353.9,49.2,326.9,42.9L326.9,42.9z"/>
	<path class="st31" d="M290.8,172.7c0,0,0,21.8-10.5,27.1c-8.3,4.2-31.7,3.8-38.1-2.2c-6.4-6-9.1-27-9.1-27"/>
	<path class="st32" d="M231.3,172.2c0,0,39-8,61.5,0.8"/>
	<line class="st33" x1="234.9" y1="174.9" x2="214.4" y2="160.9"/>
	<path class="st31" d="M317.5,172.7c0,0,0,21.9,10.5,27.2c8.4,4.2,31.8,3.8,38.2-2.2c6.4-6,9.1-27.1,9.1-27.1"/>
	<path class="st34" d="M315.5,173c24.2-8.1,61.7-0.8,61.7-0.8"/>
	<line class="st33" x1="373.6" y1="174.9" x2="394.2" y2="160.9"/>
	<path class="st35" d="M292.7,176.7c0,0,7-3.6,11.9-3.6c5.9,0,10.9,2.9,10.9,2.9"/>
</g>
<path class="st36" d="M391.3,413.9h-39.6c-2.3,0-4.2-1.9-4.2-4.2v-16.6c0-2.3,1.9-4.2,4.2-4.2h39.6c2.3,0,4.2,1.9,4.2,4.2v16.6
	C395.5,412.1,393.6,413.9,391.3,413.9z"/>
<text transform="matrix(1 0 0 1 351.7057 399.5176)" class="st37 st38">Definitely</text>
<text transform="matrix(1 0 0 1 351.7057 411.4176)" class="st37 st38">a Doctor</text>
<path class="st16" d="M586.4,51.4H424.2c-7.7,0-14,7.7-14,17.1v89.4c0,9.4,6.3,17.1,14,17.1h10.6c-1.5,19.3-22.3,76.9-59.6,77.3
	c47.6,20.5,89.2-55.5,91.9-77.3h119.3c7.7,0,14-7.7,14-17.1V68.5C600.4,59.1,594.1,51.4,586.4,51.4z"/>
<text transform="matrix(1.1402 0 0 1 414.0391 77.189)" class="st37 st39">Eating oranges will</text>
<text transform="matrix(1.1402 0 0 1 414.0391 101.189)" class="st37 st39">turn you orange. </text>
<text transform="matrix(1.1402 0 0 1 414.0391 125.189)" class="st37 st39">Trust me, I’m a </text>
<text transform="matrix(1.1402 0 0 1 414.0391 149.189)" class="st37 st39">doctor.</text>
<text transform="matrix(1 0 0 1 0 607)" class="st40 st41 st42">https://www.freepik.com/free-vector/doctor-character-background_1130796.htm#page=1&amp;query=doctor&amp;position=0</text>
</svg>
