<?xml version="1.0" encoding="utf-8"?>
<!-- Generator: Adobe Illustrator 24.1.1, SVG Export Plug-In . SVG Version: 6.00 Build 0)  -->
<svg version="1.1" id="Layer_1" xmlns="http://www.w3.org/2000/svg" xmlns:xlink="http://www.w3.org/1999/xlink" x="0px" y="0px"
	 viewBox="0 0 337.5 337.5" style="enable-background:new 0 0 337.5 337.5;" xml:space="preserve">
<style type="text/css">
	.st0{fill:#16A2D3;}
	.st1{fill:#CD7828;enable-background:new    ;}
	.st2{fill:#D88A48;enable-background:new    ;}
	.st3{fill:#54260B;enable-background:new    ;}
	.st4{fill:#DD8B53;enable-background:new    ;}
	.st5{fill:#EAA36F;enable-background:new    ;}
	.st6{fill:#D58044;enable-background:new    ;}
	.st7{fill:#28140D;enable-background:new    ;}
	.st8{fill:#FFFFFF;}
	.st9{fill:#D6D6D6;}
	.st10{fill:#441A0C;enable-background:new    ;}
	.st11{fill:#33201B;enable-background:new    ;}
	.st12{fill:#44291D;enable-background:new    ;}
	.st13{fill:#503933;enable-background:new    ;}
	.st14{fill:#331D1B;enable-background:new    ;}
	.st15{fill:#391508;enable-background:new    ;}
	.st16{fill:#28140D;}
	.st17{fill:#E2955E;enable-background:new    ;}
	.st18{fill:#C47636;enable-background:new    ;}
	.st19{fill:#DD5F21;enable-background:new    ;}
	.st20{fill:#F19D74;enable-background:new    ;}
	.st21{fill:#B13E0D;enable-background:new    ;}
	.st22{fill:#54260B;}
	.st23{fill:#520500;enable-background:new    ;}
	.st24{fill:#C64709;enable-background:new    ;}
	.st25{fill:#B0662B;enable-background:new    ;}
	.st26{fill:#E99F6F;enable-background:new    ;}
	.st27{fill:#9F5523;enable-background:new    ;}
	.st28{fill:#ECA574;enable-background:new    ;}
	.st29{fill:#D57B3A;enable-background:new    ;}
	.st30{fill:#AA5C23;enable-background:new    ;}
	.st31{fill:#E9A87F;enable-background:new    ;}
	.st32{fill:#250000;enable-background:new    ;}
	.st33{fill:#C06A34;enable-background:new    ;}
	.st34{fill:#CB732F;enable-background:new    ;}
	.st35{fill:#F8CBA7;enable-background:new    ;}
	.st36{fill:#CD794A;enable-background:new    ;}
	.st37{fill:#D07A4C;enable-background:new    ;}
	.st38{fill:#8A4F25;enable-background:new    ;}
	.st39{fill:#8A4F25;}
	.st40{fill:#683D25;enable-background:new    ;}
	.st41{fill:#282321;enable-background:new    ;}
	.st42{fill:#E1DEDD;enable-background:new    ;}
	.st43{fill:#B38458;}
	.st44{fill:#1D0D08;enable-background:new    ;}
	.st45{fill:#EAEAEA;stroke:#000000;stroke-width:0.5;stroke-miterlimit:10;}
	.st46{fill:#E0E4E6;enable-background:new    ;}
	.st47{fill:#E1DEDD;}
	.st48{font-family:'ArialMT';}
	.st49{font-size:16px;}
</style>
<rect class="st0" width="337.5" height="337.5"/>
<polygon class="st1" points="98.5,336.1 128.5,209.9 230.6,196.9 186,304.6 110,336.1 98.5,337.5 "/>
<path class="st2" d="M146.8,278.8c2-4.5,2.6-16.5,2.8-21.4c0.2-4.9,1.9-6.4,4.5,3.3s1.4,16.9-3.6,19.3
	C146.5,281.9,144.5,283.9,146.8,278.8z"/>
<path class="st3" d="M142.4,220.7c-5.6-3.1-6.5-4.8-2.9,3.6c1.2,3.8,15.2,14,19.5,17.8c4.6,3.1,26.2-0.2,39.9-10.6
	c8.9-6.8,29.1-24.1,29.1-24.7c0-0.6,3.3-10.3,3.3-10.3l-1.6-7.8c0,0-2.8,8.6-7.5,13.5s-21.6,23.9-37.9,29.1
	c-10.7,1.2-20.7,4.2-30.6-3.2C143.8,220.7,142.4,220.7,142.4,220.7z"/>
<path class="st4" d="M160.7,232.9c0,0-25.6-15.7-28.5-17.4c-2.9-1.7-19.1-30.6-20.5-48.3s4.2-92,13.4-95.1s63.1-12.4,83.8,4.5
	s26.6,49.5,25.6,73.2c-0.9,23.7-3.9,43.8-10.5,51.1s-14.1,16.5-25.2,22.9c-11.1,6.5-12.1,7.1-16.2,8.1
	C178.5,232.9,162.9,234.2,160.7,232.9z"/>
<path class="st5" d="M171.3,139.2c1.1-1.9,3-6.6,3.8-10s6.9-13.1,19.1-12.7s22.4,1.5,13-2.8s-8.6-40-39.7-36.3s-36.5,20-39.5,35.5
	s-2.8,6.3,4.8,6.5c7.6,0.2,19.4,4.3,20.6,5.3c1.2,0.9,11.4,9.6,12.4,12.4S170.2,141.1,171.3,139.2z"/>
<path class="st6" d="M229.5,182.5c-1.9,4.1-3.1,6.7-4.2,8.2c-1.2,1.5-2.4,3.8-1.5-2c0.8-5.8,2.8-13.4,2.7-15.5
	c-0.1-2.1-4.8-11.5-3-17c1.8-5.5,4.9-7.2,2.8-16.4s-2.7-7.8-4.2-12.2c-1.5-4.5-4.9-9.8-13.5-13.3c-8.6-3.5-13.1-3.9-15.9-12.6
	s-2.8-12.6-9.9-18.2s-6.9-4.8-12.6-4.7c-5.7,0.1-16.2,3.3-20,4.7s-6,2-8.8,9.8c-2.8,7.8-5.9,21.5-11.1,22.5
	c-5.2,0.9-10.3,5.1-14.5,13.3c-4.2,8.2-4.6-2.4-0.1-16.1c0.5-8.1,0.7-34.3,12.8-39s57.3-11.6,70.8-5.7s33.6,25.4,33.8,42.8
	C233.3,128.6,229.5,182.5,229.5,182.5z"/>
<path class="st7" d="M89.9,269.1l41.3-28.5c0,0-1.9-27-3.7-33.9c-1.8-6.9-6-17.6-6.7-24.2c-1.2-4.4-4.4-7.8-4.6-11.6
	c-0.2-3.9-1.2-42.9-1.2-42.9s4.1-18,4.8-23.6c0.7-5.6,4.2-22.2,14.6-25.6c10.4-3.4,8.1-7.4,21.5-8.3c13.4-0.9,36.9-1.2,46.2,7.4
	s23.5,18.2,24.6,39.9s2.8,66.1,2.8,66.1v32.9l53.4,73.4l7.8-7.1c0,0,7.1,2.1,6.8-4.9c-0.2-7.1,2.8-2.9,3.8-11.9
	c0.9-9,3.5-18.9-4.5-25.7c-8-6.8-10.6-3.8-4.9-13.4c5.6-9.6,9.4-21.4,5.9-28.5c-3.5-7.1,0.2-26.1-8.7-36.7
	c-8.9-10.6-9.9-16.7-9.9-24s-6.6-21.9-11.3-36.2c-4.7-14.4-3.3-20.2-20.9-39.5s-35.3-38.8-53.9-40c-18.6-1.2-49.9,7.3-75.1,27.3
	S86.8,86.8,86.8,96.9c0,16-19.8,26.6-16.9,54.1c2.8,27.5,14.6,25.2,18.8,49.6c7.1,8.2,7.3,23.9,4.2,27.1c-3.1,3.1,5.9,14.4,1.8,16.9
	c-4.1,2.6-6.1,4.8-4.1,10.1S88,267.8,89.9,269.1z"/>
<path class="st8" d="M99.9,337.5l26.8-65.4l14.6-16.5v-7.5c0,0-9.1-32.1-9.1-32.6c0-0.5-4.6-6.9-4.6-6.9s-0.7,3-11.8,6
	c0.2,10.2,0.3,21,4.8,30.4c-6.8-4.8-2.5-12.5-13.8-26.8c-4.4,4.2-1.9,14.8-0.5,19.8c1.4,5,6,12.9-1.4,17.3c-4.1,2.6-9.5,0-10.2,7.1
	c-4.9,6.7-20.4,29.1-23.1,33.4s-24.6,41.9-24.6,41.9H99.9z"/>
<path class="st8" d="M317.8,337.5c0,0-18.4-48-24.5-54.1c-4-6.8-14.6-17.4-25.4-24.9c0.2-12.5-0.2-21.6-8.2-26.8
	c-8-5.2-13.9-9.6-16-23.1c-2.1-13.4-5.6-21.6-21.9-3.3s-22.1,37.4-31.1,45.9c-8.9,8.5-23.5,23.1-31.8,26.1
	c-8.2,3.1-59.1,60.2-59.1,60.2H317.8z"/>
<path class="st9" d="M124.4,322.7l42.1-39.5l-1.6-5.4c0,0,8.7-5.4,16-2.8c7.3,2.6,80.2,28.5,82.8,29.6c2.6,1.2,5.6,7.8,5.6,7.8
	s-5.4-0.9-12-3.3c-1.6-0.6-2.4-3.4-2.4-3.4c-3.9-1.3-18.3-8.8-27.9-9.5s-31.8-13.9-40-13.9s-12.9,4.7-12.9,4.7l-1.6-2.8L124.4,322.7
	z"/>
<path class="st9" d="M261.8,253.3c0,0-4.7,29.4,1.9,41.4l4.2-34.4L261.8,253.3z"/>
<path class="st10" d="M275.3,190.1c0,0-17.6-12-19.9-10.4c-2.3,1.6,1.8,37.4,19.9,46.8c8.8,4.6,8.8,3.4,5.8-1.8s2.1-6.9-4.6-13.9
	c-6.7-7.1-5.8-8.5-2.3-7.8S276.2,190.7,275.3,190.1z"/>
<path class="st11" d="M109.1,81.9c0,0-6.5,28.6-3,38.1s-2.1,24.2-5.1,28.2s1.6,16.8,4.1,9.9s3.4-12.7,4.1,9.9
	c0,5.1,12.4,12,5.1,33.2c-1.4,9,4.4,34.1,6.4,43.8s-11.7-19.4-12.9-23.8c-1.2-4.4-7.6-16.2-11.3-21.7c-3.7-5.5-14.1-30-12.4-42.4
	s5.1-25.2,7.1-30.5s0.4-9.4-3-13.8c-3.4-4.4-2.1-10.4,2.5-15.5C95.1,92.1,109.1,81.9,109.1,81.9z"/>
<path class="st12" d="M244.8,110.2c0,0-0.5,15.8-5.2,31.5c-4.7,15.8-0.2,13.9,2.6,7.3s3.3-3.5,4.2,0.7c0.9,4.2,3.1,5.2,3.3-0.5
	c0.2-5.6,1.9-3.9,7.1,4.6c5.2,8.6,8,11.1,10.6,13.5c2.6,2.4,6.6,4,4-1.2c-2.6-5.2-0.9-5.2,2.6-3.1s0-2.4,1.2-6.8
	c0.4-1.9,0.1-2.7,2.8-2.6c2.6,0.2,1.1-3.7-3.5-8.7c-4.6-5-9.7-11.4-13.8-11.9c-4.1-0.5-4.6-0.5-3.8-8.3c0.8-7.8-1.4-28.4-5.4-36.9
	c-4-8.5-6.2-13-4.1,0C250.6,112.5,244.9,101,244.8,110.2z"/>
<path class="st13" d="M142.4,56.1c-5.2,2.2,11.5-23.6,22.4-26.4c3.9-0.7,0.3,1.4,3.9,1.1s15.4-3.7,28.8,0.9
	c13.5,4.6,22.1,7.6,24.1,14s13.1,13.6,17.1,27.5s6,17.5,2.3,15.7c-3.7-1.8-1.8,10.8,0.2,18c1.9,7.2,1.8,7.9-2.6,2.3
	c-4.4-5.6-4.6-18.5-5-23.6c-0.5-5.1-16.9-29.3-58.9-33.9C156.4,49.8,152.3,51.9,142.4,56.1z"/>
<path class="st14" d="M161.3,41.5c-4.7,4.4-17.8,17.2-9.4,13.3s14.5-4.7,32.4-0.6s39.3,24.7,40.3,22.3s2.9-9.7-1.9-13.8
	c-4.8-4.1-9.9-6.6-10.9-10.2c-1.1-3.6-1.1-7.3-10.9-10.1c-9.7-2.8-14.6-0.6-15-3.1s-3.4-1.2-6.6,1.9c-3.3,3.1-5.1,1.2-6.4-0.2
	s-3.2-2.2-4.6-0.4C166.9,42.5,165.7,38.3,161.3,41.5z"/>
<path class="st15" d="M180.4,57.5c0,0,1.2,3.3-6.6,3.5s-2.1,1.2,11.3,3.1c13.4,1.9,32,9.9,39.5,34.8c7.5,24.9,7.3,40.7,8.7,29.6
	c1.4-11.1-3.1-44.2-1.4-46.8c1.6-2.6-12-15.3-18.6-20.5C206.7,56.1,186.5,48.6,180.4,57.5z"/>
<path class="st16" d="M128.5,212"/>
<path class="st17" d="M158.2,212c-7-0.6-20.5-3.9-9.8,1c3.9,1.8,2.7,2.6,9.8,2.9c7.1,0.3,9.3,3.7,11.8,6.2c2.5,2.5,6,2.4,8.6-2.2
	c2.6-4.6,8-8.6,11.8-11.3c3.8-2.7,4.8-5.4-1.6-2C182.2,210,173.8,213.4,158.2,212z"/>
<path class="st18" d="M214.1,196.6c3.8-6.9,9.7-20.8,11.5-23.8c1.8-3,2.3-3.3,0-8.4c-2.3-5-1.6-7.2-5,1.1c-3.3,8.3-3.7,7.8-6.1,8.8
	s-0.1,5.7-2.8,8.3c-5.6,4.4,0.5,2.4,0.4,5.6c-0.1,3.2-0.1,7.4,0.1,8.4C212.4,197.6,212.1,200.1,214.1,196.6z"/>
<path class="st19" d="M141.9,188.7c6.1,1.9,9.2,4.3,14.7,4.5s16.9,0.9,21.8,0.4c4.9-0.5,10.3-1.1,12-1.6c1.7-0.4,3.4,0.5-4.4,5.1
	c-7.8,4.6-10.2,6.6-19.2,6.5c-8.9-0.1-10.5-0.8-16.7-6.1S141.9,188.7,141.9,188.7z"/>
<path class="st20" d="M166,196.2c-3.4,0.6-8.3,4.1-1.1,3.3c7.2-0.8,9.9-4.1,5.5-3.7C166,196.2,166,196.2,166,196.2z"/>
<path class="st21" d="M147.7,193.6c-1.7-0.8-2.3-0.7,1.4,2.5c3.7,3.2,7.5,6.2,12.7,6.6c5.1,0.4,13.6,0.6,18-1.6
	c4.4-2.2,7.7-3.6,8.5-5.2c0.8-1.5-1-2.4-2.9-1.1c-1.9,1.3-9.4,6.2-17,5.8c-3.7-0.2-9.3-1-13.1-2.8
	C149.4,195.1,148.8,194.1,147.7,193.6z"/>
<path class="st22" d="M145.7,197c-2.3-2.3-5.5-7,0.7-1.9s6.6,6.7,11.9,8.5c5.3,1.8,12.4,1.3,12.4,1.3s3.2,0.1,0,0.5
	S156.6,207.9,145.7,197z"/>
<path class="st23" d="M141.3,187.5c2.9,0.1,6.7-0.9,11.3-2.4s7.9,6.2,13.9,5.6c6-0.5,13.3-2.3,17.2-2.1c3.9,0.2,7.4,1.4,10.9,1.1
	c3.5-0.3,0.5,1.4-4.2,2.2c-4.7,0.8-27.8,7.2-48.5-3.3C141.3,188.1,139,187.4,141.3,187.5z"/>
<path class="st24" d="M145.2,188.3c3.7-1.4,9.6-4.4,11.9-3.9c4.5,0.6,6.9,5.5,9.2,5.5c2.4-0.1,1.9-3.9,7.8-3.8s14.6,3.5,17.2,3.8
	c2.6,0.3-16.1,4-23.8,3.8C156.7,194.1,142.6,189.3,145.2,188.3z"/>
<path class="st25" d="M133.6,187.2c0.4-2.6,1.3-6.1,2.5-7.4c1.2-1.3-0.9-3.2-2.5,0.6C132,184.1,133,190.7,133.6,187.2z"/>
<path class="st26" d="M164.2,174.2c0.3,2.6-0.2,7.1,10.7,8.9c10.9,1.8,19.3,4.1,17.3-2.5c-2-6.6-2.1-9.2,2.8-10.4
	c4.9-1.2,18.8-4.1,8.7-12.5s-10.9-6.6-1.2-10.2c9.8-3.6,14.6-4.8,15.6-6.9s0.3-0.8-3.6,1.1c-3.9,1.9-18.1,3.3-24.1,0.1
	c-6.9-2.3-6.7-1.5-8.5-2.3s-3.2-2-2.2,1.4s-0.6,8.6,3.5,13.3c4.1,4.7,8.6,17.1,1.5,17.6s-2-0.3-4.2-2.4c-2.2-2-6-3.2-10.3,1.1
	C165.9,174.9,163.8,170.1,164.2,174.2z"/>
<path class="st27" d="M182.4,171.1c-1.4-0.2-3.6-0.3-0.5,1.5c3.1,1.8,6.8-0.8,6.9-3.4c0.1-2.6-1.4-8.3-1.4-4.2
	S187.2,172.1,182.4,171.1z"/>
<path class="st28" d="M132.1,185.9c-0.3,3.7-2.7-20.1,2.4-25.9c5.1-5.8,4.3-6.2-0.9-6.2c-5.2,0-8.9-0.6-11.2-5.4
	c-2.2-4.8-6-6.5,4.7-4.5s21.6-0.6,23.3-1.9c1.6-1.3-0.1,2.6,0,4.6c0.1,2,2.2,10.1,0.2,12.1s-4,5.8-3.8,9.7c0.2,3.9,0.9,4.2-1.1,3.5
	C142.8,168.8,132.9,176.8,132.1,185.9z"/>
<path class="st29" d="M128.5,160c-1.3,4.9-4.3,19.2-3.9,23.2s-1.3,4.8-3.8-2.9c-2.4-7.8-2.4-17.3-2-19.8c0.5-2.5,0.6-3.9,5.3-3.6
	C128.8,157.1,129.6,156.2,128.5,160z"/>
<path class="st30" d="M201.4,190.9c1.4-1.8,2.6-3.8,1.2-5.8c-1.4-2-0.7-2.9,1.2-0.7s1.5,4.7-0.7,6.5
	C201,192.7,200.8,191.6,201.4,190.9z"/>
<path class="st31" d="M166.9,185.7c-2.7,0-4.9-0.7-2.7,1.7s2.3,1.2,4.1,0C169.7,186.4,170,185.7,166.9,185.7z"/>
<path class="st32" d="M155.1,166.1c-1.4,0.1-3.8,0.7-4.2,2.7s1-0.3,2.1-0.6c1.1-0.4,3.7-0.6,5.2,0.3c1.5,0.9,2.9,4.1,7.6,4.1
	c4.7,0,4.6-3.3,7.3-4s4.1-1.5,6.4-0.5c2.3,1,2.4,0.2,0.7-0.6c-1.7-0.9-6-1.7-8.1,0c-2.2,1.7-2.6,3.6-6,3.6s-4.5-2.5-6.6-3.6
	C157.4,166.4,155.8,166,155.1,166.1z"/>
<path class="st33" d="M150.9,170.7c1.1,0.8,2.4,2.3-0.8,1.9c-3.2-0.4-3.2-2.3-3.1-5.8c0.1-3.5,2.5-7.8,5.8-8.9
	c3.3-1.1,4.5-0.6,4.6-4.7c0.1-4.1,1.1-14.8,0-17.2c-1.4-3.1-3.8-8.9-2.5-8.7s2.4-0.9,3.3-0.9s6.3,8.5,5.9,10.9
	c-0.3,2.4-1.4,1.9-1.5,8.3c-0.1,6.4-1.6,6.7-2.4,8.1c-0.8,1.5-0.5,6.5,0.5,8.5c1.1,2,0.4,2.5-1,1.1c-1.5-1.5-3.7-3.3-6.4-1.4
	c-2.8,1.9-5.6,3.5-5.6,5.3C147.8,169,150.4,170.3,150.9,170.7z"/>
<path class="st34" d="M176,149.5c-0.3-2.1-0.5-2.7-0.5-4.1c0-1.4-0.8-1.5-0.8,0c0,1.5-1,10.1,1.3,12.3c2.3,2.2,4.8,1.5,6.3,2.6
	c1.5,1.1,4.5,1.3,1.9-1s-5.1-2.5-6.4-4.6C176.5,152.6,176,149.5,176,149.5z"/>
<ellipse class="st35" cx="166.3" cy="158.5" rx="3.8" ry="5.5"/>
<path class="st36" d="M135.8,125.9c-5.5,0.6-12.9,0.8-14.4,7.6c-1.5,6.8-4,9.8,6.4,10.8c10.4,1,25.1-1.2,26.2-4.7
	c1.1-3.5,2.1-8.4-4.2-11.1C146.6,126.4,141,125.4,135.8,125.9z"/>
<path class="st37" d="M182.7,125.4c-2.8,1.8-4.2,7.9-3.5,11c0.7,3.2,9.5,6.8,16.8,7s16.8,0.3,20-2.4s5.7-3.7,4.2-9.3
	s-3.8-8.6-8.7-10.8S189.6,120.9,182.7,125.4z"/>
<path class="st38" d="M157.2,123.3c-1.2-1.5-3.4-3.9-11.1-5c-7.7-1.1-10.4-1.8-13.6-1.7c-3.2,0.1-6.6,0.8-10.5,4.8
	c-3.9,3.9-2.9,8.4-2.9,8.4s0.8-0.5,2.1-2.1c1-2,5.2-5.2,9.8-5.4c4.6-0.2,16.3,1.3,19.1,2.5c2.7,1.3,3.8,3,6,2.3
	C158.3,126.4,158.5,124.7,157.2,123.3z"/>
<path class="st39" d="M177,124.8c0.8-1.7,0.7-5.6,6.8-7.6c6.1-2,14-2.5,16.8-2.3c2.8,0.2,13.7,2.7,16.5,6.8c2.8,4.1,2.4,5.1,2.4,5.1
	s-2.3-2.3-3.2-3.1s-2.7-3.3-9.1-3.7c-6.4-0.4-13.8,1.8-17.4,2.6s-9.4,2.2-10.8,2.3C177.6,125.1,177,124.8,177,124.8z"/>
<path class="st40" d="M185.2,135.8c3.6-2.1,8.6-8.5,15.5-8.4s18.6,4.6,18.4,9.2c-0.2,4.6-7.2,7.4-16.5,7.1s-7.5-0.1-10.3-1.1
	C188.2,140.1,177,140.7,185.2,135.8z"/>
<path class="st41" d="M187.5,135.2c1.9-1.5,9.4-4.9,12.6-4.5c3.2,0.4,10.9,2.2,13.1,3.9c2.2,1.8,8.4,3.8,2.3,4.6
	c-6.1,0.8-27.8,0.4-29.1,0C185.1,138.8,185.8,136.6,187.5,135.2z"/>
<path class="st42" d="M186.9,137.6c0.8-0.8,7.4-4.8,8.4-4.1c1,0.6,4.6,4,9.7,4.9S186,138.5,186.9,137.6z"/>
<path class="st42" d="M203.7,135.8c-1.1,1.1-3.3,2.2-0.2,2.8s9.7,0.6,8-0.6c-1.8-1.2-6.1-4.9-7.5-5
	C202.5,132.9,203.7,135.8,203.7,135.8z"/>
<path class="st43" d="M195.1,136.3c1-0.4,1.7-0.9,3.6,0c1.9,0.9,2.2-0.6,2.6-1.1s3.7-4.1,2.6,1c-0.4,1.9-0.7,2.5-3.5,2.5
	C197.6,138.7,196.2,138.8,195.1,136.3z"/>
<path class="st44" d="M195.3,136.6c0,0-1.1-1.4-1.1-2.8c0.1-1.4,6.6-2.7,9.6-1c0.3,0.9,0.3,2.3-0.2,2.6c-0.5,0.3-2.8,1.2-2.5,0.2
	c0.2-0.6-0.3-1.7-0.9-2c-0.6-0.2-2.2-0.7-2.5,0.7c-0.3,1.3,0.8,2.1,0.1,2.1C197.3,136.4,195.3,136.6,195.3,136.6z"/>
<path class="st40" d="M150.5,136.9c-3.3-2.7-8.1-6.4-14.2-6.5c-6.1-0.1-8.4,0.3-13.2,5.7c-4.8,5.4-5.4,7.6,1,7.2
	c6.5-0.3,7.9,0.7,14,0c6.1-0.6,9.5-0.8,11.9-1.7C152.5,140.9,155,140.6,150.5,136.9z"/>
<path class="st41" d="M135.8,133.6c-3.2,0.2-11.1,5.4-12,6.7c-0.9,1.4,1.9,0.7,7.8,1.5c5.9,0.7,12.9-0.9,15.4-1
	c2.5-0.1,5.8-1.6,2.6-3C146.4,136.4,139.4,133.3,135.8,133.6z"/>
<circle class="st45" cx="199.4" cy="135" r="1.9"/>
<circle class="st45" cx="139" cy="136.9" r="1.9"/>
<path class="st46" d="M129.6,138.2c-1,0.7-1.7,0.6,0,1.6c1.7,0.9,4.5,1.5,6.2,1.4c1.6-0.1,2.6,0.2,0.5-1.5c-2.2-1.7-1.3-4.1-1.3-4.1
	S132.9,135.9,129.6,138.2z"/>
<path class="st47" d="M142.5,140.3c1.4,0.1,4.2-0.8,5.4-0.7c1.2,0,2.6-0.4,0.5-1.2c-2.1-0.8-3.3-1.8-4.2-1.8c-0.9,0-1.1,0.1-1.1,0.1
	L142.5,140.3z"/>
<path class="st43" d="M136.5,136.6h-2.8c0.3,1.7,1.3,4.3,3.7,4.5c2.4,0.2,5.1-0.4,5.7-1.4c0.6-1,0.4-3.1,0.4-3.1h-2.4
	C141.9,138.7,137.6,140.6,136.5,136.6z"/>
<path class="st44" d="M134.9,135.6c0.7-0.6,3.2-1.2,4.4-1.1s3.8,1.2,4.2,2.1h-2.5c-0.6-1.3-2.5-1.9-4.3,0h-2.9
	C133.7,136.6,133.7,135.6,134.9,135.6z"/>
<g>
	<path class="st8" d="M145.1,111.2H26c-6.6,0-12-5.4-12-12V36.1c0-6.6,5.4-12,12-12h119.1c6.6,0,12,5.4,12,12v63.1
		C157.1,105.8,151.7,111.2,145.1,111.2z"/>
	<path class="st8" d="M48.8,111.2c-0.3,8.9,5.8,64.9,19.2,64.5c-24.1,9.9-41.1-39.1-41.9-64.5"/>
	<text transform="matrix(1 0 0 1 26.7199 42.006)" class="st48 st49">I’m Oprah, and I </text>
	<text transform="matrix(1 0 0 1 26.7199 61.2059)" class="st48 st49">want you to know </text>
	<text transform="matrix(1 0 0 1 26.7199 80.4059)" class="st48 st49">you shouldn’t eat</text>
	<text transform="matrix(1 0 0 1 26.7199 99.6059)" class="st48 st49">after 5pm.</text>
</g>
</svg>
