<?xml version="1.0" encoding="utf-8"?>
<!-- Generator: Adobe Illustrator 24.1.1, SVG Export Plug-In . SVG Version: 6.00 Build 0)  -->
<svg version="1.1" id="Layer_1" xmlns="http://www.w3.org/2000/svg" xmlns:xlink="http://www.w3.org/1999/xlink" x="0px" y="0px"
	 viewBox="0 0 612 473.7" style="enable-background:new 0 0 612 473.7;" xml:space="preserve">
<style type="text/css">
	.st0{font-family:'MyriadPro-Regular';}
	.st1{font-size:14.0889px;}
	.st2{fill:none;stroke:#000000;stroke-miterlimit:10;}
</style>
<image style="overflow:visible;" width="2297" height="1755" xlink:href="donald-trump-vector-clipart.png"  transform="matrix(0.2659 0 0 0.2699 0.6394 0)">
</image>
<text transform="matrix(1 0 0 1 41.236 70.2788)"><tspan x="0" y="0" class="st0 st1">Global warming isn’t real.</tspan><tspan x="0" y="16.9" class="st0 st1">I’m the president, I would know</tspan></text>
<path class="st2" d="M215.2,101h7.3c6.6,0,12-5.4,12-12V56.5c0-6.6-5.4-12-12-12H44.2c-6.6,0-12,5.4-12,12V89c0,6.6,5.4,12,12,12
	h132.9c2.4,48.9,50.8,62.6,78.6,57.9C229.8,157.5,215.2,118.9,215.2,101z"/>
</svg>
