<?xml version="1.0" encoding="utf-8"?>
<!-- Generator: Adobe Illustrator 24.1.1, SVG Export Plug-In . SVG Version: 6.00 Build 0)  -->
<svg version="1.1" id="Layer_1" xmlns="http://www.w3.org/2000/svg" xmlns:xlink="http://www.w3.org/1999/xlink" x="0px" y="0px"
	 viewBox="0 0 612 610.6" style="enable-background:new 0 0 612 610.6;" xml:space="preserve">
<style type="text/css">
	.st0{clip-path:url(#SVGID_2_);}
	.st1{fill-rule:evenodd;clip-rule:evenodd;}
	.st2{fill-rule:evenodd;clip-rule:evenodd;fill:#EDA078;}
	.st3{fill-rule:evenodd;clip-rule:evenodd;fill:#E4C8AB;}
	.st4{fill-rule:evenodd;clip-rule:evenodd;fill:#1D202E;}
	.st5{fill-rule:evenodd;clip-rule:evenodd;fill:#C50242;}
	.st6{fill-rule:evenodd;clip-rule:evenodd;fill:#E3E3E3;}
	.st7{fill-rule:evenodd;clip-rule:evenodd;fill:#FFFFFF;}
	.st8{fill-rule:evenodd;clip-rule:evenodd;fill:#424B57;}
	.st9{fill-rule:evenodd;clip-rule:evenodd;fill:#BB6D65;}
	.st10{fill-rule:evenodd;clip-rule:evenodd;fill:#E6AAAC;}
	.st11{fill-rule:evenodd;clip-rule:evenodd;fill:#CE7F5F;}
	.st12{fill-rule:evenodd;clip-rule:evenodd;fill:#ED6C78;}
	.st13{opacity:0.8;fill-rule:evenodd;clip-rule:evenodd;fill:#F9EDE4;enable-background:new    ;}
	.st14{fill-rule:evenodd;clip-rule:evenodd;fill:#F7E7D7;}
	.st15{opacity:0.7;fill-rule:evenodd;clip-rule:evenodd;fill:#BA997B;enable-background:new    ;}
	.st16{opacity:0.7;fill-rule:evenodd;clip-rule:evenodd;fill:#F7E7D7;enable-background:new    ;}
	.st17{opacity:0.7;fill-rule:evenodd;clip-rule:evenodd;fill:#8C735C;enable-background:new    ;}
	.st18{fill-rule:evenodd;clip-rule:evenodd;fill:#EDC1AB;}
	.st19{opacity:0.6;fill-rule:evenodd;clip-rule:evenodd;fill:#EDC1AB;enable-background:new    ;}
	.st20{opacity:0.3;}
	.st21{opacity:0.1;}
	.st22{fill:#FFFFFF;stroke:#000000;stroke-miterlimit:10;}
	.st23{font-family:'ArialMT';}
	.st24{font-size:20px;}
	.st25{fill:none;}
	.st26{fill:#8E8E8E;}
	.st27{font-family:'MyriadPro-Regular';}
	.st28{font-size:5px;}
</style>
<g>
	<g>
		<g>
			<g>
				<g>
					<defs>
						<rect id="SVGID_1_" x="-0.5" y="-0.9" width="612" height="612"/>
					</defs>
					<clipPath id="SVGID_2_">
						<use xlink:href="#SVGID_1_"  style="overflow:visible;"/>
					</clipPath>
					<g class="st0">
						<path class="st1" d="M621.1,631.9c-212.8,0-425.2,0-637.8,0c-0.1-0.7-0.3-1.5-0.3-2.2c-0.1-1-0.1-2.1-0.1-3.1
							c0-61.8,0-123.6,0-185.4c0-2.6,0.1-5.3,0.2-7.9c0-1,0.4-1.7,1.4-2.2c14.4-7.8,28.7-15.9,44-21.7c10.3-3.9,20.6-7.8,31.2-10.8
							c9.7-2.8,19.8-4.6,29.7-6.6c6.8-1.4,13.6-2.7,20.3-5c7.3-2.5,14.6-4.9,22-7.2c10.5-3.3,21-6.6,31.5-9.8
							c7.9-2.4,15.9-4.6,23.8-7c2.5-0.8,4.9-1.8,7.4-2.9s4.8-2.6,6.7-4.6c4.3-4.4,8.8-8.7,13.2-13.1c0.3-0.3,0.5-0.5,0.8-0.8
							c3.9-4.1,3.9-4.1,3-9.7c-0.1-0.9-0.3-1.9-0.3-2.8c0-1.6-0.4-3-2.2-3.5c-0.2-0.1-0.5-0.3-0.7-0.5c-4-4.8-9.4-7.8-14.2-11.5
							c-7.2-5.5-11-13-12.9-21.6c-1.4-6.3-2.2-12.8-3.8-19.1c-1-4.2-2.9-8.1-4.4-12.2c-0.6-1.6-1.2-3.2-1.9-4.7
							c-1.4-3.3-1.9-6.7-1.3-10.2c0.2-1.2-0.1-2.1-1-3c-3.4-3.5-4.9-7.7-4.7-12.6c0.5-8.7-0.3-17.3-0.4-26c0-5.4,0.1-10.9,1.3-16.3
							c0.7-2.9,1.7-5.6,3.5-7.9c1.7-2.2,3.5-4.4,5.2-6.7c1.2-1.6,1.7-3.2,0.8-5.4c-2.1-5.4-1.7-10.9,1.8-15.6
							c3.4-4.4,4.7-9.3,4.8-14.7c0-4.1,0.5-8.3,0.6-12.4c0.1-5.7,2.8-10.5,4.8-15.6c3-7.6,8.3-13.3,14.5-18.4s13.1-8.9,20.2-12.3
							c13.1-6.3,25.7-13.5,38-21.2c5.1-3.2,10.9-4.8,16.6-6.1c13.3-3.1,26.8-4.1,40.4-3.2c2.4,0.2,4.9,0.1,7.3,0.2
							c8.3,0.5,16.5,1.1,24.8,1.6c3.9,0.2,7.7,0.5,11.6,0.6c9.5,0.3,18.7,1.9,27.8,4.6c2.2,0.7,4.5,1.5,6.5,2.8
							c5.3,3.3,10.5,6.6,15.6,10.2c2.2,1.5,4.2,3.5,6.2,5.4c6.5,6.2,12.8,12.4,18.7,19.3c3.5,4.1,7.6,7.6,11.2,11.6
							c4.1,4.5,8.5,8.9,12,13.9c6.7,9.4,11.4,19.8,10.9,31.7c-0.2,4-1.1,8-1.8,12c-0.5,3.1-1.4,6.1-1.8,9.1c-0.6,3.8-0.4,7.5,1,11.1
							c2.7,7.3,3.8,14.9,4.5,22.6c0.4,3.9,1.2,7.8,1.4,11.8c0.2,3.9,0.3,8-0.5,11.8c-1.3,6.9-0.6,13.7-0.7,20.6
							c-0.1,6.5-0.4,13-0.7,19.5c-0.1,1.1-0.3,2.3-0.8,3.3c-2.1,3.9-4.1,7.9-6.8,11.4c-2.8,3.8-4.7,7.7-4.9,12.3
							c-0.1,1.8-0.8,3.2-2.1,4.5c-5.1,5.2-5,5.3-6.6,12.5c-0.7,3.2-1.7,6.4-2.8,9.5c-1.3,3.5-4,5.9-7.1,7.8c-1,0.6-2.3,0.7-3.5,1
							c-2.7,17.3-8.5,34-12.7,51.3c3.1,1.3,6.2,2.6,9.3,3.9c6.4,2.6,12.9,5.3,19.3,7.9c14,5.7,27.2,12.8,41,18.9
							c9.2,4.1,18.6,7.7,27.8,11.7c5.4,2.4,10.9,4.7,16.1,7.6c10.6,6,20.9,12.4,31.3,18.6c4.1,2.4,8.3,4.8,12.5,7.2
							c10.7,6.1,21.4,12.3,32.1,18.4c1.7,1,2.4,2.3,2.4,4.1c0,3.8,0.1,7.5,0.1,11.3c0,17.8-0.1,35.6,0.1,53.4
							c0,3.9-0.2,7.8-0.1,11.7c0.1,4,0,8.1,0,12.2c0,4,0,7.9,0,11.9c0,4.1,0,8.1,0,12.2c0,4,0,7.9,0,11.9s0,8.1,0,12.2
							c0,4,0,7.9,0,11.9C621.2,629.9,621.2,630.7,621.1,631.9z M444.1,294.1c0.3,0,0.6,0,0.9,0c-0.9,11.7-1.8,23.5-2.7,35.4
							c4.6-1.3,7.4-4.1,9.1-8.1c1.2-2.7,1.9-5.7,2.7-8.6c1.3-4.9,2.4-9.9,3.9-14.7c2.3-7.6,3.2-15.2,1.5-23.1
							c-0.5-2.2-0.5-4.5-0.7-6.7c-0.1-0.5-0.1-1-0.2-1.5c-0.2,0-0.4-0.1-0.6-0.1c-1.1,2.8-2.4,5.5-3.1,8.3
							c-1.4,5.2-4.3,9.6-7.5,13.8c-0.7,1-1.8,1.7-2.7,2.5c-1.1,1-2.2,2-3.3,3c-0.4,0.3-0.8,0.6-1.3,0.9c-1-6.1-0.8-11.9-0.5-17.7
							c0.4-6.7,0.8-13.3,0.9-20c0-4.5-0.8-9-1-13.5c-0.3-6.8-0.5-13.5-0.7-20.3c-0.1-3.8,0-7.5,0-11.3c-0.1-4.7-1.2-8.9-5-12.2
							c-0.7,0.2-1.4,0.4-2.1,0.6c-11.1,4.3-22.7,5.2-34.4,4.8c-2.7-0.1-5.4-0.8-8.1-1.3c-2-0.3-4.1-1-6.1-1
							c-6.1,0-12.2,0.2-18.3,0.5c-3.6,0.2-7.1,1-10.7,1.2c-7.8,0.6-15.6,1-23.4,1.4c-12.2,0.7-24.1-1.2-35.6-5
							c-7.2-2.4-14.3-5.2-21.4-8c-9.1-3.5-18.4-4.6-28-2.2c-1.3,0.3-2.2,0.8-2.7,2.1c-0.7,2-1.7,3.8-2.2,5.8
							c-1.4,5.4-2.5,10.8-3.7,16.2c-1.1,4.8-3.1,9.1-6.3,12.8c-4.2,4.7-6,10.4-6.8,16.5c-1,6.7-1.6,13.5-2.2,20.2
							c-0.4,4.5-0.6,9,0.2,13.5c0.5,2.9,0.4,6,0.3,9c-0.1,2.7-1.3,5.1-2.9,7.2c-1.1,1.5-2.3,1.2-2.8-0.5c-0.2-0.8-0.3-1.7-0.4-2.5
							c-1-8-2.8-15.8-5.1-23.4c-2.4-7.8-7.2-13.6-15-16.6c-5.7-2.2-11.5-4.3-17.2-6.4c-0.1,0-0.3,0.1-0.6,0.2
							c-0.5,2.8-0.1,5.6,0.9,8.3c1.9,4.8,4,9.6,5.6,14.5c2.6,7.7,3.6,15.8,5.1,23.7c1.4,7.4,4.8,13.9,10.6,18.9
							c2.1,1.8,4.3,3.3,6.6,4.9c2.9,2.1,5.8,4.1,7.9,7.2c0.4,0.7,1,1.4,2,1.2c-0.5-6.2-1.1-12.2-1.6-18.3c0.7,0.5,0.9,1.2,0.9,1.8
							c1,7.2,2.1,14.3,3,21.5c1.1,9.6,3.1,19,6.3,28.1c3.7,10.5,7.7,20.8,11.6,31.2c1,2.6,2.1,5.3,3.6,7.6c3.8,6,7.8,12,11.9,17.8
							c4.5,6.4,10.1,11.8,16.6,16.4c8.5,6,16.4,12.6,23.2,20.6c1.7,2.1,3.8,3.9,5.8,5.7c1,0.9,2.1,1.6,3.3,2.1
							c1.7,0.8,3.5,1.5,5.3,2c4.6,1.5,9.2,2.9,14.1,2.5c3.8-0.3,7.7-0.8,11.5-1.5c5.8-1,11.6-2.2,17.6-2.4
							c6.1-0.2,11.6-2.2,16.6-5.7c4.9-3.4,9.9-6.8,15-10.1c3.8-2.4,7.8-4.5,11.6-7c6.1-4.1,11.7-8.9,16.8-14.2
							c1.9-1.9,3.7-4.2,4.7-6.6c3.9-9.2,7.9-18.3,11.1-27.8c3.5-10.6,6.1-21.5,9.3-32.3c3.3-11,5.5-22.3,6.5-33.7
							c0.6-7.6,1.3-15.2,1.9-22.8C443.6,297.5,443.9,295.8,444.1,294.1z M458.3,302c0.1,0.1,0.3,0.2,0.4,0.3
							c0.8-0.9,1.5-1.9,2.3-2.8c1.3-1.4,2-2.9,2-4.8c-0.1-4.7,2-8.4,4.7-12.1c2.5-3.5,4.6-7.3,6.7-11.1c0.6-1,0.8-2.3,0.9-3.5
							c0.3-6.1,0.6-12.2,0.7-18.3c0.1-5.9-0.2-11.9,0.3-17.8c0.5-6.5,1.8-12.9,0-19.3c-0.1-0.5-0.1-1.1-0.1-1.7
							c-0.7-9-1.3-18.1-4.5-26.6c-1.9-5-2.1-10.1-1.1-15.3c0.5-2.4,1-4.8,1.6-7.2c2.1-7.8,2.6-15.6,0.5-23.4
							c-2-7.5-5.6-14.4-10.4-20.5c-3.6-4.5-7.5-8.7-11.4-12.9c-2.8-3-6-5.8-8.7-8.8c-5.2-5.8-10.3-11.7-16-17.1
							c-4.5-4.2-8.6-8.7-13.9-11.9c-4.1-2.5-8.1-5.2-12.2-7.7c-1.7-1-3.5-1.8-5.4-2.3c-3.8-1.1-7.6-2.2-11.5-2.8
							c-5-0.8-10.1-1.3-15.1-1.7c-4.3-0.4-8.6-0.5-13-0.7c-8-0.5-16-1.1-23.9-1.6c-2.7-0.2-5.5-0.1-8.2-0.3
							c-13.5-0.9-26.9,0.1-40.1,3.2c-5.5,1.3-11,2.8-15.8,5.9c-12.4,7.8-25,15-38.2,21.3c-7,3.3-13.7,7.1-19.7,12
							c-6.4,5.1-11.3,11.1-14.6,18.7c-2.7,6.3-4.6,12.7-4.4,19.6c0.1,4-0.5,8.1-0.9,12.1c-0.2,2.4-1,4.6-2.3,6.6
							c-0.7,1.1-1.5,2.2-2.2,3.3c-2,3.1-3.1,6.4-3.1,10.1c0,2.7,1.3,4.9,2.3,7.2c5.7,13,16,20.2,29.6,22.8c9.5,1.8,18.9,0.1,28.2-2
							c4.3-1,8.7-1.9,13-2.3c7.3-0.6,14.2,1.5,20.9,4c7,2.7,14,5.5,21.2,7.8c7.3,2.4,14.9,4.1,22.7,4.4c10.7,0.5,21.5-0.1,32.2-1
							c5.2-0.5,10.5-1.4,15.7-1.8c8.4-0.5,16.8-1.1,24.9,1.6c11.1,1.3,22,0.8,32.8-2.1c4.5-1.2,9-2.9,13.4-4.3
							c1.9-0.6,3.9-1.4,6.4-0.8c-3.4,1.1-6.4,2.2-9.5,3.2c1.3,2,2.6,3.5,3.5,5.2c1.4,2.7,1.5,5.8,1.5,8.8c0.1,5.4-0.1,10.7,0,16.1
							c0.1,5.3,0.2,10.6,0.8,15.8c1.1,8.7,1.1,17.4,0.3,26.2c-0.5,5.9-0.4,11.8-0.5,17.8c0,0.7,0.2,1.4,0.4,2.5
							c1.8-1.4,3.5-2.4,4.6-3.8c3.2-3.9,6-8.2,7.7-13.1c1.1-3.1,2.7-6,4.1-9c0.3-0.7,1-1.2,1.8-2.2c0.2,1.1,0.4,1.7,0.5,2.3
							c0.3,2.6,0.2,5.3,0.8,7.8c1.9,8.6,1.1,17-1.7,25.3C458.7,300.2,458.5,301.1,458.3,302z M123.7,464.4c0.7-1.1,1.1-1.6,1.4-2.2
							c4.6-7.1,9.5-14.1,13.8-21.4c6.6-11.3,12.6-22.9,19.3-34.2c6.9-11.8,13.3-23.9,19.3-36.1c0.5-0.9,0.8-1.9,1.4-3.2
							c-0.9,0.2-1.3,0.2-1.6,0.3c-9,2.6-18.1,5.3-27.1,7.9c-5.1,1.5-10.3,3.1-15.4,4.8c-7.8,2.5-15.6,4.9-23.3,7.6
							c-7.1,2.5-14.4,4.2-21.9,5.5c-11.8,2-23.5,4.2-34.8,8.2c-5,1.7-10,3.3-15,5.1c-5.8,2.1-11.7,4.3-17.4,6.6
							c-12.6,5.2-24.3,11.9-36.2,18.5c-1.2,0.6-1.6,1.4-1.5,2.7c0.1,4.1,0.1,8.3,0.1,12.4c0,39.4,0,78.7,0,118.1
							c0,20.6,0,41.3,0,61.9c0,1.1,0.1,2.2,0.1,3.2c58.1,0,115.7,0,173.7,0c-0.3-1.2-0.5-2.1-0.8-2.9c-3.6-10.5-7.1-21-10.9-31.5
							c-9.3-25.9-18.3-51.8-25.8-78.3c-0.4-1.5-0.8-3-1.1-4.5c7-2.7,13.7-5.3,20.3-8c6.6-2.7,13-5.7,19.8-8.7
							c-6.3-5.5-12.3-10.7-18.1-15.9C135.8,475,129.5,470,123.7,464.4z M619.3,630.2c0.1-1.2,0.1-2.1,0.1-3.1
							c0-48.8,0-97.6,0.1-146.4c0-1.5-0.5-2.4-1.8-3.1c-10.6-6-21.1-12.1-31.6-18.1c-4.1-2.3-8.2-4.6-12.2-7
							c-10.4-6.2-20.8-12.6-31.3-18.6c-5.1-2.9-10.6-5.3-16-7.7c-9.7-4.2-19.5-8.1-29.1-12.3c-13.5-6-26.5-13-40.2-18.6
							c-4.3-1.7-8.4-3.7-12.7-5.5c-0.8-0.4-1.7-0.5-3-0.9c0.4,1.3,0.6,2.2,1,3c4.5,10.5,8.8,21,13.5,31.4
							c10.2,22.8,20.6,45.4,30.9,68.2c1,2.1,1.8,4.3,2.7,6.8c-7.4,6.4-15.4,12.2-21.9,20c12,9.6,24.8,17.8,36.9,27
							c-1.7,4.3-3.5,8.3-5,12.5c-4.4,12.8-8.7,25.7-13,38.5c-3.4,10.5-6.7,21-10,31.5c-0.2,0.8-0.3,1.6-0.5,2.5
							C524.1,630.2,571.5,630.2,619.3,630.2z M160,630.2c32,0,63.8,0,95.8,0c-0.5-6.2-0.8-12.2-1.7-18.1c-1.4-9.1-3.2-18.2-4.9-27.2
							c-1.4-8-2.7-16-4.2-23.9c-3-15.3-6.3-30.6-9.2-45.9c-3.9-21-7.7-42-11.4-63.1c-3-17.1-5.7-34.2-8.4-51.3
							c-1.1-6.7-2-13.4-2.5-20.2c-0.9-11.6,0.3-23,5.3-33.7c1.2-2.5,1-4.5,0.2-6.8c-5.7,5.6-11.4,11.1-17,16.7
							c-2.1,2.1-4.5,3.7-7.2,4.8c-4.1,1.7-8.3,3.1-12.4,4.6c-1.2,0.4-2,1-2.6,2.2c-4.8,10.9-10.2,21.6-16.2,32
							c-6.3,11-12.6,22.1-18.8,33.2c-5.7,10.2-11.5,20.3-18.7,29.6c-0.2,0.3-0.3,0.7-0.5,1c12.4,10.8,24.7,21.6,37.4,32.7
							c-14,5.9-27.6,11.6-41.4,17.4c0.1,0.5,0.3,1.1,0.4,1.6c5.7,19.3,11.7,38.6,18.4,57.6c5.8,16.4,11.4,32.9,17.1,49.4
							C158.5,625.2,159.2,627.7,160,630.2z M429,383.4c-0.3,0.7-0.5,1.1-0.6,1.5c-2.5,6.7-4.8,13.5-7.4,20.1
							c-2.3,5.7-4.3,11.5-7.9,16.5c-0.5,0.7-0.7,1.6-0.9,2.4c-1.9,8.7-4,17.4-5.8,26.2c-4.9,24.4-9.7,48.7-14.5,73.1
							c-1.4,7.3-2.8,14.6-3.9,22c-0.9,5.9-1.5,12-2.3,17.9c-1.4,10.2-3,20.3-4.3,30.5c-1.2,9.9-2.1,19.8-3.2,29.8
							c-0.2,2.2-0.6,4.5-0.9,6.9c32.3,0,64.6,0,96.9,0c9-28.4,17.9-56.7,28.3-84.7c-12.3-9.2-25.5-17.3-37.3-27.5
							c6.9-7.7,14.4-14.3,22.7-20.3c-0.6-1.4-1-2.5-1.5-3.6c-7.4-16.3-14.7-32.6-22.1-48.9c-8.5-18.6-17.7-36.8-24.3-56.2
							c-0.2-0.5-0.7-1.1-1.2-1.4C435.7,386.2,432.5,384.9,429,383.4z M257.3,630.2c33.7,0,66.9,0,100.2,0c-0.2-1.1-0.3-2-0.5-2.9
							c-3-14.2-6.1-28.3-9.1-42.5c-2.1-10.3-5.4-20.2-9.6-29.8c-2.6-5.9-5.1-11.8-7.5-17.7c-2.4-5.8-3.2-11.8-0.8-17.9
							c0.1-0.2,0-0.5,0-1.1c-4.9,1.7-9.6,3-14.7,3s-10.1-0.5-14.9-2.3c-0.9,2.5-1.7,4.6-2.4,6.7c-8.3,23.3-16.8,46.6-26.5,69.3
							c-3.7,8.7-7.4,17.3-11.1,26C259.2,623.9,258.4,626.9,257.3,630.2z M310.2,463.4c-2.5-0.8-4.5-1.4-6.5-2.2
							c-2.1-0.9-4.2-1.8-5.9-3.1c-2.5-2-4.9-4.2-6.9-6.6c-5.3-6.3-11.6-11.6-18.1-16.6c-3.8-2.9-7.7-5.7-11.4-8.8
							c-6.4-5.5-11.1-12.6-16-19.3c-5.2-7.1-9-15-12-23.3c-4.2-11.5-9-22.7-12.1-34.6c-0.1-0.3-0.3-0.5-0.7-1.4
							c-2,4.6-3.7,8.6-4.4,13c-1.9,11.7-1.2,23.3,0.6,34.9c1.5,9.6,3.3,19.1,4.9,28.7c2.3,13.6,4.4,27.1,6.8,40.7
							c2.3,13.1,4.6,26.1,7,39.2c1,5.7,2.2,11.4,3.3,17.5c1-0.7,1.8-1.1,2.5-1.7c7.5-6.1,15.1-12.2,22.4-18.5
							c7.9-6.7,15.5-13.8,23.5-20.4c6.6-5.4,13.7-10.3,20.6-15.4C308.4,464.8,309.1,464.3,310.2,463.4z M375.6,630.3
							c0.7-5.1,1.6-10,2.2-14.9c0.8-6.6,1.2-13.3,2-19.9c1.3-10.3,2.8-20.5,4.2-30.8c1.3-9.7,2.5-19.4,4-29.1
							c0.4-2.6-0.1-4.5-1.5-6.6c-8.3-12.8-17.4-25-27.2-36.8c-0.5-0.6-1.1-1.2-2-2c-2,2.2-3.9,4.2-5.8,6.1
							c-5.1,5.3-10.2,10.6-15.2,15.9c-1.3,1.4-2.9,2.6-3.7,4.2c-2.1,4.2-3.3,8.7-2.3,13.4c0.5,2.5,1.2,4.9,2.2,7.3
							c2.4,5.8,5,11.6,7.5,17.4c3.2,7.3,6.2,14.8,7.9,22.6c3.4,15.2,6.6,30.5,9.9,45.8c0.5,2.4,1,4.9,1.4,7.4
							C364.7,630.3,369.9,630.3,375.6,630.3z M257,623.8c0.2,0,0.4,0,0.6,0c1.9-4.7,3.6-9.5,5.7-14.1c9.6-21.8,18.5-43.9,26.6-66.3
							c2.8-7.7,5.6-15.4,8.5-23.1c0.6-1.5,1.1-3.1,0.3-4.6c-2-3.9-4.1-7.8-6.3-11.7c-1.8-3.1-4.6-5.2-7.3-7.4
							c-2.1-1.7-3.7-3.7-4.5-6.3c-0.1-0.3-0.3-0.6-0.5-0.9c-0.3,0.1-0.6,0-0.7,0.1c-0.8,0.7-1.6,1.3-2.4,2
							c-11.6,10.5-23,21.1-35.9,30.1c-1.6,1.1-2.1,2.2-1.6,4.2c2.4,11,4.7,22.1,6.8,33.2c1.7,8.8,3.1,17.6,4.6,26.4
							c2,11.1,4.4,22.2,5.4,33.4C256.4,620.5,256.8,622.1,257,623.8z M241.5,192.7c-0.6,0.1-1,0.2-1.5,0.3
							c-7.7,1.5-15.4,2.9-23.3,1.9c-14.4-1.8-26-7.8-32.8-21.3c-0.3-0.5-0.6-1-1-1.7c-2.3,3.2-4.4,6.1-6.5,9.1
							c-1.5,2.1-2.6,4.4-2.9,7c-0.5,4.9-1.2,9.7-1.2,14.6c0,9.7,0.6,19.4,0.4,29.1c-0.1,5.9,3.1,10.4,8.7,12.7
							c2.3,1,4.8,1.7,7.1,2.6c3.5,1.3,7.1,2.5,10.5,4.2c6.2,3,10.7,7.8,12.6,14.5c1.8,6.3,3.3,12.7,4.8,19.2c0.7,2.8,1,5.7,1.4,8.5
							c0.3-0.1,0.6-0.1,0.7-0.2c0.3-0.4,0.5-0.8,0.7-1.2c1.7-3.3,1.9-6.9,1.4-10.5c-0.5-3.9-1.2-7.8-0.8-11.8
							c0.7-7.5,1.1-15,1.9-22.5c0.8-7.7,2.9-14.9,8.3-20.9c2.6-2.9,4.2-6.5,5.1-10.3c0.9-3.6,1.5-7.2,2.5-10.7
							C238.8,201.2,240.2,197.1,241.5,192.7z M334.5,463.2c21.1,20.1,38.5,42.5,54.7,67c7.1-35.6,14.1-70.5,21.1-105.7
							c-0.9,0.8-1.5,1.5-2.2,2.1c-3.6,3-7.1,6.2-10.9,9c-4,2.9-8.4,5.4-12.6,8.1c-4.6,2.9-9.5,5.5-13.7,8.9
							c-6.8,5.5-14.3,8.5-23,8.6C343.4,461.3,339.1,462.1,334.5,463.2z M356.6,488.8c-2.9-3.4-5.5-6.6-8.3-9.5
							c-4.5-4.7-9.1-9.3-13.6-13.9c-1.4-1.4-2.9-1.9-5.1-1.5c-5.4,0.9-10.8,1.6-16.3,0.3c-0.8-0.2-1.9,0.2-2.5,0.7
							c-6.7,4.9-13.3,9.9-19.9,14.9c-3.4,2.6-6.7,5.4-10,8.1c2.2,5.1,2.2,5.1,6,8.3c1.7,1.5,3.5,2.9,5,4.6c3.6,4.3,5.9,9.4,8.2,14.4
							c0.8,1.6,1.6,2.5,3.2,3c6.5,1.8,13,1.8,19.6,0.5c4.5-0.9,8.2-3.1,11.3-6.8c4.7-5.5,9.9-10.6,14.9-15.8
							C351.6,493.7,354,491.4,356.6,488.8z"/>
						<path class="st2" d="M444.1,294.1c-0.2,1.7-0.5,3.5-0.7,5.2c-0.7,7.6-1.3,15.2-1.9,22.8c-1,11.5-3.3,22.7-6.5,33.7
							c-3.2,10.7-5.7,21.7-9.3,32.3c-3.2,9.4-7.2,18.6-11.1,27.8c-1,2.4-2.8,4.7-4.7,6.6c-5.1,5.3-10.7,10.1-16.8,14.2
							c-3.7,2.5-7.8,4.6-11.6,7c-5.1,3.3-10.1,6.6-15,10.1c-5,3.5-10.5,5.5-16.6,5.7c-6,0.2-11.8,1.4-17.6,2.4
							c-3.8,0.6-7.6,1.2-11.5,1.5c-4.9,0.4-9.5-1-14.1-2.5c-1.8-0.6-3.6-1.3-5.3-2c-1.2-0.5-2.3-1.2-3.3-2.1c-2-1.8-4.1-3.7-5.8-5.7
							c-6.7-8-14.7-14.7-23.2-20.6c-6.5-4.6-12.1-9.9-16.6-16.4c-4.1-5.8-8.1-11.8-11.9-17.8c-1.5-2.4-2.6-5-3.6-7.6
							c-4-10.4-7.9-20.8-11.6-31.2c-3.2-9.1-5.1-18.5-6.3-28.1c-0.9-7.2-2-14.4-3-21.5c-0.1-0.6-0.3-1.3-0.9-1.8
							c0.5,6.1,1.1,12.1,1.6,18.3c-1,0.2-1.5-0.5-2-1.2c-2.1-3-5-5.1-7.9-7.2c-2.2-1.6-4.5-3.1-6.6-4.9c-5.8-5-9.2-11.5-10.6-18.9
							c-1.5-8-2.5-16-5.1-23.7c-1.6-4.9-3.8-9.6-5.6-14.5c-1-2.7-1.4-5.4-0.9-8.3c0.2-0.1,0.4-0.2,0.6-0.2
							c5.7,2.1,11.5,4.2,17.2,6.4c7.8,3,12.6,8.8,15,16.6c2.3,7.7,4.1,15.5,5.1,23.4c0.1,0.8,0.2,1.7,0.4,2.5c0.5,1.7,1.7,2,2.8,0.5
							c1.6-2.1,2.8-4.6,2.9-7.2c0.2-3,0.3-6.1-0.3-9c-0.8-4.5-0.6-9-0.2-13.5c0.6-6.8,1.3-13.5,2.2-20.2c0.9-6,2.7-11.7,6.8-16.5
							c3.2-3.7,5.3-8,6.3-12.8c1.2-5.4,2.4-10.8,3.7-16.2c0.5-2,1.5-3.9,2.2-5.8c0.5-1.3,1.4-1.8,2.7-2.1c9.6-2.5,18.8-1.4,28,2.2
							c7.1,2.8,14.2,5.6,21.4,8c11.5,3.8,23.4,5.7,35.6,5c7.8-0.4,15.6-0.9,23.4-1.4c3.6-0.3,7.1-1,10.7-1.2
							c6.1-0.3,12.2-0.5,18.3-0.5c2,0,4.1,0.7,6.1,1c2.7,0.4,5.4,1.2,8.1,1.3c11.7,0.4,23.3-0.5,34.4-4.8c0.7-0.3,1.4-0.4,2.1-0.6
							c3.8,3.3,5,7.5,5,12.2c0,3.8-0.1,7.5,0,11.3c0.2,6.8,0.4,13.6,0.7,20.3c0.2,4.5,1,9,1,13.5c0,6.7-0.5,13.3-0.9,20
							c-0.3,5.8-0.5,11.7,0.5,17.7c0.5-0.4,0.9-0.6,1.3-0.9c1.1-1,2.2-2,3.3-3c0.9-0.8,1.9-1.6,2.7-2.5c3.2-4.2,6.1-8.6,7.5-13.8
							c0.8-2.9,2.1-5.6,3.1-8.3c0.2,0,0.4,0.1,0.6,0.1c0.1,0.5,0.1,1,0.2,1.5c0.2,2.2,0.3,4.5,0.7,6.7c1.6,7.9,0.8,15.5-1.5,23.1
							c-1.5,4.9-2.5,9.8-3.9,14.7c-0.8,2.9-1.5,5.9-2.7,8.6c-1.7,3.9-4.6,6.8-9.1,8.1c0.9-12,1.8-23.7,2.7-35.4
							C444.7,294.1,444.4,294.1,444.1,294.1z M254,240.1c0.4,1.3,0.8,2.2-0.2,3.1c-1.6,1.5-2.6,3.5-4.3,4.9
							c-1.7,1.5-1.3,3.9-3.2,5.1c0.6,0.5,1,0.8,1.4,1.1c-0.8,0.7-1.4,1.4-2.1,2c0.5,0.4,0.9,0.7,1.2,1c-0.2,0.6-0.4,1.3-0.7,2.1
							c4,0.6,7.5,0.1,11-1.2c0.3-0.1,0.6-0.4,1-0.6c1.2-0.7,2.3-1.6,3.6-2.1c6.8-2.8,13.9-3,21.1-2c5.5,0.8,11,1.3,16.6,0.3
							c1.2-0.2,2.8-0.9,3.6-0.4c2.3,1.6,5.1-0.4,7.2,1.5c4.1-0.3,8.3-0.3,12.3-1c3.1-0.5,4.2-2.9,3.4-6.2c-0.9,0.1-1.8,0.2-2.7,0.3
							c-0.1-0.8-0.1-1.3-0.2-2.1c-3.3,0.3-5.7-1.2-8.1-2.9c-2-1.4-4.1-2.6-6.2-3.8c-0.5-0.3-1.1-0.7-1.6-0.5c-2.1,0.7-3.8-0.5-5.7-1
							c-1.8-0.4-3.6-0.9-5.5-1.2c-1.5-0.2-3.1-0.1-4.7-0.2c-4.3-0.2-8.6-0.6-12.9-0.6c-4.7,0-9.4,0.4-14.1,0.7
							c-1.4,0.1-3.3-0.7-3.8,1.7c-0.1,0.3-1,0.4-1.5,0.5C257.4,239.1,255.9,239.5,254,240.1z M423.2,260.3c1.8-1.9,3.4-3.6,5-5.3
							c0.2-0.2,0.5-0.8,0.4-1c-0.9-1.2,0.1-2,0.6-3c0.6-1.5,1.2-2.9,1.8-4.4c0.2-0.5,0.1-1.1,0-1.6c-1-2.7-2.6-5.1-4.3-7.5
							c-1.7-2.4-4-3.7-7-3.5c-4.7,0.3-9.6-0.3-14.2,1.2c-0.5,0.2-1.1,0.2-1.5,0.2c-0.8-0.6,0.3-2.1-1.1-1.9
							c-1.6,0.2-0.8-1.5-1.9-1.9c-3.5,1.4-7.1,2.8-10.8,4.2c-1.4-2.6-3.2-0.4-4.8-0.5c-0.3-0.4-0.6-0.8-0.8-1.1
							c-2-0.1-3.7,2.3-5.6,0.1c-0.1-0.1-0.7,0.1-1,0.3c-2.6,1.3-5.1,2.8-7.8,4c-3.6,1.5-6.1,4.9-8.7,8.4c1.3,0.5,2.9,0.7,3.4,1.5
							c0.7,1.3,1.7,1.8,2.9,2.3c1.3,0.6,2.5,1.4,3.8,1.9c1.7,0.6,3.4,1.4,5.1,1.5c6.6,0.2,13.2,0.9,19.7-0.8
							c0.5-0.1,0.9-0.1,1.4-0.2c3.4-0.3,6.8-0.5,10.2-1c2.7-0.4,5.3-1.4,7.9-2c0.5-0.1,0.9-0.1,1.8-0.2c-1.2,1.6-2.2,2.8-3.4,4.4
							c1.7-0.2,2.9-0.4,4.1-0.5c0.1,0.8,0.3,1.4,0.4,2.1c0.8,0,1.5,0,2.1,0C421.4,257.3,422.1,258.5,423.2,260.3z M263.4,264.6
							c1.5-1.3,3-2.5,4.7-3.8c2.9,4.1,6.9,6.2,11.4,7c7.5,1.4,15,0.9,22.2-1.7c1.9-0.7,3.3-0.6,4.9,0.6c2.1,1.6,4.5,2.6,7.2,2.6
							c-0.6-0.7-1.4-1.2-2.2-1.6c-1.2-0.7-2.6-1.1-3.7-2c-3.4-2.5-7.2-4.4-11.2-5.8c-6.8-2.3-13.6-3.5-20.8-2.9
							C270.5,257.5,266,259.4,263.4,264.6z M368.2,267.5c1.5-0.5,3-1.3,4.6-1.5c1.7-0.2,3.6,0.1,5.3,0.5c11.1,2.6,21.8,1.6,32.4-3.2
							c1.7,0.8,2.9,2.9,5.6,2.8c-7.1-6.4-15.1-9.6-24.5-9.6C381.9,256.4,374.6,261,368.2,267.5z M385.8,380.1c-3.8-3-8.1-3-12.4-2.4
							c-3,0.4-6,0.6-9,0.8c-2.1,0.2-4.2,0.1-6.2,0.5c-4.6,1.1-9.3,1.4-14,1.5c-5.2,0.1-10.4,0-15.5,0.6c-4.9,0.6-9.8,0.4-14.6-0.3
							c-5.2-0.8-10.3-0.4-15.4,0.7c-0.3,0.1-0.6,0.4-1.5,0.8c1.3,0,1.9,0.1,2.6,0c5.1-0.7,10.1-0.7,15.2,0.2c3.5,0.6,7.2,1,10.7,0.5
							c6.6-0.9,13.1-0.7,19.7-0.9c3.9-0.1,7.9-0.7,11.8-1.1c2.6-0.3,5.2-0.6,7.8-0.9c2.8-0.3,5.6-0.3,8.4-0.7
							c3.3-0.5,6.5-0.6,9.8,0.4C384,379.9,384.9,379.9,385.8,380.1z M379.7,376.5c0.1-0.2,0.1-0.5,0.2-0.7c-1.7-0.5-3.4-1-5-1.4
							c-4.1-1.1-8.2-2.1-12.2-3.3c-2.5-0.8-5-0.9-7.5-0.3c-1.3,0.3-2.5,0.8-3.8,1.2c-4.5,1.6-9,2.8-13.8,1.9
							c-2.1-0.4-4.3-0.6-6.4-0.9c-2.9-0.4-5.8-0.4-8.7,0.5c-2.8,0.9-5.6,1.6-8.4,2.5c-3.7,1.2-7.4,2.4-11.2,3.7
							c0.5,0.2,1,0.2,1.4,0.1c5.8-1.6,11.6-3,17.4-4.7c3.5-1,7.1-1.2,10.6-0.5c6.9,1.4,13.6,1.2,20.2-1.5c1.7-0.7,3.6-0.8,5.5-1.1
							c3-0.4,5.7,1.1,8.4,2C370.8,375.3,375.3,375.6,379.7,376.5z M309.4,383.8c-0.1,0.2-0.2,0.4-0.3,0.5c0.3,0.2,0.6,0.5,0.9,0.6
							c4.5,2,8.9,4,13.5,5.8c2,0.8,4.1,1.3,6.2,1.6c6.1,0.8,12.2,0.6,18.3-0.5c2.5-0.4,5.1-0.7,7.4-1.7c5.3-2.4,10.5-5.1,15.7-7.7
							c0.1-0.1,0.2-0.3,0.3-0.7c-2.9,0.7-5.3,2.2-7.9,3.2c-4.1,1.7-8.1,3.7-12.3,4.7c-6.3,1.6-12.9,1.8-19.4,1.3
							c-2.6-0.2-5.2-0.8-7.7-1.6c-2.7-0.9-5.2-2.2-7.8-3.2C314,385.3,311.7,384.6,309.4,383.8z M264.8,276.7
							c5.7,10.8,27.2,17.7,38,8.2C288.1,291.8,276,287.2,264.8,276.7z M330.5,344.7c0,0.1-0.1,0.3-0.1,0.4c0.7,0.2,1.3,0.6,2,0.7
							c5,0.2,9.9,0.6,14.9,0.5c2.9-0.1,6.1-0.1,8.4-2.6c0.3-0.3,0.8-0.4,1.3-0.4c2-0.3,3-1.6,3.9-3.8c-0.9,0-1.6-0.2-2,0
							c-0.8,0.4-1.7,0.9-2.3,1.5c-2.5,2.7-5.7,3.5-9.1,3.7c-1.5,0.1-3,0-4.5,0C338.7,344.7,334.6,344.7,330.5,344.7z M189.3,256.5
							c-1.5,1.5-1.8,3.3-1.5,5c0.7,3.6,1.2,7.3,2.4,10.7c1.8,5.1,3.3,10.1,4.4,15.4c0.3,1.3,0.7,2.6,1,4c0.2,0,0.4-0.1,0.6-0.1
							c-0.1-1.1-0.1-2.1-0.2-3.2c-0.8-5.5-2.4-10.8-4.2-16C190.1,267.2,188.1,262.2,189.3,256.5z M315.2,340.1
							c-4.1-5.7-2.8-11.6-1.2-17.7c-0.9,0.6-1.7,1.2-2.3,2c-1.2,1.7-2.4,3.4-3.6,5.1c-1.9,2.6-3.7,5.3-5.6,7.9
							c0.2,0.1,0.3,0.2,0.5,0.4c2.6-3.1,5.1-6.2,7.7-9.3C311.2,333.1,310.8,337.5,315.2,340.1z M366.5,318.8
							c-0.2,0.1-0.3,0.2-0.5,0.3c0.3,0.7,0.6,1.3,0.8,2c1,2.7,2,5.4,3,8.2c0.8,2.1,0.2,3.9-1.1,5.5c-1.6,1.9-3.4,3.8-5.1,5.7
							c-0.4,0.4-0.7,0.9-1.4,1.7c3.5-1.6,7.7-5.4,8.8-8.1c0.5-1.1,1-2.5,0.7-3.5c-0.8-3-1.9-5.9-3.1-8.7
							C368.2,320.7,367.2,319.8,366.5,318.8z M323.3,269.6c0-0.1,0.1-0.2,0.1-0.3c-0.2-0.2-0.4-0.4-0.6-0.5
							c-6.9-3.4-13.8-6.8-20.8-10.2c-1.9-1-4-1.4-6.6-1c2.5,1,4.5,1.8,6.5,2.7c4.8,2.3,9.4,4.7,14.2,6.9
							C318.5,268.1,320.9,268.8,323.3,269.6z M205.9,264.9c0,0.5,0.1,1.1,0.1,1.6c0.1,2.6,0.6,5.3,0.3,7.8
							c-0.9,6.1,0.9,11.7,3.4,17.1c-0.1-1.2-0.2-2.4-0.6-3.5c-1.2-3.7-1.8-7.5-1.5-11.4c0.2-2.2,0.4-4.3,0.3-6.5
							C207.8,268.3,207.6,266.4,205.9,264.9z M447.2,311.3c0.2,0,0.3,0,0.5,0c0.2-0.4,0.4-0.8,0.6-1.3c2-5.4,4.1-10.7,6.1-16.1
							c0.5-1.2,0.8-2.5,1.1-3.8c0.3-1.3,0.4-2.7-0.2-4c-0.9,2.8-1.4,5.8-2.6,8.3c-2.5,4.9-3.7,10.1-5.2,15.2
							C447.3,310.2,447.3,310.8,447.2,311.3z M354.9,399.7c-3.2-3-19.2-1.9-24.7,1.7C338.3,399.5,346.5,399,354.9,399.7z
							 M204.4,285.2c0.1-0.1,0.3-0.2,0.4-0.3c-1.2-1.6-2.2-3.4-3.5-4.9c-1.7-2-2.8-4.3-2.9-6.8c-0.1-2.8,0.2-5.6,0.3-8.4
							c0-0.6,0-1.3,0-2.5c-2.8,4.8-2.5,13.2,0.4,16.9C200.8,281.3,202.6,283.2,204.4,285.2z M391.4,362.8c0.2-0.1,0.3-0.3,0.5-0.4
							c-3-6.7-10.8-16.9-15.7-20c1.3,2.5,3.4,4.5,5.2,6.7c1.8,2.2,3.7,4.3,5.3,6.5C388.4,357.9,389.8,360.4,391.4,362.8z M336.2,230
							c0.1,2.2,0.4,4.4,0.3,6.6c-0.1,2.3-0.4,4.7-0.8,7c-0.4,2.1-1.7,3.9-1.9,6.6C338,245.8,339.2,234.5,336.2,230z M354.9,228.4
							c-1.5,9.7-1,15.7,1.5,18C354.3,240.5,355.3,234.4,354.9,228.4z M318.2,341c1.7,0.7,3.2,1.5,4.8,1.8c1.6,0.3,3,2,5,0.9
							C325.7,340.7,321.9,339.6,318.2,341z M292.4,223.4c1.7,1.9,3.3,3.9,5,5.8c0.6,0.6,1.1,1.3,1.8,1.8c1.9,1.4,4.8,1.8,6.7,1
							c-0.4-0.1-0.8-0.3-1.1-0.4c-3.5-0.4-6.1-2-8-5.1C295.8,224.9,294.2,223.8,292.4,223.4z M361.3,267.7c4.6-1,8.2-3.5,11-7.2
							C368.8,263,365.6,266.2,361.3,267.7z M265.7,265.1c-2.5,1.3-5,2.5-7.5,3.8C261,269.3,264.3,267.9,265.7,265.1z M410.9,256.7
							c-0.2,0.2-0.4,0.4-0.6,0.6c1.4,1.2,1.8,3.2,3.6,4.1c0.2-0.1,0.3-0.3,0.5-0.4C413.3,259.6,412.1,258.1,410.9,256.7z
							 M261.6,272.8c-0.1-0.2-0.2-0.3-0.3-0.5c-0.9,0.5-1.9,0.9-2.8,1.4c0.9,0.2,1.6,0,2.2-0.3C261.1,273.2,261.4,273,261.6,272.8z"
							/>
						<path class="st3" d="M458.3,302c0.2-0.9,0.5-1.8,0.8-2.7c2.9-8.3,3.7-16.7,1.7-25.3c-0.6-2.5-0.5-5.2-0.8-7.8
							c-0.1-0.6-0.2-1.2-0.5-2.3c-0.8,1-1.5,1.5-1.8,2.2c-1.4,3-3,5.9-4.1,9c-1.7,4.9-4.4,9.1-7.7,13.1c-1.2,1.4-2.8,2.4-4.6,3.8
							c-0.2-1.1-0.4-1.8-0.4-2.5c0.1-5.9,0-11.9,0.5-17.8c0.8-8.8,0.9-17.4-0.3-26.2c-0.7-5.2-0.7-10.5-0.8-15.8
							c-0.1-5.4,0-10.7,0-16.1c0-3-0.1-6.1-1.5-8.8c-0.9-1.7-2.2-3.3-3.5-5.2c3.1-1.1,6.2-2.1,9.5-3.2c-2.5-0.6-4.4,0.2-6.4,0.8
							c-4.5,1.4-8.9,3.1-13.4,4.3c-10.8,2.9-21.7,3.4-32.8,2.1c-8.2-2.7-16.6-2.1-24.9-1.6c-5.3,0.3-10.5,1.3-15.7,1.8
							c-10.7,1-21.4,1.5-32.2,1c-7.7-0.3-15.3-2-22.7-4.4c-7.1-2.4-14.1-5.2-21.2-7.8c-6.7-2.6-13.6-4.7-20.9-4
							c-4.4,0.4-8.7,1.3-13,2.3c-9.3,2.1-18.7,3.8-28.2,2c-13.6-2.6-23.9-9.8-29.6-22.8c-1-2.3-2.3-4.5-2.3-7.2c0-3.7,1-7,3.1-10.1
							c0.7-1.1,1.4-2.2,2.2-3.3c1.4-2,2.1-4.2,2.3-6.6c0.3-4,1-8.1,0.9-12.1c-0.2-7,1.6-13.3,4.4-19.6c3.3-7.6,8.2-13.6,14.6-18.7
							c6.1-4.9,12.8-8.6,19.7-12c13.2-6.3,25.8-13.5,38.2-21.3c4.8-3,10.3-4.6,15.8-5.9c13.2-3.1,26.6-4.1,40.1-3.2
							c2.7,0.2,5.5,0.1,8.2,0.3c8,0.5,16,1.1,23.9,1.6c4.3,0.3,8.7,0.4,13,0.7c5.1,0.4,10.1,0.9,15.1,1.7c3.9,0.6,7.7,1.7,11.5,2.8
							c1.9,0.5,3.8,1.3,5.4,2.3c4.1,2.5,8.1,5.1,12.2,7.7c5.3,3.2,9.4,7.7,13.9,11.9c5.7,5.4,10.8,11.3,16,17.1
							c2.8,3.1,5.9,5.8,8.7,8.8c3.9,4.2,7.9,8.4,11.4,12.9c4.8,6.1,8.4,13,10.4,20.5c2.1,7.8,1.6,15.7-0.5,23.4
							c-0.6,2.4-1.2,4.8-1.6,7.2c-1,5.2-0.7,10.2,1.1,15.3c3.2,8.6,3.9,17.6,4.5,26.6c0,0.6-0.1,1.2,0.1,1.7
							c1.8,6.5,0.5,12.9,0,19.3c-0.5,5.9-0.1,11.8-0.3,17.8c-0.1,6.1-0.4,12.2-0.7,18.3c-0.1,1.2-0.3,2.5-0.9,3.5
							c-2.1,3.8-4.1,7.6-6.7,11.1c-2.7,3.7-4.8,7.4-4.7,12.1c0.1,1.9-0.7,3.5-2,4.8c-0.8,0.9-1.5,1.8-2.3,2.8
							C458.5,302.2,458.4,302.1,458.3,302z"/>
						<path class="st4" d="M123.7,464.4c5.9,5.6,12.1,10.6,18,15.9s11.9,10.4,18.1,15.9c-6.7,3-13.2,5.9-19.8,8.7
							c-6.6,2.7-13.3,5.3-20.3,8c0.4,1.5,0.7,3,1.1,4.5c7.5,26.5,16.5,52.4,25.8,78.3c3.8,10.4,7.3,21,10.9,31.5
							c0.3,0.9,0.5,1.8,0.8,2.9c-57.9,0-115.6,0-173.7,0c0-1.1-0.1-2.2-0.1-3.2c0-20.6,0-41.3,0-61.9c0-39.4,0-78.7,0-118.1
							c0-4.1,0-8.3-0.1-12.4c0-1.3,0.4-2,1.5-2.7c11.9-6.5,23.6-13.3,36.2-18.5c5.7-2.4,11.6-4.5,17.4-6.6c5-1.8,10-3.3,15-5.1
							c11.3-4,23.1-6.1,34.8-8.2c7.4-1.3,14.7-3,21.9-5.5c7.7-2.7,15.5-5.1,23.3-7.6c5.1-1.6,10.2-3.2,15.4-4.8
							c9-2.7,18-5.3,27.1-7.9c0.3-0.1,0.7-0.1,1.6-0.3c-0.5,1.3-0.9,2.3-1.4,3.2c-6,12.3-12.3,24.4-19.3,36.1
							c-6.7,11.3-12.7,22.9-19.3,34.2c-4.3,7.3-9.1,14.3-13.8,21.4C124.8,462.8,124.4,463.4,123.7,464.4z"/>
						<path class="st4" d="M619.3,630.2c-47.8,0-95.2,0-142.9,0c0.2-0.9,0.2-1.8,0.5-2.5c3.3-10.5,6.5-21,10-31.5
							c4.2-12.9,8.5-25.7,13-38.5c1.4-4.2,3.2-8.2,5-12.5c-12.1-9.2-24.9-17.4-36.9-27c6.5-7.8,14.5-13.6,21.9-20
							c-1-2.4-1.8-4.6-2.7-6.8c-10.3-22.7-20.7-45.4-30.9-68.2c-4.7-10.4-9-20.9-13.5-31.4c-0.4-0.8-0.6-1.7-1-3
							c1.3,0.4,2.1,0.6,3,0.9c4.2,1.8,8.4,3.8,12.7,5.5c13.7,5.6,26.7,12.6,40.2,18.6c9.6,4.3,19.4,8.1,29.1,12.3
							c5.4,2.4,10.9,4.7,16,7.7c10.5,6,20.9,12.4,31.3,18.6c4,2.4,8.2,4.7,12.2,7c10.5,6,21.1,12.1,31.6,18.1
							c1.3,0.7,1.8,1.6,1.8,3.1c-0.1,48.8-0.1,97.6-0.1,146.4C619.4,628.1,619.3,629,619.3,630.2z"/>
						<path class="st4" d="M160,630.2c-0.8-2.5-1.6-5-2.4-7.3c-5.7-16.5-11.3-32.9-17.1-49.4c-6.7-19-12.7-38.2-18.4-57.6
							c-0.2-0.5-0.3-1.1-0.4-1.6c13.7-5.8,27.4-11.5,41.4-17.4c-12.7-11.1-25-21.9-37.4-32.7c0.2-0.4,0.3-0.8,0.5-1
							c7.2-9.2,13-19.4,18.7-29.6c6.2-11.1,12.5-22.2,18.8-33.2c6-10.4,11.3-21.1,16.2-32c0.6-1.3,1.4-1.8,2.6-2.2
							c4.2-1.4,8.3-2.9,12.4-4.6c2.7-1.1,5.1-2.7,7.2-4.8c5.6-5.6,11.2-11.1,17-16.7c0.8,2.3,1,4.3-0.2,6.8c-5,10.7-6.2,22-5.3,33.7
							c0.5,6.7,1.4,13.5,2.5,20.2c2.7,17.1,5.4,34.2,8.4,51.3c3.7,21.1,7.5,42.1,11.4,63.1c2.9,15.3,6.2,30.6,9.2,45.9
							c1.5,7.9,2.8,15.9,4.2,23.9c1.6,9.1,3.5,18.1,4.9,27.2c0.9,5.9,1.1,11.9,1.7,18.1C223.8,630.2,192.1,630.2,160,630.2z"/>
						<path class="st4" d="M429,383.4c3.5,1.5,6.7,2.9,9.8,4.3c0.5,0.2,1,0.8,1.2,1.4c6.6,19.4,15.9,37.6,24.3,56.2
							c7.4,16.3,14.8,32.6,22.1,48.9c0.5,1.1,0.9,2.2,1.5,3.6c-8.3,6-15.8,12.6-22.7,20.3c11.8,10.1,25,18.3,37.3,27.5
							c-10.4,27.9-19.3,56.3-28.3,84.7c-32.3,0-64.6,0-96.9,0c0.3-2.4,0.7-4.6,0.9-6.9c1.1-9.9,2-19.9,3.2-29.8
							c1.3-10.2,2.9-20.3,4.3-30.5c0.8-6,1.4-12,2.3-17.9c1.2-7.3,2.5-14.7,3.9-22c4.8-24.4,9.6-48.8,14.5-73.1
							c1.8-8.8,3.8-17.5,5.8-26.2c0.2-0.8,0.4-1.7,0.9-2.4c3.6-5,5.7-10.8,7.9-16.5c2.6-6.6,5-13.4,7.4-20.1
							C428.6,384.4,428.8,384,429,383.4z"/>
						<path class="st5" d="M257.3,630.2c1.1-3.2,1.9-6.2,3-9.1c3.6-8.7,7.3-17.3,11.1-26c9.8-22.8,18.3-46,26.5-69.3
							c0.8-2.1,1.5-4.2,2.4-6.7c4.8,1.8,9.8,2.4,14.9,2.3c5.1,0,9.8-1.3,14.7-3c0,0.6,0.1,0.9,0,1.1c-2.4,6.1-1.6,12,0.8,17.9
							s4.9,11.8,7.5,17.7c4.2,9.6,7.5,19.5,9.6,29.8c3,14.2,6.1,28.3,9.1,42.5c0.2,0.9,0.3,1.8,0.5,2.9
							C324.2,630.2,291,630.2,257.3,630.2z"/>
						<path class="st6" d="M310.2,463.4c-1.1,0.9-1.8,1.5-2.5,2c-6.9,5.1-13.9,10-20.6,15.4c-8,6.6-15.6,13.7-23.5,20.4
							c-7.4,6.3-14.9,12.4-22.4,18.5c-0.7,0.6-1.5,1-2.5,1.7c-1.2-6.1-2.3-11.8-3.3-17.5c-2.4-13.1-4.7-26.1-7-39.2
							c-2.3-13.5-4.5-27.1-6.8-40.7c-1.6-9.6-3.3-19.1-4.9-28.7c-1.9-11.6-2.5-23.2-0.6-34.9c0.7-4.4,2.4-8.4,4.4-13
							c0.4,0.8,0.6,1.1,0.7,1.4c3.1,11.9,8,23.1,12.1,34.6c3,8.3,6.8,16.2,12,23.3c4.9,6.7,9.5,13.8,16,19.3
							c3.7,3.1,7.6,5.9,11.4,8.8c6.5,5,12.7,10.3,18.1,16.6c2.1,2.4,4.4,4.6,6.9,6.6c1.7,1.4,3.9,2.2,5.9,3.1
							C305.7,462,307.7,462.5,310.2,463.4z"/>
						<path class="st7" d="M375.6,630.3c-5.7,0-10.9,0-16.3,0c-0.5-2.5-0.9-4.9-1.4-7.4c-3.3-15.3-6.4-30.6-9.9-45.8
							c-1.7-7.8-4.8-15.3-7.9-22.6c-2.5-5.8-5.1-11.5-7.5-17.4c-1-2.3-1.6-4.8-2.2-7.3c-1-4.7,0.2-9.2,2.3-13.4
							c0.8-1.6,2.4-2.9,3.7-4.2c5.1-5.3,10.2-10.6,15.2-15.9c1.9-2,3.7-4,5.8-6.1c0.9,0.9,1.5,1.4,2,2c9.7,11.8,18.8,24,27.2,36.8
							c1.4,2.1,1.9,4,1.5,6.6c-1.5,9.7-2.7,19.4-4,29.1c-1.4,10.3-3,20.5-4.2,30.8c-0.8,6.6-1.2,13.3-2,19.9
							C377.2,620.2,376.4,625.1,375.6,630.3z"/>
						<path class="st7" d="M257,623.8c-0.2-1.6-0.6-3.3-0.7-4.9c-1-11.3-3.4-22.3-5.4-33.4c-1.6-8.8-2.9-17.6-4.6-26.4
							c-2.1-11.1-4.5-22.1-6.8-33.2c-0.4-2,0-3.1,1.6-4.2c12.8-9,24.3-19.7,35.9-30.1c0.8-0.7,1.6-1.3,2.4-2
							c0.1-0.1,0.3-0.1,0.7-0.1c0.1,0.2,0.4,0.5,0.5,0.9c0.8,2.6,2.4,4.6,4.5,6.3c2.7,2.2,5.6,4.3,7.3,7.4c2.2,3.8,4.2,7.8,6.3,11.7
							c0.8,1.6,0.2,3.1-0.3,4.6c-2.8,7.7-5.7,15.3-8.5,23.1c-8.1,22.4-17,44.5-26.6,66.3c-2,4.6-3.8,9.4-5.7,14.1
							C257.4,623.7,257.2,623.8,257,623.8z"/>
						<path class="st3" d="M241.5,192.7c-1.3,4.4-2.7,8.4-3.8,12.6c-1,3.5-1.6,7.2-2.5,10.7c-0.9,3.8-2.5,7.4-5.1,10.3
							c-5.3,6-7.5,13.2-8.3,20.9c-0.8,7.5-1.2,15-1.9,22.5c-0.4,4,0.4,7.9,0.8,11.8c0.4,3.6,0.2,7.1-1.4,10.5
							c-0.2,0.4-0.5,0.8-0.7,1.2c-0.1,0.1-0.3,0.1-0.7,0.2c-0.5-2.8-0.8-5.7-1.4-8.5c-1.5-6.4-3-12.8-4.8-19.2
							c-1.9-6.7-6.4-11.5-12.6-14.5c-3.4-1.7-7-2.8-10.5-4.2c-2.4-0.9-4.8-1.7-7.1-2.6c-5.7-2.3-8.9-6.8-8.7-12.7
							c0.2-9.7-0.5-19.4-0.4-29.1c0-4.9,0.7-9.7,1.2-14.6c0.3-2.6,1.4-4.9,2.9-7c2.1-3,4.3-5.9,6.5-9.1c0.4,0.6,0.7,1.1,1,1.7
							c6.8,13.5,18.5,19.5,32.8,21.3c7.9,1,15.6-0.5,23.3-1.9C240.5,192.9,240.9,192.8,241.5,192.7z"/>
						<path class="st6" d="M334.5,463.2c4.6-1.1,8.9-2,13.3-2c8.7-0.1,16.2-3.2,23-8.6c4.2-3.4,9.1-6,13.7-8.9
							c4.2-2.7,8.5-5.2,12.6-8.1c3.8-2.8,7.3-6,10.9-9c0.7-0.6,1.4-1.3,2.2-2.1c-7,35.2-14,70.1-21.1,105.7
							C373,505.7,355.5,483.3,334.5,463.2z"/>
						<path class="st5" d="M356.6,488.8c-2.6,2.6-5,4.9-7.3,7.3c-5,5.2-10.3,10.3-14.9,15.8c-3.1,3.7-6.8,5.9-11.3,6.8
							c-6.5,1.3-13.1,1.4-19.6-0.5c-1.6-0.5-2.5-1.4-3.2-3c-2.3-5-4.6-10.1-8.2-14.4c-1.4-1.7-3.2-3.1-5-4.6c-3.8-3.2-3.8-3.2-6-8.3
							c3.3-2.7,6.6-5.5,10-8.1c6.6-5,13.2-10,19.9-14.9c0.7-0.5,1.8-0.9,2.5-0.7c5.5,1.3,10.9,0.6,16.3-0.3c2.1-0.4,3.7,0.1,5.1,1.5
							c4.6,4.6,9.2,9.2,13.6,13.9C351.1,482.3,353.6,485.4,356.6,488.8z"/>
						<path class="st1" d="M254,240.1c1.9-0.5,3.4-1,4.9-1.4c0.5-0.2,1.5-0.2,1.5-0.5c0.5-2.4,2.4-1.6,3.8-1.7
							c4.7-0.3,9.4-0.7,14.1-0.7c4.3,0,8.6,0.4,12.9,0.6c1.6,0.1,3.2,0,4.7,0.2c1.9,0.3,3.7,0.7,5.5,1.2c1.9,0.4,3.6,1.7,5.7,1
							c0.4-0.1,1.1,0.2,1.6,0.5c2.1,1.2,4.2,2.4,6.2,3.8c2.4,1.7,4.9,3.2,8.1,2.9c0.1,0.7,0.1,1.3,0.2,2.1c0.9-0.1,1.8-0.2,2.7-0.3
							c0.8,3.2-0.3,5.7-3.4,6.2c-4.1,0.6-8.2,0.7-12.3,1c-2.1-1.8-4.9,0.1-7.2-1.5c-0.7-0.5-2.4,0.2-3.6,0.4c-5.5,1-11,0.5-16.6-0.3
							c-7.2-1-14.3-0.8-21.1,2c-1.3,0.5-2.4,1.4-3.6,2.1c-0.3,0.2-0.6,0.4-1,0.6c-3.5,1.4-7,1.9-11,1.2c0.3-0.8,0.5-1.5,0.7-2.1
							c-0.4-0.3-0.7-0.6-1.2-1c0.7-0.7,1.4-1.3,2.1-2c-0.4-0.3-0.8-0.7-1.4-1.1c1.9-1.2,1.5-3.6,3.2-5.1c1.6-1.4,2.7-3.4,4.3-4.9
							C254.8,242.2,254.4,241.4,254,240.1z M321.5,247.8c-2.4-1.2-4.4-2.1-6.2-3.2c-2.3-1.3-4.4-2.8-6.7-4.2
							c-0.4-0.3-1.2-0.5-1.5-0.3c-1,0.7-1.8,0-2.6-0.3c-2.5-0.7-5-1.5-7.6-2c-2.3-0.4-4.7-0.4-7-0.6c-2.4-0.2-4.9-0.6-7.3-0.5
							c-5.5,0.1-11.1,0.5-16.6,0.8c-1.5,0.1-3.2-0.3-4.2,1.5c-0.2,0.4-1.2,0.4-1.8,0.6c-1.2,0.3-2.4,0.5-3,0.7
							c-0.9,1.4-1.4,2.4-2.1,3.3c-1.8,2.4-4.7,3.9-4.9,7.4c0,0.4-0.6,0.7-0.9,1c-0.1,0.1-0.1,0.3-0.2,0.5c0.3,0.3,0.6,0.6,1.1,1.1
							c-2,1-0.5,3-1.4,4.4c4.2,0.4,6.3-0.2,9.6-2.5c0.6-0.4,1.3-0.7,2-1c7-2.9,14.3-3.8,21.8-2.7c3,0.4,6,1.1,8.9,1.1
							c3.7,0,7.5-0.5,11.2-0.8c0.9-0.1,2.2-0.5,2.7-0.1c1.3,1.2,2.6,0.6,4,0.5c0.5,0,1.1,0.1,1.6,0.2c1,0.2,2,0.6,2.9,0.6
							c2.5,0,5.1-0.2,7.6-0.4c2.8-0.2,3.2-0.7,3.9-3.8c-1-0.1-2-0.2-3.1-0.2C321.6,248.4,321.5,247.9,321.5,247.8z"/>
						<path class="st1" d="M423.2,260.3c-1-1.8-1.7-3-2.5-4.4c-0.6,0-1.3,0-2.1,0c-0.1-0.7-0.2-1.3-0.4-2.1
							c-1.2,0.1-2.3,0.3-4.1,0.5c1.3-1.6,2.2-2.8,3.4-4.4c-0.9,0.1-1.4,0.1-1.8,0.2c-2.6,0.7-5.2,1.6-7.9,2c-3.4,0.5-6.8,0.7-10.2,1
							c-0.5,0-0.9,0.1-1.4,0.2c-6.5,1.7-13.1,1-19.7,0.8c-1.7,0-3.4-0.9-5.1-1.5c-1.3-0.5-2.5-1.3-3.8-1.9c-1.2-0.5-2.2-1-2.9-2.3
							c-0.4-0.8-2.1-0.9-3.4-1.5c2.6-3.5,5-6.9,8.7-8.4c2.8-1.1,5.2-2.7,7.8-4c0.3-0.2,0.9-0.4,1-0.3c1.8,2.2,3.5-0.2,5.6-0.1
							c0.2,0.3,0.5,0.7,0.8,1.1c1.7,0.2,3.4-2.1,4.8,0.5c3.7-1.4,7.3-2.8,10.8-4.2c1.1,0.4,0.3,2.1,1.9,1.9c1.5-0.2,0.4,1.4,1.1,1.9
							c0.4-0.1,1-0.1,1.5-0.2c4.6-1.5,9.5-0.9,14.2-1.2c3-0.2,5.2,1.1,7,3.5c1.7,2.4,3.3,4.7,4.3,7.5c0.2,0.5,0.2,1.1,0,1.6
							c-0.5,1.5-1.1,3-1.8,4.4c-0.4,1-1.5,1.8-0.6,3c0.1,0.2-0.1,0.7-0.4,1C426.6,256.7,425,258.4,423.2,260.3z M424.2,258.5
							c1.2-1.5,2.1-2.6,3-3.8c-1.2-1.6,0.3-2.6,0.9-3.7c1.9-3.9,1.9-7.5-1.1-10.8c-0.5-0.6-0.9-1.2-1.3-1.9c-1.6-2.6-4-3.7-6.9-3.4
							c-1.3,0.1-2.6,0.3-3.9,0.4c-0.5,0-1,0.3-1.3,0.1c-1.5-0.8-2.9-0.3-4.4,0c-2.3,0.4-4.6,0.9-6.6,1.3c-0.6-0.9-0.9-1.6-1.4-2.1
							s-1.2-0.9-1.9-1.3c-2.6,1-5.4,2-8.2,3.1c-1.1,0.4-2.1,0.9-3.4-0.1c-0.6-0.5-2.2,0.3-3.4,0.5c-0.1,0-0.2-0.1-0.2-0.1
							c-0.8-1.4-1.9-0.9-2.9-0.3c-1.3,0.7-2.4,0.7-3.2-0.4c-3.1,1.2-5.2,3.4-8.3,4.3c-2.8,0.9-4.8,3.6-6.5,6.5
							c1.3,0.5,2.4,0.9,3.4,1.2c0.3,0.8,0.3,1.7,0.7,1.8c2.6,1.1,5.2,2.7,7.9,2.9c5.5,0.5,11.1,0.3,16.6,0.2c2.2-0.1,4.5-1.2,6.7-1
							c3.1,0.3,6-0.7,9-0.8c3.2-0.1,6.4-1.6,9.5-2.4c0.6-0.2,1.2-0.3,2.2-0.5c-0.8,1.8-1.4,3.1-2.1,4.4c0.9,0.1,1.6,0.2,2.2,0.2
							c0.1,0.8,0.2,1.4,0.3,2c0.8-0.1,1.5-0.1,2.5-0.2C421,256.7,423.4,256.8,424.2,258.5z"/>
						<path class="st1" d="M263.4,264.6c2.6-5.2,7.1-7.1,12.6-7.5c7.2-0.6,14,0.6,20.8,2.9c4.1,1.4,7.8,3.2,11.2,5.8
							c1.1,0.8,2.5,1.3,3.7,2c0.8,0.4,1.5,0.9,2.2,1.6c-2.8,0-5.2-1-7.2-2.6c-1.6-1.2-3-1.3-4.9-0.6c-7.2,2.6-14.7,3.1-22.2,1.7
							c-4.5-0.8-8.6-2.9-11.4-7C266.4,262.1,264.9,263.3,263.4,264.6z M294.4,260.9c-4.1-1.6-8.2-2.1-12.4-2.5
							c-1.2-0.1-2.7-0.5-3.5,1.1s-1.3,3.3-0.4,4.8c0.5,0.9,1.5,1.9,2.4,2c3.7,0.3,7.5,0.4,11.2,0.3c2-0.1,2.7-1,2.8-3.1
							C294.6,262.6,294.5,261.8,294.4,260.9z M276.2,265c0.4-2.3,0.8-4.3,1.1-6.5c-2.8,0.1-5.6,0.1-8.2,1.8
							C270.9,262.8,273.4,263.9,276.2,265z M302.4,264.4c-2.1-1.8-4.2-2.4-6.6-2.7c0,1.4,0,2.7,0,4.4C298,265.6,300,265,302.4,264.4
							z"/>
						<path class="st1" d="M368.2,267.5c6.3-6.6,13.6-11.1,23.3-11.1c9.4,0,17.4,3.3,24.5,9.6c-2.7,0.1-3.9-2-5.6-2.8
							c-10.6,4.8-21.3,5.8-32.4,3.2c-1.7-0.4-3.6-0.6-5.3-0.5C371.3,266.2,369.8,267,368.2,267.5z M384.6,266.5
							c4.1-0.2,7.8-0.3,11.5-0.7c2.4-0.2,4.3-4.8,3-6.7c-0.3-0.4-0.9-0.7-1.4-0.8c-4.4-0.8-8.8-0.7-13.1,0.4c-1.6,0.4-2.1,1-1.7,2.6
							C383.2,263,383.9,264.5,384.6,266.5z M381.4,260c-2.7,0.7-5.8,2.5-7.6,4.5c2.9,0.4,5.8,0.9,8.9,1.4
							C382.2,263.7,381.8,261.9,381.4,260z M400,265.2c3.1-0.1,5.7-1.2,8.7-2.6c-2.7-1.6-5-2.9-7.6-3.2
							C400.7,261.3,400.4,263.1,400,265.2z"/>
						<path class="st1" d="M385.8,380.1c-0.9-0.1-1.8-0.1-2.7-0.4c-3.2-1-6.5-0.9-9.8-0.4c-2.8,0.4-5.6,0.5-8.4,0.7
							c-2.6,0.3-5.2,0.6-7.8,0.9c-3.9,0.4-7.8,1-11.8,1.1c-6.6,0.2-13.1,0-19.7,0.9c-3.5,0.5-7.2,0.1-10.7-0.5
							c-5.1-0.8-10.1-0.9-15.2-0.2c-0.6,0.1-1.3,0-2.6,0c0.8-0.5,1.1-0.8,1.5-0.8c5.1-1.1,10.2-1.4,15.4-0.7
							c4.8,0.7,9.7,0.9,14.6,0.3c5.1-0.6,10.3-0.5,15.5-0.6c4.7-0.1,9.4-0.4,14-1.5c2-0.5,4.1-0.4,6.2-0.5c3-0.3,6-0.4,9-0.8
							C377.7,377.1,381.9,377,385.8,380.1z"/>
						<path class="st1" d="M379.7,376.5c-4.4-0.9-8.9-1.3-13.2-2.7c-2.7-0.9-5.4-2.4-8.4-2c-1.8,0.2-3.8,0.4-5.5,1.1
							c-6.6,2.7-13.3,2.9-20.2,1.5c-3.5-0.7-7.1-0.6-10.6,0.5c-5.8,1.7-11.6,3.2-17.4,4.7c-0.4,0.1-0.9,0.1-1.4-0.1
							c3.7-1.2,7.4-2.5,11.2-3.7c2.8-0.9,5.6-1.7,8.4-2.5c2.8-0.9,5.7-1,8.7-0.5c2.1,0.3,4.3,0.5,6.4,0.9c4.8,0.9,9.3-0.3,13.8-1.9
							c1.2-0.4,2.5-0.9,3.8-1.2c2.5-0.5,5-0.4,7.5,0.3c4,1.2,8.2,2.2,12.2,3.3c1.7,0.5,3.4,1,5,1.4
							C379.8,376,379.8,376.3,379.7,376.5z"/>
						<path class="st1" d="M309.4,383.8c2.3,0.8,4.6,1.5,6.9,2.4c2.6,1,5.2,2.3,7.8,3.2c2.5,0.8,5.1,1.4,7.7,1.6
							c6.5,0.5,13.1,0.3,19.4-1.3c4.2-1.1,8.3-3,12.3-4.7c2.6-1.1,4.9-2.6,7.9-3.2c-0.2,0.4-0.2,0.6-0.3,0.7
							c-5.2,2.6-10.4,5.4-15.7,7.7c-2.3,1-4.9,1.3-7.4,1.7c-6.1,1-12.2,1.3-18.3,0.5c-2.1-0.3-4.3-0.8-6.2-1.6
							c-4.5-1.8-9-3.8-13.5-5.8c-0.3-0.1-0.6-0.4-0.9-0.6C309.2,384.2,309.3,384,309.4,383.8z"/>
						<path class="st1" d="M264.8,276.7c11.2,10.5,23.3,15.1,38,8.2C292,294.4,270.4,287.5,264.8,276.7z"/>
						<path class="st1" d="M330.5,344.7c4.1,0,8.2,0,12.3,0c1.5,0,3,0.1,4.5,0c3.4-0.2,6.7-1,9.1-3.7c0.6-0.7,1.5-1.2,2.3-1.5
							c0.5-0.2,1.1,0,2,0c-0.9,2.2-1.9,3.5-3.9,3.8c-0.4,0.1-1,0.1-1.3,0.4c-2.3,2.5-5.5,2.6-8.4,2.6c-5,0.1-9.9-0.2-14.9-0.5
							c-0.7,0-1.3-0.4-2-0.7C330.4,345,330.4,344.8,330.5,344.7z"/>
						<path class="st1" d="M189.3,256.5c-1.2,5.7,0.8,10.7,2.6,15.7c1.9,5.2,3.4,10.5,4.2,16c0.1,1.1,0.2,2.1,0.2,3.2
							c-0.2,0-0.4,0.1-0.6,0.1c-0.3-1.3-0.7-2.6-1-4c-1-5.3-2.6-10.4-4.4-15.4c-1.2-3.4-1.8-7.1-2.4-10.7
							C187.5,259.7,187.7,258,189.3,256.5z"/>
						<path class="st1" d="M315.2,340.1c-4.4-2.6-4.1-7-4.5-11.6c-2.6,3.1-5.1,6.2-7.7,9.3c-0.2-0.1-0.3-0.2-0.5-0.4
							c1.8-2.7,3.7-5.3,5.6-7.9c1.2-1.7,2.3-3.4,3.6-5.1c0.6-0.8,1.3-1.4,2.3-2C312.4,328.5,311.2,334.5,315.2,340.1z"/>
						<path class="st1" d="M366.5,318.8c0.7,1,1.7,2,2.1,3.1c1.2,2.8,2.3,5.7,3.1,8.7c0.3,1-0.2,2.4-0.7,3.5
							c-1.1,2.6-5.3,6.4-8.8,8.1c0.7-0.8,1.1-1.3,1.4-1.7c1.7-1.9,3.4-3.8,5.1-5.7c1.4-1.6,1.9-3.4,1.1-5.5c-1-2.7-2-5.4-3-8.2
							c-0.2-0.7-0.5-1.3-0.8-2C366.2,319,366.3,318.9,366.5,318.8z"/>
						<path class="st1" d="M323.3,269.6c-2.4-0.8-4.8-1.4-7.1-2.5c-4.8-2.2-9.5-4.6-14.2-6.9c-2-0.9-4.1-1.7-6.5-2.7
							c2.6-0.3,4.6,0.1,6.6,1c6.9,3.4,13.8,6.8,20.8,10.2c0.2,0.1,0.4,0.3,0.6,0.5C323.4,269.4,323.4,269.5,323.3,269.6z"/>
						<path class="st1" d="M205.9,264.9c1.7,1.5,1.9,3.4,2,5.2c0,2.2-0.2,4.3-0.3,6.5c-0.3,3.9,0.3,7.7,1.5,11.4
							c0.4,1.1,0.5,2.3,0.6,3.5c-2.6-5.4-4.3-10.9-3.4-17.1c0.4-2.6-0.1-5.2-0.3-7.8C206,266,205.9,265.5,205.9,264.9z"/>
						<path class="st1" d="M447.2,311.3c0.1-0.5,0-1.1,0.2-1.6c1.5-5.1,2.8-10.3,5.2-15.2c1.3-2.5,1.8-5.4,2.6-8.3
							c0.5,1.3,0.4,2.6,0.2,4c-0.3,1.3-0.6,2.6-1.1,3.8c-2,5.4-4,10.7-6.1,16.1c-0.2,0.4-0.4,0.8-0.6,1.3
							C447.6,311.4,447.4,311.4,447.2,311.3z"/>
						<path class="st1" d="M354.9,399.7c-8.3-0.7-16.6-0.2-24.7,1.7C335.7,397.9,351.7,396.7,354.9,399.7z"/>
						<path class="st1" d="M204.4,285.2c-1.8-2-3.7-3.9-5.3-6c-2.9-3.7-3.2-12.1-0.4-16.9c0,1.2,0,1.8,0,2.5
							c-0.1,2.8-0.4,5.6-0.3,8.4c0.1,2.6,1.2,4.8,2.9,6.8c1.3,1.5,2.4,3.2,3.5,4.9C204.7,285,204.6,285.1,204.4,285.2z"/>
						<path class="st1" d="M391.4,362.8c-1.6-2.4-3-4.9-4.7-7.2c-1.7-2.3-3.5-4.4-5.3-6.5c-1.8-2.2-3.9-4.1-5.2-6.7
							c4.8,3.2,12.6,13.3,15.7,20C391.7,362.6,391.6,362.7,391.4,362.8z"/>
						<path class="st1" d="M336.2,230c3,4.5,1.8,15.8-2.4,20.2c0.1-2.7,1.5-4.6,1.9-6.6c0.4-2.3,0.7-4.6,0.8-7
							C336.6,234.4,336.3,232.2,336.2,230z"/>
						<path class="st1" d="M354.9,228.4c0.4,6-0.6,12.1,1.5,18C353.9,244.1,353.4,238,354.9,228.4z"/>
						<path class="st1" d="M318.2,341c3.6-1.5,7.5-0.4,9.8,2.6c-1.9,1.2-3.4-0.6-5-0.9C321.5,342.5,320,341.7,318.2,341z"/>
						<path class="st1" d="M292.4,223.4c1.8,0.4,3.4,1.5,4.5,3.2c1.9,3,4.5,4.7,8,5.1c0.4,0,0.7,0.2,1.1,0.4c-2,0.9-4.9,0.5-6.7-1
							c-0.7-0.5-1.3-1.1-1.8-1.8C295.7,227.3,294,225.3,292.4,223.4z"/>
						<path class="st1" d="M361.3,267.7c4.3-1.5,7.4-4.6,11-7.2C369.5,264.2,365.9,266.7,361.3,267.7z"/>
						<path class="st1" d="M265.7,265.1c-1.3,2.7-4.7,4.2-7.5,3.8C260.6,267.7,263.1,266.4,265.7,265.1z"/>
						<path class="st1" d="M410.9,256.7c1.2,1.4,2.4,2.8,3.5,4.2c-0.2,0.1-0.3,0.3-0.5,0.4c-1.8-0.8-2.2-2.9-3.6-4.1
							C410.5,257.1,410.7,256.9,410.9,256.7z"/>
						<path class="st1" d="M261.6,272.8c-0.3,0.2-0.6,0.5-0.9,0.6c-0.7,0.3-1.4,0.5-2.2,0.3c0.9-0.5,1.9-0.9,2.8-1.4
							C261.4,272.4,261.5,272.6,261.6,272.8z"/>
						<path class="st3" d="M321.5,247.8c0,0.1,0.1,0.6,0.3,1.3c1.1,0.1,2.1,0.2,3.1,0.2c-0.7,3.2-1.1,3.6-3.9,3.8
							c-2.5,0.2-5.1,0.4-7.6,0.4c-1,0-1.9-0.4-2.9-0.6c-0.5-0.1-1.1-0.3-1.6-0.2c-1.4,0.1-2.7,0.6-4-0.5c-0.5-0.4-1.8,0-2.7,0.1
							c-3.7,0.3-7.5,0.8-11.2,0.8c-3,0-6-0.7-8.9-1.1c-7.5-1-14.8-0.2-21.8,2.7c-0.7,0.3-1.4,0.6-2,1c-3.3,2.2-5.5,2.8-9.6,2.5
							c0.9-1.4-0.5-3.4,1.4-4.4c-0.5-0.5-0.8-0.8-1.1-1.1c0.1-0.2,0.1-0.4,0.2-0.5c0.3-0.4,0.9-0.7,0.9-1c0.2-3.5,3.1-5.1,4.9-7.4
							c0.7-0.9,1.2-1.9,2.1-3.3c0.6-0.1,1.8-0.4,3-0.7c0.6-0.2,1.6-0.2,1.8-0.6c1-1.8,2.7-1.4,4.2-1.5c5.5-0.3,11.1-0.6,16.6-0.8
							c2.4-0.1,4.9,0.3,7.3,0.5c2.3,0.2,4.7,0.2,7,0.6c2.6,0.5,5.1,1.3,7.6,2c0.9,0.2,1.6,1,2.6,0.3c0.3-0.2,1.1,0.1,1.5,0.3
							c2.2,1.4,4.4,2.9,6.7,4.2C317.1,245.7,319.1,246.6,321.5,247.8z"/>
						<path class="st3" d="M424.2,258.5c-0.9-1.7-3.2-1.7-2-4c-1.1,0.1-1.7,0.2-2.5,0.2c-0.1-0.6-0.2-1.2-0.3-2
							c-0.7-0.1-1.4-0.1-2.2-0.2c0.6-1.4,1.3-2.7,2.1-4.4c-1.1,0.2-1.7,0.4-2.2,0.5c-3.2,0.9-6.3,2.3-9.5,2.4c-3,0.1-5.9,1.1-9,0.8
							c-2.2-0.2-4.4,0.9-6.7,1c-5.5,0.1-11.1,0.3-16.6-0.2c-2.7-0.2-5.3-1.8-7.9-2.9c-0.4-0.2-0.4-1.1-0.7-1.8
							c-0.9-0.3-2-0.7-3.4-1.2c1.7-2.9,3.8-5.6,6.5-6.5c3.1-1,5.2-3.2,8.3-4.3c0.8,1.1,1.9,1.1,3.2,0.4c1-0.5,2.1-1.1,2.9,0.3
							c0,0.1,0.2,0.2,0.2,0.1c1.2-0.2,2.7-0.9,3.4-0.5c1.3,1,2.3,0.5,3.4,0.1c2.8-1,5.6-2.1,8.2-3.1c0.7,0.5,1.4,0.8,1.9,1.3
							s0.8,1.2,1.4,2.1c2-0.4,4.3-0.9,6.6-1.3c1.5-0.3,2.9-0.8,4.4,0c0.3,0.2,0.9-0.1,1.3-0.1c1.3-0.1,2.6-0.3,3.9-0.4
							c3-0.2,5.3,0.9,6.9,3.4c0.4,0.6,0.8,1.3,1.3,1.9c3,3.3,3,6.9,1.1,10.8c-0.6,1.1-2.1,2.1-0.9,3.7
							C426.3,255.8,425.4,257,424.2,258.5z"/>
						<path class="st8" d="M294.4,260.9c0.1,0.9,0.2,1.8,0.1,2.6c-0.1,2.1-0.8,3.1-2.8,3.1c-3.7,0.1-7.5,0-11.2-0.3
							c-0.9-0.1-1.9-1.1-2.4-2c-0.9-1.6-0.4-3.3,0.4-4.8c0.8-1.6,2.3-1.2,3.5-1.1C286.2,258.8,290.3,259.3,294.4,260.9z
							 M286.9,265.2c1.3-0.4,2.1-1.3,1.9-2.8c-0.1-1.3-1-1.9-2.2-2c-1.5-0.1-2.5,0.6-2.6,2C285,263.4,285.8,264.2,286.9,265.2z"/>
						<path class="st7" d="M276.2,265c-2.8-1-5.3-2.2-7-4.8c2.6-1.7,5.4-1.6,8.2-1.8C276.9,260.6,276.6,262.7,276.2,265z"/>
						<path class="st7" d="M302.4,264.4c-2.4,0.6-4.4,1.1-6.6,1.7c0-1.7,0-3,0-4.4C298.2,262,300.3,262.6,302.4,264.4z"/>
						<path class="st8" d="M384.6,266.5c-0.7-2-1.4-3.6-1.7-5.2c-0.4-1.7,0.1-2.2,1.7-2.6c4.3-1.1,8.7-1.1,13.1-0.4
							c0.5,0.1,1.1,0.4,1.4,0.8c1.4,2-0.5,6.5-3,6.7C392.4,266.2,388.7,266.3,384.6,266.5z M391.1,264c1.1-0.8,2-1.9,1.6-3.5
							c-0.3-1.1-1.3-1.6-2.4-1.5c-1.4,0.2-2.4,0.8-2.4,2.2C388.9,262.2,389.8,263,391.1,264z"/>
						<path class="st7" d="M381.4,260c0.4,2,0.8,3.7,1.3,5.8c-3.1-0.5-6-0.9-8.9-1.4C375.6,262.5,378.7,260.6,381.4,260z"/>
						<path class="st7" d="M400,265.2c0.4-2.1,0.7-3.8,1.1-5.8c2.6,0.3,4.9,1.7,7.6,3.2C405.7,264,403.1,265,400,265.2z"/>
						<path class="st1" d="M286.9,265.2c-1-1-1.9-1.8-2.9-2.7c0.1-1.5,1.1-2.1,2.6-2c1.3,0.1,2.1,0.7,2.2,2
							C288.9,263.9,288.2,264.8,286.9,265.2z"/>
						<path class="st1" d="M391.1,264c-1.2-1-2.2-1.8-3.3-2.7c0-1.4,1.1-2,2.4-2.2c1.1-0.2,2.1,0.4,2.4,1.5
							C393.1,262.1,392.2,263.1,391.1,264z"/>
					</g>
				</g>
			</g>
		</g>
	</g>
	<path class="st9" d="M366.5,373.8c-2.7-0.9-5.4-2.4-8.4-2c-1.8,0.2-3.8,0.4-5.5,1.1c-6.6,2.7-13.3,2.9-20.2,1.5
		c-3.5-0.7-7.1-0.6-10.6,0.5c-5.8,1.7-11.6,3.2-17.4,4.7c-0.2,0.1-0.4,0.1-0.7,0.1c-1.1,0.5-2.1,1-3.2,1.4c4.5-0.8,9-1,13.6-0.3
		c4.8,0.7,9.7,0.9,14.6,0.3c5.1-0.6,10.3-0.5,15.5-0.6c4.7-0.1,9.4-0.4,14-1.5c2-0.5,4.1-0.4,6.2-0.5c3-0.3,6-0.4,9-0.8
		c2.6-0.3,5.1-0.5,7.5,0c-0.3-0.2-0.6-0.4-1-0.6c-1.4-0.5-2.7-0.9-4.1-1.3C372.6,375.3,369.5,374.8,366.5,373.8z"/>
	<path class="st10" d="M364.9,380c-2.6,0.3-5.2,0.6-7.8,0.9c-3.9,0.4-7.8,1-11.8,1.1c-6.6,0.2-13.1,0-19.7,0.9
		c-3.5,0.5-7.2,0.1-10.7-0.5c-3.8-0.6-7.5-0.8-11.2-0.6h0.1c0.2,0.1,0.4,0.1,0.6,0.2c1.3,0.5,2.5,1.1,3.6,1.8
		c1.1,0.5,2.1,1.1,3.1,1.7c0.1,0,0.1,0,0.2,0c0.3,0.1,0.6,0.2,0.9,0.3c-0.8-0.3-1.5-0.7-2.3-1c-0.3-0.1-0.6-0.4-0.9-0.6
		c0.1-0.2,0.2-0.4,0.3-0.5c2.3,0.8,4.6,1.5,6.9,2.4c2.6,1,5.2,2.3,7.8,3.2c2.5,0.8,5.1,1.4,7.7,1.6c6.5,0.5,13.1,0.3,19.4-1.3
		c4.2-1.1,8.3-3,12.3-4.7c2.3-1,4.5-2.3,7.1-3c1.8-1.1,3.6-2.1,5.6-3c-0.9,0.1-1.9,0.2-2.8,0.3C370.6,379.6,367.7,379.7,364.9,380z"
		/>
	<path class="st6" d="M387.4,539.4c0.2-1.3,0.4-2.6,0.6-3.9c0.4-2.6-0.1-4.5-1.5-6.6c-8.3-12.8-17.4-25-27.2-36.8
		c-0.5-0.6-1.1-1.2-2-2c-2,2.2-3.9,4.2-5.8,6.1c-0.6,0.7-1.2,1.3-1.9,2C364,510.1,376.3,524.6,387.4,539.4z"/>
	<path class="st6" d="M240.3,529.7c1.9-1.7,3.8-3.4,5.6-4.9c7.2-6.2,15-11.7,22.5-17.7c5.1-4,10.4-7.7,15.9-11.1
		c-1.7-1.6-3-3.4-3.7-5.6c-0.1-0.3-0.3-0.6-0.5-0.9c-0.3,0.1-0.6,0-0.7,0.1c-0.8,0.7-1.6,1.3-2.4,2c-11.6,10.5-23,21.1-35.9,30.1
		c-1.6,1.1-2.1,2.2-1.6,4.2C239.7,527.1,240,528.4,240.3,529.7z"/>
	<path class="st11" d="M319.4,268.3c-1.1-0.4-2.1-0.7-3.1-1.2c-4.8-2.2-9.5-4.6-14.2-6.9c-0.1,0-0.2-0.1-0.3-0.1
		c-0.3,0-0.5-0.1-0.8-0.1c0.4,1,1.1,1.8,1.9,2.6c1.7,0.9,3.3,1.9,4.9,3c2.4,1.1,5,1.7,6.8,2.1C316.2,268.1,317.8,268.4,319.4,268.3z
		"/>
	<path class="st11" d="M363.6,263.4c3.7-2.2,7.5-3.9,11.1-6.3c1.1-0.7,2.6-1.7,3.8-2.9c-0.7,0-1.4-0.1-2.1-0.1
		c-1.7,0-3.4-0.9-5.1-1.5c-1.3-0.5-2.5-1.3-3.8-1.9c-1-0.5-1.9-0.9-2.6-1.8c-0.1,0.1-0.3,0.1-0.4,0.2c-3.5,1.4-6.8-0.8-7.6-4.3
		c-0.9-3.7,0.2-9.2-1.9-12.7c0,4.8-0.3,9.6,1.4,14.2c-2.3-2-2.9-7.1-1.9-15c-0.2-0.2-0.3-0.4-0.5-0.5c-2.1,6,1,13.1-2.4,18.7
		c-0.9,1.6-2.4,2.3-4,3.1c-2.3,1.1-4.7,2.2-7.2,2.5c-2.7,0.3-3.9-1.6-3.7-4.1c0.2-2.9,1-5.9,0.7-8.8c-0.6,3.2-1.8,6.1-3.6,7.9
		c0.1-1.1,0.3-2.1,0.7-3.1c-0.9,1.8-1.9,3.3-3.5,4.3c-1.8,1-3.6,1.2-5.6,0.9c-0.6,0.8-1.5,1.3-2.8,1.6c-1.8,0.3-3.7,0.4-5.5,0.6
		c0,2.4-1.4,4.8-3.6,5.9c-2,1-4.1,1-6.2,0.8c4.6,2.3,9.3,4.5,13.9,6.8c0.9-0.3,1.7-0.9,2.4-1.8c1.6-2.1,2.6-3.2,5.1-4.1
		c3.2-1.3,6.6-2.5,10.1-3c1.6-0.2,3.3-0.2,4.9-0.3c0.6-0.1,1.3-0.4,2-0.2c2.5,0.8,3.2,4.4,3.4,6.6c0.5,4.1,1.1,8.2,1.2,12.3
		c0.2,9.4-1.1,19.4,2,28.5c2.3,6.8,7.1,14.8,5.2,22.2c-1.5,5.7-5.9,7.6-11.2,8.9c-3.7,0.9-11.3,2.7-13.8-1.5c-1.9-3.1-0.1-5.1,1-8
		c0.9-2.4,0.9-4.5-0.1-6.8c-0.5-1.3-1-2.6-1.2-4.1c-0.8-5.9,1.5-14.2-2.3-19.3c-3.7,3.8-2,9.6-3.7,14.2c-1.8,5-5.9,5-10.1,7.1
		c-5.8,3-11,9.5-14.5,14.9c-0.4,0.7-4.8,8.9-4.1,9c3,0.5,4.9-2.9,6.4-5c2-2.8,4.4-5.5,7.4-3.6c-0.3-1.7-0.3-3.5-0.5-5.4
		c-2.6,3.1-5.1,6.2-7.7,9.3c-0.2-0.1-0.3-0.2-0.5-0.4c1.8-2.7,3.7-5.3,5.6-7.9c1.2-1.7,2.3-3.4,3.6-5.1c0.6-0.8,1.3-1.4,2.3-2
		c-1.2,4.4-2.1,8.8-1,13c1,1.1,2,2.4,3.1,3.4c0.9,0.8,2,1.4,3,1.9c3.4-0.9,6.7,0.2,8.8,2.9c-0.6,0.3-1.1,0.4-1.5,0.4
		c1.1,0.8,2.2,1.6,3.4,2.5c3.1,2.6,6.5,4.7,10.8,4.3c4.1-0.3,8.1-1.6,11.7-3.4c4.1-2,8.8-4.8,12.5-8.3c1.3-1.4,2.5-2.8,3.7-4.2
		c0.6-0.8,1.1-1.6,1.5-2.5c0.3-1,0.3-2.1-0.1-3.3c-1-2.7-2-5.4-3-8.2c-0.2-0.7-0.5-1.3-0.8-2c0.2-0.1,0.3-0.2,0.5-0.3
		c0.7,1,1.7,2,2.1,3.1c1,2.4,1.9,4.8,2.7,7.3c1.7-5.3,2.2-10.9,2.1-16.4c0-3.3-0.1-6.6-0.8-9.8c-0.4-2.1-0.9-4.8-2.6-6.3
		c-3.2,4.7-4.7,11.5-10,14.4c-0.3,0.2-0.7,0-0.8-0.2c-3.1-5.2-2.1-11.1-0.6-16.6c0.9-3.5,2.2-7,2.6-10.5s-0.5-6.4-1.4-9.7
		C358.4,269.1,359.4,265.9,363.6,263.4z M360.8,339.4c-0.9,2.2-1.9,3.5-3.9,3.8c-0.4,0.1-1,0.1-1.3,0.4c-2.3,2.5-5.5,2.6-8.4,2.6
		c-5,0.1-9.9-0.2-14.9-0.5c-0.7,0-1.3-0.4-2-0.7c0-0.1,0.1-0.3,0.1-0.4c4.1,0,8.2,0,12.3,0c1.5,0,3,0.1,4.5,0c3.4-0.2,6.7-1,9.1-3.7
		c0.6-0.7,1.5-1.2,2.3-1.5C359.2,339.2,359.9,339.4,360.8,339.4z"/>
	<path class="st11" d="M403.6,285.9c-0.1,0-0.1,0-0.1,0c-6,1.1-12.3,0.9-18-1.1c-2.4-0.8-4.8-1.7-7.3-2.2c-1.4-0.3-7.3-0.5-4.1,2.4
		c3.8,3.5,10.9,4.1,15.8,4.5c2.2,0.2,4.4,0.2,6.5,0.1c1.5-0.1,3.1-0.2,4.5-0.6C401.5,288.7,405.5,286,403.6,285.9z"/>
	<path class="st11" d="M370.4,382c0.3-0.1,0.6-0.2,0.9-0.3c-0.2,0.4-0.2,0.6-0.3,0.7c-5.2,2.6-10.4,5.4-15.7,7.7
		c-2.3,1-4.9,1.3-7.4,1.7c-6.1,1-12.2,1.3-18.3,0.5c-2.1-0.3-4.3-0.8-6.2-1.6c-2.7-1.1-5.3-2.2-7.9-3.3c-0.2,0-0.4,0.1-0.5,0.1
		c2.4,5.3,9.1,6.6,13.4,10.1c0.3,0.2,0.2,0.7,0,0.9c-0.8,0.8-1.2,1.7-1.7,2.7c1.3,0.1,2.6,0.1,3.9,0c5.9-3.3,21.2-4.3,24.3-1.4
		c0.8-0.1,1.6-0.2,2.4-0.5c5.5-1.6,9.8-6.4,12.7-11.1c1.2-1.9,2.3-3.7,4.2-5.1c1.6-1.2,3.6-1.9,4.7-3.6
		C376.1,379,373.1,380.4,370.4,382z"/>
	<path class="st12" d="M345.8,399.4c3,0.2,6.1,0.6,9.1,0.3C351.8,399.5,348.8,399.4,345.8,399.4z"/>
	<path class="st11" d="M459.5,275c-0.5-2.2-0.5-4.5-0.7-6.7c-0.1-0.5-0.1-1-0.2-1.5c-0.2,0-0.4-0.1-0.6-0.1
		c-1.1,2.8-2.4,5.5-3.1,8.3c-1.4,5.2-4.3,9.6-7.5,13.8c-0.7,1-1.8,1.7-2.7,2.5c-1.1,1-2.2,2-3.3,3c-0.4,0.3-0.8,0.6-1.3,0.9
		c-1-6.1-0.8-11.9-0.5-17.7c0.4-6.7,0.8-13.3,0.9-20c0-4.5-0.8-9-1-13.5c-0.3-6.8-0.5-13.5-0.7-20.3c-0.1-3.8,0-7.5,0-11.3
		c-0.1-4.7-1.2-8.9-5-12.2c-0.7,0.2-1.4,0.4-2.1,0.6c-11.1,4.3-22.7,5.2-34.4,4.8c-2.7-0.1-5.4-0.8-8.1-1.3c-2-0.3-4.1-1-6.1-1
		c-6.1,0-12.2,0.2-18.3,0.5c-3.6,0.2-7.1,1-10.7,1.2c-7.8,0.6-15.6,1-23.4,1.4c-12.2,0.7-24.1-1.2-35.6-5c-3.1-1-6.2-2.1-9.3-3.3
		c9,4.6,18.1,8.7,28.1,11.3c14.4,3.8,28.9,6.6,43.8,6.7c7.1,0.1,14.4,0.3,21.4-0.6c5.7-0.7,11.5-2,17.2-1c0.5,0.1,0.7,0.6,0.4,1.1
		c-2.3,2.8-6.1,4-9.3,5.3c-2.6,1-7.8,2.3-9.2,5.1c9.1,1.1,17.5-1.2,25.3-6c3.3-2,7.8-3.2,10.5-6.2c1.4-1.6,2.2-4.6,4.7-4.7
		c4.9-0.2,5.2,8.6,5.2,11.7c0,5.1-0.5,9.8,0.8,14.4c0.7,0.5,1.3,1.2,1.9,2c1.7,2.4,3.3,4.7,4.3,7.5c0.2,0.5,0.2,1.1,0,1.6
		c-0.5,1.5-1.1,3-1.8,4.4c-0.4,1-1.5,1.8-0.6,3c0.1,0.2-0.1,0.7-0.4,1c-0.8,0.9-1.7,1.8-2.6,2.8c-0.6,1.3-1.3,2.7-1.4,4.1
		c-0.1,1.9,0.8,3.1,1.6,4.7c0.9,1.8,1,3.8,0,5.6c-1.2,2.1-3.8,3.6-4.4,6.1c-0.9,4.1,1.8,7.5,3.7,10.9c2.8,5,3,10-0.2,14.9
		c-4.1,6.3-9.7,11.9-12.3,19.1c-2.9,8.1,0.6,15.2,1,23.3c0.4,8-0.8,16-2,23.9c-1.1,7-1.5,14.2-3.1,21c-1.8,7.7-5.1,15.2-11.5,20
		c-3.4,2.6-7.2,4.4-10.5,7.2c-2.6,2.1-5.6,5-8.8,6c-1.1,0.4-2,0.5-3.1,0.1c-1.3-0.5-2.4-1.4-3.8-0.4c-2.6,1.9-4.4,4.7-6.6,7
		c-4.3,4.4-10.4,7.2-16.2,8.9c-6.9,2.1-14.2,3.1-21.4,2.8c-6.4-0.3-13.5-1.4-19.1-4.6c-6.2-3.5-10.5-9.4-15.8-14
		c-2.5-2.1-12.3-8.7-11.8-1.6c0,0.3-0.3,0.6-0.6,0.6c-17.6-1.4-28.6-15.8-33-31.9c-2.4-8.7-2.8-17.3-2.8-26.3c0-7-0.3-13.9-0.6-20.9
		c-1.5-6.4-3.1-12.8-3.7-19.3c-0.8-8.7-0.5-17.4-2.4-26.1c-1.8-8.2-4.5-16.3-4.6-24.8c0-8.6,1.7-17,3-25.5c1.4-8.7,2.2-17.3,0.5-26
		c-0.1-0.6-0.2-1.1-0.3-1.7c-1.1,2.7-2.6,5.1-4.6,7.3c-4.2,4.7-6,10.4-6.8,16.5c-1,6.7-1.6,13.5-2.2,20.2c-0.4,4.5-0.6,9,0.2,13.5
		c0.5,2.9,0.4,6,0.3,9c-0.1,2.7-1.3,5.1-2.9,7.2c-1.1,1.5-2.3,1.2-2.8-0.5c-0.2-0.8-0.3-1.7-0.4-2.5c-1-8-2.8-15.8-5.1-23.4
		c-2.4-7.8-7.2-13.6-15-16.6c-5.7-2.2-11.5-4.3-17.2-6.4c-0.1,0-0.3,0.1-0.6,0.2c-0.5,2.8-0.1,5.6,0.9,8.3c1.9,4.8,4,9.6,5.6,14.5
		c2.6,7.7,3.6,15.8,5.1,23.7c1.4,7.4,4.8,13.9,10.6,18.9c2.1,1.8,4.3,3.3,6.6,4.9c2.9,2.1,5.8,4.1,7.9,7.2c0.4,0.7,1,1.4,2,1.2
		c-0.5-6.2-1.1-12.2-1.6-18.3c0.7,0.5,0.9,1.2,0.9,1.8c1,7.2,2.1,14.3,3,21.5c1.1,9.6,3.1,19,6.3,28.1c3.7,10.5,7.7,20.8,11.6,31.2
		c1,2.6,2.1,5.3,3.6,7.6c3.8,6,7.8,12,11.9,17.8c4.5,6.4,10.1,11.8,16.6,16.4c8.5,6,16.4,12.6,23.2,20.6c1.7,2.1,3.8,3.9,5.8,5.7
		c1,0.9,2.1,1.6,3.3,2.1c1.7,0.8,3.5,1.5,5.3,2c4.6,1.5,9.2,2.9,14.1,2.5c3.8-0.3,7.7-0.8,11.5-1.5c5.8-1,11.6-2.2,17.6-2.4
		c6.1-0.2,11.6-2.2,16.6-5.7c4.9-3.4,9.9-6.8,15-10.1c3.8-2.4,7.8-4.5,11.6-7c6.1-4.1,11.7-8.9,16.8-14.2c1.9-1.9,3.7-4.2,4.7-6.6
		c3.9-9.2,7.9-18.3,11.1-27.8c3.5-10.6,6.1-21.5,9.3-32.3c3.3-11,5.5-22.3,6.5-33.7c0.6-7.6,1.3-15.2,1.9-22.8
		c0.2-1.7,0.4-3.5,0.7-5.2c0.3,0,0.6,0,0.9,0c-0.9,11.7-1.8,23.5-2.7,35.4c4.6-1.3,7.4-4.1,9.1-8.1c1.2-2.7,1.9-5.7,2.7-8.6
		c1.3-4.9,2.4-9.9,3.9-14.7C460.3,290.5,461.1,282.8,459.5,275z M195.6,291.5c-0.3-1.3-0.7-2.6-1-4c-1-5.3-2.6-10.4-4.4-15.4
		c-1.2-3.4-1.8-7.1-2.4-10.7c-0.3-1.7-0.1-3.5,1.5-5c-1.2,5.7,0.8,10.7,2.6,15.7c1.9,5.2,3.4,10.5,4.2,16c0.1,1.1,0.2,2.1,0.2,3.2
		C196.1,291.4,195.9,291.4,195.6,291.5z M204.4,285.2c-1.8-2-3.7-3.9-5.3-6c-2.9-3.7-3.2-12.1-0.4-16.9c0,1.2,0,1.8,0,2.5
		c-0.1,2.8-0.4,5.6-0.3,8.4c0.1,2.6,1.2,4.8,2.9,6.8c1.3,1.5,2.4,3.2,3.5,4.9C204.7,285,204.6,285.1,204.4,285.2z M206.2,274.4
		c0.4-2.6-0.1-5.2-0.3-7.8c0-0.5-0.1-1.1-0.1-1.6c1.7,1.5,1.9,3.4,2,5.2c0,2.2-0.2,4.3-0.3,6.5c-0.3,3.9,0.3,7.7,1.5,11.4
		c0.4,1.1,0.5,2.3,0.6,3.5C207.1,286.1,205.4,280.5,206.2,274.4z M455.4,290.2c-0.3,1.3-0.6,2.6-1.1,3.8c-2,5.4-4,10.7-6.1,16.1
		c-0.2,0.4-0.4,0.8-0.6,1.3c-0.2,0-0.3,0-0.5,0c0.1-0.5,0-1.1,0.2-1.6c1.5-5.1,2.8-10.3,5.2-15.2c1.3-2.5,1.8-5.4,2.6-8.3
		C455.8,287.5,455.7,288.9,455.4,290.2z"/>
	<path class="st7" d="M288.5,260.9c0,0.7-0.5,1.2-1.2,1.2s-1.2-0.5-1.2-1.2s0.5-1.2,1.2-1.2S288.5,260.3,288.5,260.9z"/>
	<path class="st7" d="M392.5,259.6c0,0.7-0.5,1.2-1.2,1.2s-1.2-0.5-1.2-1.2s0.5-1.2,1.2-1.2S392.5,259,392.5,259.6z"/>
	<path class="st13" d="M354.4,136.2c2.1,2.9,4.2,5.8,6.5,8.4c2.3,2.6,4.9,5.1,6.6,8.1c0.2,0.4-0.1,0.9-0.6,0.9
		c-5.8-0.5-11.2-2.7-16.7-4.5c2.1,2.1,4.4,4.2,4.8,7.1c0.1,0.4-0.2,0.8-0.6,0.7c-1.9-0.1-3.8-0.5-5.7-0.5c0.7,1.3,1.3,2.5,1.8,3.9
		c0.1,0.4-0.2,0.8-0.6,0.7c-5.2-0.8-10.3-2.4-15.3-4.2c-5.3-1.9-10.8-3.6-16-5.8c-5-2-9.9-4.4-14.8-6.7c-4.3-2.1-8.6-4.6-13.2-6.2
		c3.7,4.9,8.8,8.8,13.5,12.6c5.7,4.7,11.7,9.1,17.2,14c0.5,0.4-0.1,1.2-0.6,1c-4.9-1.5-10.1-2.4-14.8-4.5c-3.9-1.8-7.8-4-12.1-4.7
		c1.4,1.9,3,3.7,4.3,5.7c0.3,0.5-0.2,1-0.7,0.9c-3.5-0.8-7-2.3-10.6-2.2c2,1.7,4.1,3.2,5.6,5.4c0.3,0.4-0.1,0.9-0.6,0.9
		c-1.5,0-3-0.2-4.5-0.2c1.3,1.9,2.9,3.7,4.1,5.7c0.3,0.5-0.2,1-0.7,0.9c-6.4-2.1-12.8-4.1-19.4-5.7c-6.1-1.4-12-3.7-18.1-4.6
		c2.6,2.1,5.5,3.9,8.1,5.9c2.3,1.8,4.7,4.5,7.7,5.2c-0.3-1.2-0.6-2.3-0.6-3.6c0-0.5,0.6-0.7,0.9-0.5c9.3,5.9,18.3,12.2,28.7,16.1
		c8.3,3.1,16.8,6.7,25.7,7.6c-2.3-1.3-4.5-2.7-6.8-3.9c-4-2.1-8.1-4.1-11.2-7.5c-0.4-0.5,0-1.2,0.6-1c13.7,3.5,27.3,7.9,41.5,8.7
		c-3.8-3-7.6-6-10-10.3c-0.2-0.4,0.1-1,0.6-0.9c1.8,0.3,3.7,0.6,5.5,0.7c-1.7-1.8-3.9-3.3-5.4-5.3c-0.4-0.5,0-1.1,0.6-1
		c10,1.8,19.5,6.7,29.8,6.8c-1.8-2-3.9-3.7-5.3-6.1c-0.2-0.4,0.1-1,0.6-0.9c3.6,0.5,7.1,1.7,10.8,2.1c-4-4.4-9.1-7.6-12.3-12.7
		c-0.3-0.5,0.2-1,0.7-0.9c7.1,1.5,14.5,2.9,21.5,4.9c4.8,1.4,10.3,3.7,15.5,3.2c-1.8-1.4-3.5-2.7-5.2-4.3c-0.5-0.5,0.1-1.1,0.6-1
		c3.8,0.7,7.6,1.2,11.4,1.5c-9.5-4.5-19.3-8.7-28.3-14.3C370.8,147,363,140.9,354.4,136.2z"/>
	<path class="st14" d="M194.2,200.5c1.1,0,2.2,0,3.3,0.2c0.5,0.1,0.8,0.6,0.4,1.1c-1.9,2.1-3.6,4.3-5.1,6.8c0.8-0.1,1.7-0.3,2.5-0.5
		c0.5-0.1,1,0.5,0.7,0.9c-1.1,1.7-2.6,3.1-3.8,4.7c3.9-1.1,7.5-2.9,11.3-4.5c0.5-0.2,1.2,0.3,0.8,0.9c-2.3,3.5-5.8,5.9-8.6,8.9
		c-2.9,3.1-5.9,6.1-8,9.7c1.9-0.6,3.7-1.5,5.7-2.1c0.4-0.1,0.9,0.4,0.7,0.8c-0.6,1.5-1.4,2.9-2.1,4.4c2.1-0.6,4.2-1.5,6.3-2.1
		c0.6-0.1,0.9,0.5,0.7,0.9c-1.3,2.6-3,4.8-4.1,7.4c4-2.4,7.8-5.2,11.9-7.3c0.6-0.3,1.1,0.3,0.8,0.9c-0.9,2-2.1,3.9-2.5,6.1
		c8.3-8,18.6-13.4,27.3-20.9c1.2-1.1,2.3-2.2,3.4-3.3c0.6-2.7,1.1-5.4,1.9-8.1c1.1-4.2,2.5-8.3,3.8-12.6c-0.6,0.1-1,0.2-1.5,0.3
		c-7.7,1.5-15.4,2.9-23.3,1.9c-4.7-0.6-9.1-1.6-13.2-3.2C199.8,193,196.9,197.3,194.2,200.5z"/>
	<path class="st15" d="M476.2,212.5c-0.1-0.5-0.1-1.1-0.1-1.7c-0.7-9-1.3-18.1-4.5-26.6c-1.9-5-2.1-10.1-1.1-15.3
		c0.5-2.4,1-4.8,1.6-7.2c2.1-7.8,2.6-15.6,0.5-23.4c-2-7.5-5.6-14.4-10.4-20.5c-3.6-4.5-7.5-8.7-11.4-12.9c-2.8-3-6-5.8-8.7-8.8
		c-5.2-5.8-10.3-11.7-16-17.1c-4.5-4.2-8.6-8.7-13.9-11.9c-4.1-2.5-8.1-5.2-12.2-7.7c-1.7-1-3.5-1.8-5.4-2.3
		c-3.8-1.1-7.6-2.2-11.5-2.8c-5-0.8-10.1-1.3-15.1-1.7c-4.3-0.4-8.6-0.5-13-0.7c-8-0.5-16-1.1-23.9-1.6c-2.7-0.2-5.5-0.1-8.2-0.3
		c-13.5-0.9-26.9,0.1-40.1,3.2c-5.5,1.3-11,2.8-15.8,5.9c-12.4,7.8-25,15-38.2,21.3c-7,3.3-13.7,7.1-19.7,12
		c-6.4,5.1-11.3,11.1-14.6,18.7c-2.7,6.3-4.6,12.7-4.4,19.6c0.1,4-0.5,8.1-0.9,12.1c-0.2,2.4-1,4.6-2.3,6.6
		c-0.7,1.1-1.5,2.2-2.2,3.3c-2,3.1-3.1,6.4-3.1,10.1c0,2.7,1.3,4.9,2.3,7.2c3.3,7.4,8.1,13,14.1,16.9c-0.7-3-1.5-6.1-2.4-9.1
		c-0.2-0.6,0.5-0.9,0.9-0.7c1,0.5,2,0.7,3,1c0-5.2,0.1-10.3,0.7-15.4c0-0.4,0.4-0.7,0.8-0.6c1.4,0.4,2.7,0.8,3.9,1.4
		c0-0.5,0-0.9-0.1-1.4s0.3-0.8,0.8-0.7c5.1,1.4,9.9,3.4,15.2,3.8c-3-6.9-11.3-10.4-14.8-17.1c-0.2-0.4,0.1-1,0.6-0.9
		c2,0.3,4,0.6,6,1c-1.1-9.6-11.6-16-9.1-26.4c0.1-0.3,0.5-0.5,0.8-0.4c12.4,4,20.9,15.2,33.7,18.2c-1.8-5.8-7.3-9.7-9-15.7
		c-0.1-0.4,0.2-0.8,0.6-0.7c10.2,0.6,17.9,8.3,27.2,11.8c-2.8-4.2-5.9-8.2-8.3-12.7c-0.2-0.4,0.1-0.9,0.6-0.9
		c8.4,0.7,14.6,7.3,22.5,9.4c-3.8-15.9-22.3-23-26.4-39.1c-0.1-0.5,0.5-0.9,0.9-0.7c5,2.7,10.1,5.3,15.5,7.1
		c0.3-1.2,0.7-2.4,0.6-3.7c0-0.5,0.4-1,0.9-0.7c5.8,4.6,10.2,10.3,14,16.6c0.5-0.4,1.1-0.7,1.6-1.3c0.3-0.3,0.8-0.2,1,0.2
		c4.8,8.9,11.3,16.5,19,22.9c7.9,6.5,17.2,10.1,26.5,13.8c-3.9-4.6-8.3-8.7-12.5-13c-0.5-0.5,0.2-1.2,0.8-0.9
		c5.3,2.6,10.6,5.1,16.4,6.1c-3.2-7.5-9.7-12.9-10.3-21.6c0-0.5,0.6-0.7,0.9-0.5c1.1,0.6,2.3,0.9,3.5,1.3
		c-1.7-8.7-3.3-17.4-3.7-26.3c0-0.6,0.7-0.7,1.1-0.4c5.6,5.1,10.4,11.1,16.6,15.5c-0.1-2.4-0.4-4.8-0.6-7.2
		c-0.1-0.5,0.4-0.9,0.9-0.7c4.9,2.6,8.4,7,12.3,10.9c0.2-1.5,0.6-3,1-4.5c0.1-0.5,0.7-0.5,1-0.2c7,6,12,13.8,19,19.8
		c7,6.1,15.1,10.7,23.5,14.7c18.6,8.9,37.7,16.9,56,26.3c0.5,0.2,0.3,1-0.2,1.1c-6.9,1-13.9,1.1-20.8,1.4c1.1,2.3,3.1,3.8,5.1,5.3
		c0.4,0.3,0.4,1-0.2,1.1c-4.3,0.5-8.7-0.4-13-0.1c0.8,1.6,1.8,3,2.8,4.5c0.2,0.3,0,0.8-0.4,0.9c-8.1,2-16.6,1-24.7-0.5
		c2,2.7,5.2,4.1,7.9,6.1c0.5,0.4,0.3,1.1-0.4,1.1c-5.2,0.3-10.3-0.5-15.5-0.7c0.2,1,0.4,2,0.8,3c0.1,0.4,0,0.8-0.4,0.9
		c-9.8,2.2-19.4-0.1-29.1-1.6c1.9,2.7,5.2,4.2,6.4,7.4c0.1,0.4,0,0.8-0.4,0.9c-4.2,1.1-8.6,1.2-12.9,1c-2.5-0.1-13.2-1.3-13.2,1.9
		c0,0.3-0.2,0.5-0.5,0.6c-17.2,2.6-34.8-2-50.5-9.1c-15.9-7.2-33-10.1-50.2-11.9c1.9,0.9,3.8,1.7,5.6,2.8c0.4,0.2,0.4,0.9,0,1.1
		c-1.6,0.7-3.4,1.2-5.1,1.7c2.6,1.4,4.9,3,7.2,4.7c1.8-0.3,3.7-0.6,5.5-0.8c7.3-0.6,14.2,1.5,20.9,4c7,2.7,14,5.5,21.2,7.8
		c7.3,2.4,14.9,4.1,22.7,4.4c10.7,0.5,21.5-0.1,32.2-1c5.2-0.5,10.5-1.4,15.7-1.8c8.4-0.5,16.8-1.1,24.9,1.6
		c11.1,1.3,22,0.8,32.8-2.1c4.5-1.2,9-2.9,13.4-4.3c1.9-0.6,3.9-1.4,6.4-0.8c-3.4,1.1-6.4,2.2-9.5,3.2c1.3,2,2.6,3.5,3.5,5.2
		c1.4,2.7,1.5,5.8,1.5,8.8c0.1,5.4-0.1,10.7,0,16.1c0.1,5.3,0.2,10.6,0.8,15.8c1.1,8.7,1.1,17.4,0.3,26.2
		c-0.5,5.9-0.4,11.8-0.5,17.8c0,0.7,0.2,1.4,0.4,2.5c1.8-1.4,3.5-2.4,4.6-3.8c3.2-3.9,6-8.2,7.7-13.1c1.1-3.1,2.7-6,4.1-9
		c0.3-0.7,1-1.2,1.8-2.2c0.2,1.1,0.4,1.7,0.5,2.3c0.3,2.6,0.2,5.3,0.8,7.8c1.9,8.6,1.1,17-1.7,25.3c-0.3,0.9-0.5,1.8-0.8,2.7
		c0.1,0.1,0.3,0.2,0.4,0.3c0.8-0.9,1.5-1.9,2.3-2.8c1.3-1.4,2-2.9,2-4.8c-0.1-4.7,2-8.4,4.7-12.1c2.5-3.5,4.6-7.3,6.7-11.1
		c0.6-1,0.8-2.3,0.9-3.5c0.3-6.1,0.6-12.2,0.7-18.3c0.1-5.9-0.2-11.9,0.3-17.8C476.7,225.4,478,219,476.2,212.5z"/>
	<path class="st16" d="M442.1,126.1c5.5,2,10.4,5.4,16,7.1c-3-4.3-6.5-8.1-10.6-11.4c-3.3-2.8-6.8-5.5-8.7-9.5
		c-0.3-0.5,0.3-1,0.8-0.8c2.7,1.5,5.6,4.1,8.8,4.5c-1.8-2.9-4.1-5.3-6.2-7.9c-0.4-0.5,0.1-1.2,0.7-0.9c3,1.5,6.1,2.7,9,4.3
		c1,0.5,1.9,1.2,2.9,1.7c-3-3.6-6.2-7.1-9.5-10.5c-2.6-2.8-5.5-5.3-8.1-8.2c-4.8-5.4-9.6-10.9-14.9-15.8c-0.4-0.3-0.7-0.7-1.1-1
		c1.4,3.7,2.6,7.5,2.9,11.5c0,0.4-0.5,0.7-0.9,0.5c-2.3-1.6-4.2-3.9-6.8-5c1,1.8,2.1,3.6,2.9,5.5c0.2,0.5-0.3,1.1-0.8,0.8
		c-2.4-1.6-4.6-3.6-7.1-5c-1.8-1-3.6-1.9-5.5-2.7c3.1,3.4,6,6.9,8.6,10.7c2.6,3.8,5.3,7.9,6.1,12.6c0.1,0.5-0.4,0.9-0.9,0.6
		c-7.4-5.1-13.9-11.4-20.9-17.1c-3.6-2.9-7.3-5.7-11.2-8.3c-2.6-1.8-5.3-4.1-8.3-5.4c1.4,2.4,3.1,4.7,4.8,6.9
		c0.4,0.5-0.1,1.2-0.7,0.9c-3.6-1.9-7-4.1-10.6-6c-3.1-1.6-6.4-3-9.7-4.4c5.3,8.7,12.7,15.8,18.9,23.8c0.4,0.5-0.1,1.1-0.7,0.9
		c-2.9-1.4-5.6-3.4-8.7-4.4c0.9,1.5,1.8,2.9,2.2,4.6c0.1,0.4-0.4,0.9-0.9,0.6c-2.6-2-5.3-3.6-8.3-4.9c2.9,4.9,5.2,10.2,8.7,14.8
		c1.8,2.3,3.6,4.7,5.6,6.8c1.6,1.6,3.3,3.2,4.3,5.3c0.2,0.4-0.2,1-0.7,0.8c-4.4-1.8-8.7-4.7-13.5-4.5c2,1.8,4.5,2.9,5.5,5.6
		c0,0.1,0,0.2,0,0.3c0.7,0.6,1.5,1.2,2.3,1.7c7.2,5.2,15.1,9.4,23.1,13.2c4.3,2,8.7,4.1,13.2,5.4c2.1,0.6,4.3,1.2,6.4,1.8
		c-0.1-0.1-0.2-0.2-0.3-0.3c-0.4-0.4,0-1.1,0.6-0.9c4.4,1.5,8.6,3.6,13,5.3c2.9,1.1,5.9,2,8.8,2.9c-3.2-2.4-6-5.4-8.8-8.1
		c-3.9-3.8-7.2-7.9-9.3-13c-0.2-0.4,0.2-1,0.7-0.8c7,3.1,11.7,9.9,18.8,12.8c-0.8-1.2-1.8-2.2-2.4-3.5c-0.2-0.5,0.2-0.9,0.7-0.8
		c3,0.7,5.8,1.9,8.6,2.9c-3.3-5-7-9.6-9.8-14.8C441.2,126.5,441.7,126,442.1,126.1z"/>
	<path class="st17" d="M476.1,210.8c-0.7-9-1.3-18.1-4.5-26.6c-0.5-1.5-0.9-2.9-1.2-4.4c-2.4-1.8-5.2-2.8-8.2-4
		c1.4,4.6,2.7,9.5,2.3,14.4c-0.2,2.6-0.6,4.6,0.8,7.1c0.9,1.6,1.8,3.2,2.4,5c0.2,0.6-0.5,0.9-0.9,0.7c-2.4-1.2-4.7-2.7-7.2-3.6
		c2.6,6.1,6.9,11.8,6.8,18.8c0,0.5-0.7,0.8-1.1,0.4c-2.1-2.1-3.7-5-6.3-6.5c1,6.6,3.7,13,3.6,19.7c0,6.7-0.9,13.3-2.9,19.7
		c-0.2,0.5-0.8,0.5-1.1,0.1c-1.2-1.7-1.9-3.5-2.5-5.5c-1.6,5.1-2.8,10.5-6.4,14.5c-0.4,0.4-1,0-1-0.5c0-7.2,0.8-14.8-0.6-21.9
		c-1-5.5-2.9-11-2.9-16.7c0-0.4,0.4-0.7,0.8-0.6c2.1,0.8,0.4-4.3,0.4-5.4c0-0.4,0.4-0.7,0.8-0.6c1.1,0.3,2.2,0.7,3.2,1.1
		c-0.4-4.2-2.3-7.9-4-11.7c-0.2-0.4,0.1-1,0.6-0.9c1.4,0.2,2.8,0.4,4.2,0.6c-2.7-3.5-6.1-7.2-11-5.7c-0.2,0.1-0.4,0-0.5-0.1
		c-1.4,0.5-2.9,1-4.3,1.4c1.3,2,2.6,3.5,3.5,5.2c1.4,2.7,1.5,5.8,1.5,8.8c0.1,5.4-0.1,10.7,0,16.1c0.1,5.3,0.2,10.6,0.8,15.8
		c1.1,8.7,1.1,17.4,0.3,26.2c-0.5,5.9-0.4,11.8-0.5,17.8c0,0.7,0.2,1.4,0.4,2.5c1.8-1.4,3.5-2.4,4.6-3.8c3.2-3.9,6-8.2,7.7-13.1
		c1.1-3.1,2.7-6,4.1-9c0.3-0.7,1-1.2,1.8-2.2c0.2,1.1,0.4,1.7,0.5,2.3c0.3,2.6,0.2,5.3,0.8,7.8c1.9,8.6,1.1,17-1.7,25.3
		c-0.3,0.9-0.5,1.8-0.8,2.7c0.1,0.1,0.3,0.2,0.4,0.3c0.8-0.9,1.5-1.9,2.3-2.8c1.3-1.4,2-2.9,2-4.8c-0.1-4.7,2-8.4,4.7-12.1
		c2.5-3.5,4.6-7.3,6.7-11.1c0.6-1,0.8-2.3,0.9-3.5c0.3-6.1,0.6-12.2,0.7-18.3c0.1-5.9-0.2-11.9,0.3-17.8c0.5-6.5,1.8-12.9,0-19.3
		C476,212,476.1,211.4,476.1,210.8z"/>
	<path class="st15" d="M293.2,250.1c2.1,0.3,4.3,0.7,6.4,0.8c3.9,0.2,7.9,0.2,11.4-1.7c-0.8-0.1-1.5-0.3-2.1-0.3
		c-3.5-0.4-6.5-1.8-9.7-2.9c-0.1,0.2-0.1,0.4-0.2,0.6c-0.1,0.4-0.6,0.5-0.9,0.3c-1.6-0.9-3.4-1.8-4.9-2.9c-1.1-0.7-2.1-1.5-3.4-1.8
		c0,0.4,0,0.8,0,1.2s-0.2,0.8-0.6,0.7c-4.7,0-9.1-0.6-13.7,0.6c-3.1,0.8-6.1,1.9-9,3.3c5.8-0.7,11.5-2,17.4-1.3
		c2.7,0.3,4.6,0.8,3.3,2.8C289.2,249.8,291.2,249.8,293.2,250.1z"/>
	<path class="st15" d="M391.8,252.8c2.2-0.1,4.5-1.2,6.7-1c3.1,0.3,6-0.7,9-0.8c0.6,0,1.2-0.1,1.8-0.2c1.2-0.3,2.5-0.7,3.7-1.1
		c2.8-1,6.4-2.5,8.7-4.8c-4.9,1.2-9.9,1.8-15,2.2c-3.3,0.3-5.2,0.7-5-2.4c-4.7,1.4-8.6,3.6-13.7,3.9c-1.2,0.1-3.7,0.9-4.9,0.1
		c-0.8-0.5-0.8-1.2-0.8-2c-2.6,1.3-5,3.1-7.8,3.6c1.2,0.9,2.6,1.8,4,2.1c0.1,0,0.2,0.1,0.3,0.2C383,253,387.4,252.9,391.8,252.8z"/>
	<path class="st18" d="M283.2,287.5c1.7,0.4,3.3,0.6,5,0.7c-1.2-0.1-2.4-0.2-3.7-0.4C284.2,287.6,283.7,287.5,283.2,287.5z"/>
	<path class="st19" d="M340,290.9c0,4.3-0.1,8.5-0.1,12.8c0.1,3.7,0.5,7.4,0.6,11.1c0,2.8,0,5.8-1.3,8.3c-0.8,1.6-1.9,3.1-2.3,4.8
		c-0.7,3,1.1,4.1,3.7,3.6c1.3-0.2,2.5-0.6,3.7-0.9c1-0.2,2.3,0,3.2-0.3c4-1.4,3-7.9,2.6-11c-0.5-4.1-1.3-8.2-2-12.3
		c-0.6-3.8-0.8-7.6-1.2-11.4c-0.7-6.1-1.9-12.2-1.5-18.4c0.1-2.1,1.3-10.6-1.5-11.7h-0.1c-4.6-0.3-4.3,7.7-4.2,10.7
		C339.7,281.2,340,286,340,290.9z"/>
	<path class="st19" d="M333.6,407.3c-3.1,1.6-5,3.7-6.6,6.7c-0.7,1.3-1.7,3.5-3.2,4.1c-3.9,1.5-7.3-1.6-11.1-1.4
		c-3.9,0.2-4.9,3.8-1.3,5.8c1,0.6,2.1,1.1,3.2,1.6c2.4,1.1,4.6,2.7,6.7,4.3c2.6,1.9,5.1,4.5,8.2,5.6c3.3,1.1,6.1,0.5,9.2-0.5
		c0.1-0.2,0.3-0.4,0.6-0.4c3.1-0.3,5.8-1.8,8.9-2.1c2.5-0.2,5.2-0.3,7.5-1.4c5.1-2.3,8.1-8.3,6.7-13.8
		C358.9,403.4,343.3,402.1,333.6,407.3z"/>
	<path class="st19" d="M305.8,374.1c4.5-1.6,8.7-3.7,13.2-5.2c5.2-1.7,9.5-2,14.8-0.7c3.3,0.8,6.2,1.3,9.6,0.5
		c2.6-0.6,5.1-1.3,7.7-1.7c5-0.6,9.8,0.5,14.7,0.9c-1.3-1.1-2.9-1.8-4.5-2.6c-3-1.5-6.1-3.1-9.5-3.3c-3.3-0.3-5.8,0.7-9,1.5
		c-2.6,0.7-5.1,0.6-7.7,0.3c-6.4-0.7-12.8-0.2-18.8,2.4C312.1,368.3,309.1,371.1,305.8,374.1z"/>
	<path class="st19" d="M362.2,238.9c0.8-0.5,1.3-1.3,1.9-2c1.4-1.6,3.2-2.8,4.9-4.1h0.1c-2.7-0.3-6.5,0.6-7.6,2.8
		c-0.3,0.5-0.5,1.1-0.4,1.7C361,238,361.4,238.5,362.2,238.9z"/>
	<path class="st19" d="M378.1,266.5c-1.3-0.3-2.6-0.5-3.9-0.5h-0.1c-4.2-0.1-6.4,4.4-7.4,8c5.8-0.7,10.6,1.4,15.9,3.8
		c7.3,3.3,14.5,3.9,21.3-0.3c-4.3-0.1-8.6,0.4-12.9-0.5c-0.4-0.1-0.6-0.6-0.3-0.9c2.8-3.5,7-4.5,11-6.2c2.2-0.9,4.3-1.9,5.8-3.7
		c0.6-0.7,1-1.6,0.8-2C398.4,268.2,388.5,268.9,378.1,266.5z"/>
	<path class="st19" d="M290.8,233c-4.6-3.8-10.3-6.9-16.2-7.2c-4.7-0.2-10.3,0.3-14.1,3.4c4.7,0.1,9.5,0.3,14.1,1.3
		C280,231.6,285.2,233.1,290.8,233z"/>
	<path class="st19" d="M307.4,293.8c2.1-4.4,2.4-9.4,5.8-13c1.5-1.6,3.1-2.5,4.8-3.9c2.9-2.5-0.9-4.6-2.9-5.6
		c-1.9-1-3.7-1.9-5.6-2.9c-0.5-0.2-0.9-0.4-1.4-0.7c-0.3-0.1-0.5-0.3-0.8-0.4c-2.4-1.2-4.4-1.5-6.7-0.9c-0.9,0.3-1.7,0.5-2.6,0.8
		c-4.2,1.4-8.1,2-12.6,1.3c-0.1,0-0.2,0-0.2,0c-1.9-0.1-3.8-0.3-5.8-0.7c-2.7-0.5-5.3-1.5-7.5-3.1c-1.1,0.3-2.1,0.6-3.1,1.2
		c0.8,1.8-1.6,3.3-2.9,4.3c-2.2,1.7-1.4,3.7-0.2,5.9c0.5,0.9,1,1.8,1.6,2.7c2.1,1.8,4.2,3.3,6.4,4.6c3,1.2,6.2,2,9.1,2.6
		c7.1,1.5,13.7,1.1,20.6-1.5c0.5-0.2,1,0.2,0.9,0.7c-0.7,2.8-2,5.1-2.3,8c-0.2,1.5-0.2,3.3-1,4.6c-0.6,1.1-1.7,1.9-2.8,2.5
		c-0.3,0.2-0.7,0.4-1,0.6c-1.4,0.5-1.5,1.5-0.4,3c0.8,0,1.7,0,2.5-0.2C303.6,302.9,305.6,297.4,307.4,293.8z"/>
	<g class="st20">
		<path class="st1" d="M264.1,264.1c0,0,4.2-1.9,5-1.9s12-1.9,12-1.9l14,2.8l4.9,1.4c0,0,5,2.3,5.3,2.4s5.9,1.4,5.9,1.4l-7.3-4.1
			c0,0-6.2-3.3-6.5-3.3s-9-2.4-9-2.4l-8.2-1.1l-7,0.6l-3.3,1.1L264.1,264.1z"/>
	</g>
	<g class="st20">
		<path class="st1" d="M369.1,266.8c0.4-0.2,5.8-4.3,5.8-4.3l5.9-3.1l6.8-1.8l7.1-0.2l6.8,1.3l5.7,2.3l4.6,2.3l3.2,2.3l-3.7-0.8
			l-5.8-1.4l-6.7-1.8l-6-0.7l-5.7,0.3l-5,1.3l-5.1,1.4l-2.7,1.2L369.1,266.8z"/>
	</g>
	<g class="st20">
		<path class="st1" d="M206.8,267.4c0,0-1.1-5.2-2-6c-0.9-0.7-5-1.1-5-1.1l-2,8.6l0.4,6.7l2.4,4.3l2.8,3.5c0,0,2,1.1,3.5,4.3
			c1.5,3.2,3.2,4.6,3.2,4.6l-1.1-3.2l-1.9-5.8l-0.4-6.3l0.4-5.2L206.8,267.4z"/>
	</g>
	<g class="st20">
		<path class="st1" d="M250.4,411.2l2.8,6l8.1,7.9l9.1,7l8.8,6.5l5.3,5.3l6.2,7.4l5.6,5.1l7.2,4.6l7.4,1.9l6.5,1.4l11.2-0.9l9.3-1.9
			l7-0.9l7.9-0.9l7.9-1.6l6.5-4.2l4.2-3l6.5-4.2l6.5-4l7.4-4.6c0,0-5.6,7.2-13.9,13.7c-8.4,6.5-17.7,13-24.9,13.7
			c-7.2,0.7-10.7,0-18.1,2.6s-16.5,3.3-23.2,1.2c-6.7-2.1-15.1-2.3-18.4-8.4c-3.3-6-9.5-10.5-13.3-15.1c-3.7-4.6-9.8-9.3-12.3-11.9
			c-2.6-2.6-14.2-13.9-14.2-13.9L250.4,411.2z"/>
	</g>
	<g class="st21">
		<path class="st1" d="M297.8,523.8c0,0,9.9,4.8,17,3c7.2-1.8,15-4.5,15-4.5l2.1-7.5l5.7-4.8l3.6-4.8c0,0-8.7,3.9-15.5,5.1
			c-6.9,1.2-12.6,2.4-15.5,1.5c-3-0.9-10.5-1.8-10.5-1.8l-5.1-3.6l4.1,9.2L297.8,523.8z"/>
	</g>
</g>
<g>
	<path class="st22" d="M221.8,246.1h8.3c7.5,0,13.6-8.8,13.6-19.6v-53.1c0-10.8-6.1-19.6-13.6-19.6H28.6c-7.5,0-13.6,8.8-13.6,19.6
		v53.1c0,10.8,6.1,19.6,13.6,19.6h150.2c2.7,79.9,57.4,102.3,88.8,94.6C238.3,338.5,221.8,275.4,221.8,246.1z"/>
	<text transform="matrix(1 0 0 1 21.7219 184.4047)" class="st23 st24">Global warming isnt </text>
	<text transform="matrix(1 0 0 1 21.7219 208.4047)" class="st23 st24">real. Im the president, </text>
	<text transform="matrix(1 0 0 1 21.7219 232.4047)" class="st23 st24">I would know</text>
</g>
<rect x="0.6" y="603.9" class="st25" width="732.3" height="13.4"/>
<text transform="matrix(1 0 0 1 0.5554 607.4498)" class="st26 st27 st28">https://www.freepik.com/free-vector/hand-drawn-donald-trump-portrait_3317612.htm#query=trump&amp;position=10#position=10&amp;query=trump</text>
</svg>
